<svg width="238" height="75" viewBox="0 0 238 75" fill="none" xmlns="http://www.w3.org/2000/svg">
<path fill-rule="evenodd" clip-rule="evenodd" d="M30.5592 0C13.6818 0 0 13.6265 0 30.4355V75H207.441C224.318 75 238 61.3733 238 44.5644V0H30.5592ZM24.7958 33.9954V50.7516H30.4039V33.9954H34.5616V29.9123H30.4039V28.2366C30.4039 26.2721 31.4546 25.2899 33.556 25.2899C34.2264 25.2899 34.7937 25.3476 35.2578 25.4632L35.3158 21.1489C34.1942 20.8921 33.2466 20.7637 32.4731 20.7637C30.0493 20.7637 28.1606 21.4122 26.8069 22.709C25.4662 23.993 24.7958 25.8035 24.7958 28.1403V29.9123H21.6823V33.9954H24.7958ZM48.3994 50.7516C48.1417 50.2508 47.9546 49.6283 47.8385 48.8833C46.4849 50.3858 44.7251 51.1369 42.5592 51.1369C40.5093 51.1369 38.8076 50.5463 37.4538 49.3647C36.1131 48.1836 35.4427 46.6941 35.4427 44.8966C35.4427 42.6881 36.2613 40.9932 37.8986 39.8119C39.5488 38.6307 41.9275 38.0336 45.0345 38.0207H47.6063V36.8266C47.6063 35.8636 47.3551 35.0932 46.8522 34.5154C46.3624 33.9376 45.5824 33.6487 44.5123 33.6487C43.5712 33.6487 42.8299 33.8734 42.2884 34.3228C41.7598 34.7722 41.4955 35.3885 41.4955 36.1718H35.9068C35.9068 34.9648 36.2807 33.8477 37.0284 32.8205C37.7762 31.7933 38.8333 30.9908 40.1999 30.413C41.5664 29.8224 43.1007 29.527 44.8024 29.527C47.3806 29.527 49.4242 30.1755 50.9328 31.4723C52.454 32.7563 53.2145 34.5668 53.2145 36.9037V45.9366C53.2275 47.914 53.5047 49.4101 54.0462 50.4242V50.7516H48.3994ZM46.0594 46.3412C45.3632 46.7005 44.6026 46.8804 43.7775 46.8804C42.9266 46.8804 42.2562 46.6557 41.7663 46.2063C41.2764 45.7569 41.0314 45.1855 41.0314 44.4921L41.0508 44.1647C41.2313 42.2387 42.7203 41.2757 45.5179 41.2757H47.6063V44.8581C47.2711 45.4744 46.7557 45.9687 46.0594 46.3412ZM66.0659 34.9776C66.6463 34.9776 67.3168 35.029 68.0774 35.1317L68.1545 29.7774C67.6131 29.6105 67.0331 29.527 66.4142 29.527C64.4287 29.527 62.875 30.4836 61.7536 32.3968L61.599 29.9123H56.3195V50.7516H61.9083V37.1155C62.5658 35.6903 63.9518 34.9776 66.0659 34.9776ZM74.8372 29.9123L75.0113 32.2427C76.4939 30.4323 78.4985 29.527 81.0254 29.527C83.7199 29.527 85.5698 30.5863 86.5756 32.7049C88.0452 30.5863 90.1402 29.527 92.8603 29.527C95.1295 29.527 96.8183 30.1883 97.9271 31.5108C99.036 32.8205 99.5904 34.7979 99.5904 37.4429V50.7516H93.9821V37.4622C93.9821 36.2809 93.75 35.4206 93.2861 34.8814C92.8218 34.3292 92.0032 34.0532 90.8298 34.0532C89.154 34.0532 87.9936 34.8493 87.3491 36.4414L87.3682 50.7516H81.7794V37.4815C81.7794 36.2745 81.5412 35.4014 81.0639 34.8621C80.587 34.3228 79.7749 34.0532 78.6275 34.0532C77.0418 34.0532 75.8945 34.708 75.1854 36.0177V50.7516H69.5963V29.9123H74.8372ZM103.005 50.7516H108.613V21.1682H103.005V50.7516ZM121.677 51.1369C118.609 51.1369 116.108 50.1995 114.174 48.3247C112.253 46.4504 111.292 43.9528 111.292 40.8327V40.2934C111.292 38.2005 111.698 36.3323 112.51 34.6887C113.323 33.0324 114.47 31.7612 115.953 30.8752C117.448 29.9765 119.15 29.527 121.058 29.527C123.92 29.527 126.17 30.4259 127.807 32.2235C129.457 34.021 130.282 36.5698 130.282 39.8697V42.1424H116.958C117.139 43.5035 117.68 44.5948 118.583 45.4166C119.498 46.2384 120.652 46.6492 122.044 46.6492C124.197 46.6492 125.88 45.8724 127.091 44.3188L129.838 47.3813C128.999 48.5624 127.865 49.4868 126.434 50.1546C125.003 50.8095 123.417 51.1369 121.677 51.1369ZM118.331 35.151C119.027 34.4063 119.93 34.0339 121.039 34.0339C122.225 34.0339 123.14 34.3742 123.785 35.0547C124.429 35.7224 124.765 36.6725 124.79 37.9052V38.3481H117.016C117.21 36.9614 117.648 35.8957 118.331 35.151ZM137.603 32.3198L137.429 29.9123H132.169V50.7516H137.758V36.0562C138.544 34.7208 139.724 34.0532 141.297 34.0532C142.496 34.0532 143.353 34.3228 143.869 34.8621C144.385 35.3885 144.642 36.2424 144.642 37.4237V50.7516H150.231V37.2888C150.205 34.708 149.651 32.7692 148.568 31.4723C147.485 30.1755 145.835 29.527 143.618 29.527C141.103 29.527 139.099 30.458 137.603 32.3198ZM152.427 40.1778C152.427 36.9293 153.155 34.3421 154.613 32.416C156.082 30.4901 158.087 29.527 160.627 29.527C162.664 29.527 164.346 30.2846 165.674 31.7997V21.1682H171.282V50.7516H166.235L165.964 48.5369C164.572 50.2702 162.78 51.1369 160.588 51.1369C158.126 51.1369 156.147 50.174 154.651 48.2479C153.168 46.3088 152.427 43.619 152.427 40.1778ZM159.041 45.0699C158.357 44.0299 158.016 42.534 158.016 40.5823C158.016 36.2295 159.363 34.0532 162.058 34.0532C163.772 34.0532 164.978 34.7786 165.674 36.2295V44.4536C164.965 45.9045 163.746 46.6298 162.019 46.6298C160.717 46.6298 159.724 46.11 159.041 45.0699ZM204.847 51.1369C207.284 51.1369 209.192 50.3021 210.571 48.6331L210.726 50.7516H215.986V29.9123H210.378V44.6655C209.669 45.9751 208.367 46.6298 206.472 46.6298C204.486 46.6298 203.493 45.545 203.493 43.375V29.9123H197.905V43.5676C197.93 46.0458 198.53 47.927 199.703 49.2107C200.889 50.495 202.604 51.1369 204.847 51.1369ZM196.521 35.1317C195.76 35.029 195.09 34.9776 194.51 34.9776C192.395 34.9776 191.009 35.6903 190.352 37.1155V50.7516H184.763V29.9123H190.043L190.197 32.3968C191.319 30.4836 192.872 29.527 194.858 29.527C195.477 29.527 196.057 29.6105 196.598 29.7774L196.521 35.1317ZM175.605 45.8596C175.012 46.4115 174.716 47.1306 174.716 48.0167C174.716 48.8898 175.012 49.6024 175.605 50.1546C176.199 50.6938 176.953 50.9635 177.868 50.9635C178.796 50.9635 179.557 50.6938 180.15 50.1546C180.743 49.6024 181.039 48.8898 181.039 48.0167C181.039 47.1306 180.736 46.4115 180.131 45.8596C179.538 45.3074 178.783 45.0314 177.868 45.0314C176.966 45.0314 176.211 45.3074 175.605 45.8596Z" fill="#00A052"/>
</svg>
