<svg width="312" height="64" viewBox="0 0 312 64" fill="none" xmlns="http://www.w3.org/2000/svg">
<path d="M108.47 18.1973C108.748 18.0411 109.06 17.8848 109.425 17.7459C109.79 17.607 110.172 17.5028 110.589 17.4159C110.988 17.3291 111.405 17.2944 111.839 17.2944C112.412 17.2944 112.863 17.3638 113.176 17.5028C113.488 17.6243 113.697 17.8153 113.818 18.0584C113.94 18.2842 114.009 18.562 113.992 18.8572C112.95 18.8572 111.978 18.9614 111.11 19.135C110.241 19.326 109.477 19.6037 108.852 19.9857C108.21 20.3678 107.724 20.8366 107.376 21.427C107.029 22.0174 106.855 22.7118 106.855 23.5106C106.855 24.0142 106.942 24.5004 107.133 24.9344C107.307 25.4032 107.585 25.8026 107.932 26.1325C108.279 26.4972 108.696 26.7576 109.182 26.966C109.686 27.157 110.241 27.2612 110.849 27.2612C111.561 27.2612 112.203 27.157 112.794 26.9139C113.384 26.6882 113.888 26.3235 114.304 25.8373H114.374L114.617 27.0181H118.229C118.176 26.775 118.124 26.5145 118.107 26.2193C118.072 25.9068 118.055 25.5595 118.038 25.1948C118.038 24.8302 118.02 24.4657 118.02 24.0663V19.8642C118.038 19.135 117.951 18.4405 117.76 17.8153C117.586 17.1728 117.291 16.6173 116.874 16.1311C116.475 15.6449 115.919 15.2629 115.207 14.9851C114.513 14.7073 113.645 14.5684 112.603 14.5684C111.839 14.5684 111.127 14.6378 110.484 14.7594C109.859 14.8635 109.321 15.0198 108.852 15.1761C108.383 15.3497 108.019 15.506 107.741 15.6623L108.47 18.1973ZM114.131 22.6077C114.131 22.9549 114.061 23.2501 113.957 23.4759C113.853 23.719 113.714 23.8926 113.54 24.0316C113.367 24.1705 113.193 24.2747 113.019 24.3441C112.828 24.4136 112.672 24.4483 112.533 24.4657C112.394 24.5004 112.29 24.5004 112.221 24.5004C111.943 24.5004 111.7 24.4483 111.491 24.3615C111.266 24.2573 111.092 24.101 110.971 23.91C110.832 23.7016 110.78 23.4412 110.762 23.1286C110.78 22.6771 110.919 22.3298 111.214 22.0521C111.491 21.7917 111.891 21.6007 112.394 21.4791C112.898 21.3576 113.488 21.3055 114.131 21.3055V22.6077ZM133.925 27.0181V17.8153H137.815V27.0181H141.704V14.8288H130.036V27.0181H133.925ZM156.949 17.8327V27.0181H160.838V17.8327H165.006V14.8288H152.713V17.8327H156.949ZM186.59 23.8579C186.069 24.0316 185.531 24.1531 184.974 24.2399C184.418 24.3094 183.829 24.3441 183.22 24.3441C182.787 24.3441 182.369 24.3094 181.987 24.2226C181.588 24.1184 181.241 23.9968 180.945 23.8058C180.632 23.6322 180.373 23.4064 180.199 23.146C180.008 22.8855 179.886 22.5729 179.852 22.243H187.649C187.683 22.0869 187.7 21.8785 187.735 21.618C187.752 21.3576 187.769 21.045 187.769 20.6803C187.769 20.0378 187.718 19.4129 187.578 18.8051C187.439 18.1973 187.248 17.659 186.971 17.1381C186.693 16.6173 186.328 16.1832 185.895 15.7838C185.46 15.4018 184.939 15.1066 184.349 14.8983C183.741 14.6725 183.046 14.5684 182.266 14.5684C181.415 14.5684 180.651 14.6899 179.974 14.9503C179.314 15.1935 178.724 15.5407 178.22 15.9748C177.734 16.3916 177.318 16.8952 176.987 17.4507C176.675 18.0063 176.431 18.5967 176.276 19.2219C176.102 19.8295 176.032 20.472 176.032 21.0971C176.032 22.3645 176.293 23.4759 176.814 24.3962C177.335 25.3164 178.081 26.011 179.052 26.5145C180.043 27.0181 181.241 27.2612 182.647 27.2612C183.447 27.2612 184.227 27.2091 184.974 27.0702C185.739 26.9487 186.45 26.7403 187.111 26.4624L186.59 23.8579ZM179.852 19.5516C179.886 19.3087 179.939 19.0482 180.026 18.7877C180.13 18.5099 180.268 18.2668 180.442 18.0237C180.615 17.7806 180.842 17.5896 181.119 17.4333C181.38 17.2944 181.71 17.2076 182.092 17.2076C182.491 17.2076 182.821 17.2944 183.082 17.4507C183.342 17.5896 183.55 17.798 183.707 18.0411C183.846 18.2842 183.949 18.5446 184.002 18.8051C184.054 19.0829 184.088 19.326 184.088 19.5516H179.852ZM203.102 27.0181V22.1909C203.258 22.1909 203.449 22.1909 203.674 22.2256C203.884 22.243 204.126 22.3298 204.386 22.434C204.647 22.5556 204.907 22.7639 205.168 23.0244C205.428 23.3022 205.689 23.6843 205.932 24.1705C206.193 24.8302 206.453 25.4032 206.697 25.872C206.922 26.3409 207.164 26.7229 207.408 27.0181H211.488C211.315 26.7576 211.158 26.4624 211.002 26.1499C210.845 25.8373 210.708 25.5248 210.569 25.1948C210.412 24.8649 210.29 24.5351 210.151 24.2399C210.03 23.9274 209.926 23.6495 209.821 23.4064C209.613 22.8508 209.353 22.3472 209.075 21.8959C208.798 21.427 208.45 21.045 208.067 20.7151C207.685 20.4025 207.235 20.1768 206.697 20.0552L211.42 14.8288H206.748L203.537 19.6385H203.102V14.8288H199.247V27.0181H203.102ZM226.577 27.0181C226.682 26.8271 226.804 26.5666 226.995 26.1846C227.168 25.82 227.359 25.3685 227.584 24.8649C227.827 24.3615 228.071 23.8232 228.313 23.2501C228.575 22.6945 228.817 22.1216 229.061 21.5486C229.304 20.9755 229.529 20.4546 229.737 19.951C229.929 19.4476 230.103 19.0135 230.241 18.6488H230.345C230.311 19.1871 230.294 19.6905 230.275 20.1247C230.258 20.5588 230.223 20.9582 230.223 21.3576C230.206 21.7569 230.189 22.1562 230.189 22.5729C230.172 23.007 230.172 23.4585 230.172 23.9795V27.0181H233.801V14.8288H229.235L227.029 19.6558C226.786 20.1941 226.542 20.7324 226.317 21.2881C226.092 21.8611 225.865 22.4514 225.657 23.0939H225.518C225.588 22.3819 225.64 21.6007 225.674 20.7151C225.709 19.8468 225.726 18.8919 225.726 17.8674V14.8288H222.115V27.0181H226.577Z" fill="#188B30"/>
<path d="M96.7499 32.2794H89.3529V27.4176C89.3355 27.244 89.3702 26.9662 89.4223 26.5494C89.4918 26.1328 89.6307 25.6813 89.8738 25.1951C90.0995 24.7263 90.4816 24.3269 91.0025 23.9796C91.5233 23.6498 92.2352 23.4588 93.1556 23.4415C93.555 23.4415 93.9891 23.4762 94.4751 23.5456C94.9613 23.6151 95.9338 23.9796 96.42 24.1359V15.6452C96.09 15.5236 95.0482 15.1243 94.3188 14.968C93.607 14.7943 92.6867 14.6381 91.5754 14.4992C90.4642 14.3603 89.1619 14.2908 87.7034 14.2734C85.7761 14.2908 84.1438 14.5165 82.7895 14.9332C81.4177 15.3673 80.2892 15.9404 79.3862 16.6522C78.5006 17.3815 77.7888 18.1629 77.2505 19.0484C76.7122 19.9166 76.3128 20.8022 76.0697 21.7224C75.8094 22.6253 75.6358 23.4936 75.5489 24.2922C75.4795 25.1083 75.4447 25.8029 75.4447 26.3759V32.2794H69.3674V42.576H75.4447V63.2213H89.3529V42.576H96.7499V32.2794Z" fill="#E41B41"/>
<path d="M126.737 35.3523C125.677 34.4319 124.444 33.7028 123.055 33.1645C121.684 32.6088 120.208 32.2268 118.645 31.9837C117.1 31.7406 115.52 31.619 113.922 31.6364C112.516 31.6364 111.023 31.7059 109.442 31.8448C107.862 31.9837 106.265 32.2094 104.65 32.4873C103.035 32.7651 101.472 33.1124 99.9792 33.5291V41.6031C101.299 41.0302 102.566 40.5787 103.782 40.2488C104.98 39.9189 106.056 39.6757 107.029 39.5195C107.984 39.3806 108.748 39.2764 109.338 39.2243C109.911 39.1895 110.241 39.1722 110.311 39.1722C111.04 39.1722 111.804 39.2243 112.603 39.3111C113.401 39.3979 114.148 39.5889 114.842 39.8494C115.537 40.1099 116.093 40.4919 116.527 40.9955C116.961 41.499 117.186 42.1414 117.204 42.9575V43.8952H115.224C113.974 43.8778 112.637 43.9126 111.248 43.9473C109.842 43.9994 108.418 44.1383 107.011 44.3292C105.605 44.5375 104.268 44.8501 103.001 45.3016C101.716 45.7531 100.587 46.3782 99.5972 47.1594C98.6074 47.9582 97.8088 48.9654 97.2358 50.1981C96.6628 51.431 96.3676 52.9242 96.3676 54.6778C96.3676 55.9628 96.5586 57.1784 96.9753 58.2895C97.3921 59.4009 98.0346 60.3905 98.8853 61.224C99.7361 62.0749 100.795 62.7346 102.098 63.2034C103.4 63.6896 104.928 63.9154 106.699 63.9327C107.498 63.9501 108.349 63.898 109.234 63.7938C110.137 63.6896 111.04 63.4812 111.96 63.1687C112.88 62.8735 113.766 62.4222 114.617 61.8144C115.485 61.224 116.249 60.4426 116.978 59.453H117.204V63.2208H130.192V43.5479C130.174 41.6899 129.862 40.1099 129.254 38.7382C128.647 37.4011 127.813 36.2726 126.737 35.3523ZM117.204 51.5004C117.186 52.6637 116.995 53.6188 116.613 54.3481C116.232 55.0772 115.745 55.6155 115.155 55.9455C114.547 56.2928 113.922 56.449 113.245 56.449C112.238 56.4317 111.439 56.1538 110.832 55.6155C110.241 55.0772 109.929 54.3828 109.911 53.4972C109.929 52.7158 110.085 52.0907 110.397 51.5873C110.71 51.1184 111.127 50.7364 111.63 50.4933C112.151 50.2328 112.689 50.0592 113.28 49.955C113.87 49.8508 114.443 49.8161 114.999 49.7987C115.554 49.7813 116.058 49.7813 116.457 49.7813H117.204V51.5004Z" fill="#E41B41"/>
<path d="M157.522 31.6367C156.342 31.6367 155.265 31.8625 154.293 32.2966C153.32 32.7305 152.47 33.3036 151.706 34.0329C150.959 34.7622 150.317 35.5955 149.813 36.5159C149.292 37.4188 148.893 38.3737 148.598 39.3635H148.372V32.3487H135.054V63.2211H149.275V52.0215C149.292 50.2331 149.639 48.7398 150.317 47.5244C150.994 46.3089 151.897 45.3887 153.043 44.7636C154.189 44.1558 155.474 43.8433 156.898 43.8433C157.419 43.8433 157.921 43.878 158.408 43.9822C158.911 44.069 159.381 44.1732 159.831 44.3121V31.9319C159.467 31.8451 159.085 31.7756 158.686 31.7062C158.268 31.6714 157.887 31.6367 157.522 31.6367Z" fill="#E41B41"/>
<path d="M215.344 37.9044C215.014 36.7584 214.458 35.6993 213.693 34.7616C212.947 33.8239 211.905 33.0774 210.569 32.5043C209.249 31.9313 207.547 31.6361 205.48 31.6361C203.726 31.6361 202.251 31.8792 201.053 32.3307C199.855 32.7648 198.849 33.3377 198.067 34.0496C197.267 34.7616 196.643 35.5256 196.156 36.359C195.584 35.3172 194.924 34.4664 194.16 33.8413C193.413 33.2163 192.615 32.7474 191.764 32.4175C190.913 32.1049 190.079 31.8966 189.247 31.775C188.396 31.6708 187.613 31.6187 186.902 31.6361C186.241 31.6187 185.461 31.6708 184.593 31.7924C183.707 31.9139 182.804 32.1744 181.866 32.5738C180.929 32.9732 180.043 33.5634 179.192 34.3969C178.341 35.2131 177.612 36.3242 177.005 37.7134H176.778V32.3481H163.339V63.2205H177.578V45.4228C177.561 45.0061 177.578 44.5546 177.595 44.0684C177.629 43.5997 177.717 43.1482 177.874 42.7141C178.011 42.28 178.272 41.9327 178.62 41.6549C178.984 41.3944 179.471 41.2555 180.112 41.2381C180.755 41.2555 181.242 41.3944 181.572 41.6549C181.919 41.9153 182.161 42.2626 182.301 42.6967C182.457 43.1135 182.543 43.565 182.578 44.051C182.596 44.5372 182.614 44.9887 182.596 45.4228V63.2205H196.834V45.4228C196.817 44.9887 196.834 44.5372 196.868 44.051C196.885 43.565 196.973 43.1135 197.129 42.6967C197.267 42.2626 197.511 41.9153 197.858 41.6549C198.206 41.3944 198.692 41.2555 199.316 41.2381C199.959 41.2555 200.463 41.3944 200.81 41.6549C201.158 41.9327 201.417 42.28 201.574 42.7141C201.713 43.1482 201.799 43.5997 201.835 44.0684C201.852 44.5546 201.87 45.0061 201.852 45.4228V63.2205H216.09V44.7109C216.107 43.6692 216.073 42.5752 215.987 41.3944C215.899 40.2138 215.691 39.033 215.344 37.9044Z" fill="#E41B41"/>
<path d="M250.157 35.3523C249.081 34.4319 247.848 33.7028 246.476 33.1645C245.087 32.6088 243.611 32.2268 242.049 31.9837C240.503 31.7406 238.923 31.619 237.326 31.6364C235.919 31.6364 234.425 31.7059 232.845 31.8448C231.265 31.9837 229.668 32.2094 228.054 32.4873C226.438 32.7651 224.875 33.1124 223.382 33.5291V41.6031C224.701 41.0302 225.97 40.5787 227.185 40.2488C228.382 39.9189 229.46 39.6757 230.432 39.5195C231.387 39.3806 232.168 39.2764 232.741 39.2243C233.315 39.1895 233.645 39.1722 233.714 39.1722C234.443 39.1722 235.206 39.2243 236.005 39.3111C236.805 39.3979 237.551 39.5889 238.246 39.8494C238.94 40.1099 239.496 40.4919 239.929 40.9955C240.364 41.499 240.589 42.1414 240.606 42.9575V43.8952H238.627C237.377 43.8778 236.057 43.9126 234.651 43.9473C233.244 43.9994 231.838 44.1383 230.414 44.3292C229.025 44.5375 227.67 44.8501 226.403 45.3016C225.136 45.7531 223.989 46.3782 223.001 47.1594C222.01 47.9582 221.228 48.9654 220.656 50.1981C220.066 51.431 219.77 52.9242 219.77 54.6778C219.77 55.9628 219.978 57.1784 220.379 58.2895C220.795 59.4009 221.438 60.3905 222.289 61.224C223.138 62.0749 224.197 62.7346 225.501 63.2034C226.802 63.6896 228.331 63.9154 230.101 63.9327C230.901 63.9501 231.752 63.898 232.637 63.7938C233.54 63.6896 234.443 63.4812 235.362 63.1687C236.284 62.8735 237.169 62.4222 238.02 61.8144C238.889 61.224 239.669 60.4426 240.381 59.453H240.606V63.2208H253.595V43.5479C253.578 41.6899 253.282 40.1099 252.657 38.7382C252.05 37.4011 251.216 36.2726 250.157 35.3523ZM240.606 51.5004C240.589 52.6637 240.398 53.6188 240.016 54.3481C239.652 55.0772 239.148 55.6155 238.558 55.9455C237.95 56.2928 237.326 56.449 236.648 56.449C235.641 56.4317 234.842 56.1538 234.235 55.6155C233.643 55.0772 233.332 54.3828 233.315 53.4972C233.332 52.7158 233.488 52.0907 233.8 51.5873C234.113 51.1184 234.53 50.7364 235.032 50.4933C235.553 50.2328 236.093 50.0592 236.683 49.955C237.273 49.8508 237.847 49.8161 238.419 49.7987C238.957 49.7813 239.461 49.7813 239.877 49.7813H240.606V51.5004Z" fill="#E41B41"/>
<path d="M291.76 38.1121C291.552 37.3654 291.239 36.6015 290.806 35.8375C290.371 35.0908 289.781 34.3789 289.034 33.7539C288.27 33.1114 287.316 32.6078 286.152 32.2258C284.988 31.8438 283.582 31.6354 281.916 31.6354C281.187 31.6181 280.387 31.6875 279.502 31.8438C278.616 32.0001 277.731 32.2779 276.828 32.712C275.943 33.1288 275.092 33.7365 274.327 34.5352C273.546 35.3513 272.886 36.3932 272.382 37.7127H272.14V32.3474H258.7V63.2198H272.938V45.4221C272.938 45.0054 272.938 44.5539 272.974 44.0679C272.991 43.599 273.094 43.1475 273.251 42.7134C273.39 42.2793 273.632 41.932 273.98 41.6543C274.344 41.3939 274.848 41.2549 275.474 41.2376C276.117 41.2549 276.602 41.3939 276.949 41.6543C277.279 41.9147 277.54 42.2619 277.678 42.6961C277.817 43.1128 277.905 43.5643 277.939 44.0505C277.973 44.5366 277.973 44.988 277.973 45.4221V63.2198H292.195V41.7759C292.212 41.3765 292.177 40.8556 292.125 40.2131C292.073 39.5879 291.951 38.8762 291.76 38.1121Z" fill="#E41B41"/>
<path d="M297.073 14.6895V27.035H311.312V14.6895H297.073Z" fill="#E41B41"/>
<path d="M297.073 63.2201H311.312V32.3477H297.073V63.2201Z" fill="#E41B41"/>
<path d="M0 0H62.9778V63.082H36.5677V49.7641H49.6599V32.3831H36.5677V26.8093C36.5504 26.5315 36.5851 26.0802 36.6893 25.4203C36.7935 24.7605 37.0366 24.0485 37.4186 23.2846C37.8006 22.5553 38.4256 21.8954 39.2938 21.3571C40.1447 20.819 41.3253 20.5412 42.8534 20.5238C43.4957 20.5238 44.2251 20.5585 45.0238 20.6801C45.8224 20.7843 48.8437 21.444 49.6251 21.6871V8.26508C49.0868 8.07406 45.9787 7.36216 44.7807 7.10171C43.5652 6.82389 42.0546 6.5808 40.2141 6.35508C38.3908 6.14672 36.2552 6.04253 33.8243 6.02516C30.6641 6.04253 27.9727 6.3898 25.7155 7.06698C23.4756 7.74417 21.6177 8.64707 20.1244 9.7757C18.6485 10.9217 17.4677 12.1719 16.5823 13.561C15.7141 14.9501 15.0542 16.3391 14.6201 17.7977C14.2034 19.2215 13.9082 20.5759 13.7867 21.8607C13.6478 23.1457 13.5957 24.2395 13.6131 25.1598V32.3831H0V0ZM13.6131 63.082V49.7641H0V63.082H13.6131Z" fill="#188B30"/>
</svg>
