<svg width="309" height="40" viewBox="0 0 309 40" fill="none" xmlns="http://www.w3.org/2000/svg">
<path d="M305.805 2.65315C304.385 1.25349 302.471 0.46875 300.477 0.46875C298.484 0.46875 296.57 1.25349 295.15 2.65315L291.412 6.34935L287.66 2.65315C286.24 1.25349 284.326 0.46875 282.332 0.46875C280.339 0.46875 278.425 1.25349 277.005 2.65315C276.308 3.34087 275.753 4.16047 275.375 5.06422C274.997 5.96797 274.803 6.9378 274.803 7.91744C274.803 8.89707 274.997 9.8669 275.375 10.7707C275.753 11.6744 276.308 12.494 277.005 13.1817L280.757 16.8919L291.412 27.4345L305.805 13.1817C306.502 12.494 307.056 11.6744 307.434 10.7707C307.812 9.8669 308.007 8.89707 308.007 7.91744C308.007 6.9378 307.812 5.96797 307.434 5.06422C307.056 4.16047 306.502 3.34087 305.805 2.65315Z" fill="#FF5B00"/>
<path d="M25.6494 19.8749C25.6494 25.4752 20.5811 28.2754 13.4267 28.2754C4.52225 28.2334 0.994054 24.1031 0 18.5448H7.21039C7.75642 21.737 9.68853 22.8711 13.2727 22.8711C16.8569 22.8711 18.453 21.597 18.453 19.3849C18.453 17.7608 17.655 16.4867 14.4628 16.4867H9.89854V11.0684H13.7207C16.7029 11.0684 17.599 10.1304 17.599 8.42227C17.599 6.71418 16.4089 5.2161 12.9227 5.2161C10.4866 5.2161 8.30245 5.90213 7.75642 8.71629H0.54603C1.40008 3.94203 4.71826 0.0078125 13.0207 0.0078125C19.8811 0.0078125 24.7534 2.80797 24.7534 7.93224C24.8067 9.06925 24.5124 10.1955 23.9097 11.161C23.3068 12.1265 22.4242 12.8853 21.3792 13.3365C22.6908 13.835 23.8105 14.7363 24.5778 15.9111C25.345 17.0859 25.7202 18.4736 25.6494 19.8749Z" fill="#1D1D1B"/>
<path d="M61.8976 21.0088V34.4776H54.7852V27.6452H34.2461V34.4776H27.1477V21.0088H32.02C32.958 20.2248 33.5601 18.6427 34.0081 15.8985L36.4862 0.595703H56.9273V21.0088H61.8976ZM49.8149 21.0088V7.23207H42.5625L41.0645 16.2346C40.8879 17.9155 40.3634 19.5414 39.5244 21.0088H49.8149Z" fill="#1D1D1B"/>
<path d="M93.0491 14.1202C93.0491 22.4367 87.6728 28.233 80.5604 28.233C78.8865 28.2822 77.2254 27.9258 75.7188 27.1944C74.2123 26.4632 72.905 25.3784 71.908 24.0328V39.9377H64.8096V0.595506H71.908V4.38971C72.8841 3.00966 74.1827 1.8889 75.6907 1.12515C77.1986 0.361413 78.8704 -0.0223479 80.5604 0.00747368C87.5748 0.00747368 93.0491 5.76179 93.0491 14.1202ZM85.8387 14.1202C85.8387 9.696 82.8986 6.69984 78.9223 6.69984C77.9666 6.69802 77.0206 6.89207 76.1428 7.26981C75.2649 7.64755 74.4736 8.20114 73.8178 8.89642C73.1619 9.59156 72.6553 10.4137 72.3294 11.3121C72.0033 12.2105 71.8647 13.1662 71.922 14.1202C71.8647 15.0743 72.0033 16.0298 72.3294 16.9282C72.6553 17.8267 73.1619 18.6488 73.8178 19.3441C74.4736 20.0392 75.2649 20.5928 76.1428 20.9705C77.0206 21.3483 77.9666 21.5423 78.9223 21.5406C82.8566 21.5406 85.8387 18.6005 85.8387 14.1202Z" fill="#1D1D1B"/>
<path d="M123.893 0.594413V27.6439H116.738V24.0037C115.763 25.3486 114.474 26.4346 112.983 27.1667C111.492 27.8988 109.844 28.2549 108.184 28.2039C101.029 28.2039 95.709 22.4076 95.709 14.0912C95.709 5.7747 101.127 0.00638125 108.142 0.00638125C109.833 -0.0307208 111.507 0.34982 113.017 1.11412C114.526 1.87856 115.823 3.00311 116.794 4.38862V0.594413H123.893ZM116.794 14.1192C116.852 13.165 116.713 12.2094 116.387 11.311C116.061 10.4126 115.554 9.59046 114.898 8.89519C114.242 8.20005 113.451 7.64646 112.573 7.26872C111.695 6.89098 110.749 6.69693 109.794 6.69875C105.818 6.69875 102.877 9.69491 102.877 14.1192C102.877 18.5434 105.86 21.5396 109.794 21.5396C110.749 21.5412 111.695 21.3472 112.573 20.9694C113.451 20.5917 114.242 20.0381 114.898 19.343C115.554 18.6477 116.061 17.8256 116.387 16.9271C116.713 16.0287 116.852 15.0732 116.794 14.1192Z" fill="#1D1D1B"/>
<path d="M151.74 19.8328C151.74 25.4331 147.414 27.6452 141.8 27.6452H127.407V0.595703H140.624C146.098 0.595703 150.424 1.99578 150.424 7.42808C150.424 10.2282 148.926 11.7123 146.882 13.0284C148.359 13.4166 149.653 14.3096 150.54 15.5526C151.428 16.7954 151.852 18.3098 151.74 19.8328ZM140.008 6.11201H134.407V11.3203H140.008C142.444 11.3203 143.242 10.4382 143.242 8.75815C143.242 7.07806 142.402 6.11201 140.008 6.11201ZM144.572 19.1887C144.572 17.2706 143.69 16.3886 141.296 16.3886H134.407V22.1989H141.226C143.732 22.1429 144.53 21.1488 144.53 19.1887H144.572Z" fill="#1D1D1B"/>
<path d="M153.826 14.1197C153.787 12.2427 154.132 10.3773 154.836 8.63724C155.541 6.89722 156.593 5.31906 157.929 3.99865C159.263 2.67823 160.852 1.64344 162.601 0.957258C164.348 0.27094 166.217 -0.0523369 168.093 0.00688629C174.757 0.00688629 180.694 3.9831 181.716 10.8715H174.407C174.003 9.53749 173.159 8.37976 172.012 7.58662C170.865 6.79348 169.485 6.41167 168.093 6.50324C163.767 6.50324 160.981 9.63941 161.093 14.1197C161.205 18.5999 163.893 21.7501 168.093 21.7501C169.5 21.8405 170.897 21.4509 172.054 20.6446C173.212 19.8384 174.06 18.6635 174.463 17.3118H181.772C180.68 24.4522 174.659 28.2324 168.093 28.2324C166.216 28.2939 164.347 27.9719 162.598 27.2864C160.849 26.6008 159.259 25.5661 157.924 24.2453C156.589 22.9246 155.537 21.3455 154.832 19.6046C154.127 17.8636 153.786 15.9973 153.826 14.1197Z" fill="#1D1D1B"/>
<path d="M210.726 0.595703V27.6452H203.613V18.0547L204.061 10.0322L192.777 27.6452H184.572V0.595703H191.685V10.1862L191.335 18.1107L202.535 0.595703H210.726Z" fill="#1D1D1B"/>
<path d="M237.579 7.23207H229.178V27.6452H222.066V7.23207H213.666V0.595703H237.621V7.23207H237.579Z" fill="#1D1D1B"/>
<path d="M266.505 0.595703V27.6452H259.392V18.0547L259.84 10.0322L248.556 27.6452H240.351V0.595703H247.463V10.1862L247.113 18.1107L258.314 0.595703H266.505Z" fill="#1D1D1B"/>
<path d="M280.757 16.8919L277.005 13.1817C276.308 12.494 275.753 11.6744 275.375 10.7707C274.997 9.8669 274.803 8.89707 274.803 7.91744C274.803 6.9378 274.997 5.96797 275.375 5.06422C275.753 4.16047 276.308 3.34087 277.005 2.65315C278.425 1.25349 280.339 0.46875 282.332 0.46875C284.326 0.46875 286.24 1.25349 287.66 2.65315L291.412 6.34935L280.757 16.8919Z" fill="#FF8150"/>
</svg>
