<svg width="279" height="54" viewBox="0 0 279 54" fill="none" xmlns="http://www.w3.org/2000/svg">
<path d="M45.1726 16.9424H46.1429C49.4233 16.9424 52.0879 19.6382 52.0879 22.9571V30.3431C52.0879 33.6621 49.4233 36.3578 46.1429 36.3578H38.3497C36.5016 36.3578 35.6237 37.3083 35.6237 39.1158V47.0005C35.6237 50.3194 32.9592 53.0152 29.6787 53.0152H22.3784C19.0978 53.0152 16.4334 50.3194 16.4334 47.0005C16.4334 47.0005 16.4334 41.0949 16.4334 39.1158C16.4334 37.1525 15.4785 36.3578 13.6919 36.3578H5.94498C2.66445 36.3422 0 33.6466 0 30.3275V22.9415C0 19.6226 2.66445 16.927 5.94498 16.927H13.7227C15.4477 16.927 16.4642 15.9452 16.4642 14.1222V6.29989C16.4642 2.98082 19.1286 0.285156 22.4092 0.285156H29.7095C32.99 0.285156 35.6545 2.98082 35.6545 6.29989V14.1376C35.6545 16.0543 36.3474 16.9424 38.3343 16.9424H39.705L35.7007 22.4742C32.6357 22.2247 30.1869 19.6226 30.1869 16.4594V8.60598C30.1869 6.68946 29.4631 5.81678 27.43 5.81678H24.6578C22.9328 5.81678 21.9317 6.75182 21.9317 8.60598V16.4594C21.9317 19.7784 19.2672 22.4742 15.9867 22.4742H8.22439C6.2222 22.4742 5.46753 23.7986 5.46753 25.279V28.0526C5.46753 29.7198 6.46862 30.8262 8.19359 30.8262H15.9867C19.2672 30.8262 21.9317 33.5218 21.9317 36.8409V44.7098C21.9317 46.4862 22.8096 47.4834 24.627 47.4834H27.4146C29.1395 47.4834 30.1715 46.4238 30.1715 44.6786V36.8409C30.1715 33.5218 32.8359 30.8262 36.1164 30.8262H43.9097C45.7886 30.8262 46.6357 29.8601 46.6357 28.0214V25.2478C46.6357 23.3467 45.65 22.4742 43.8481 22.4742H41.1681L45.1726 16.9424Z" fill="url(#paint0_linear_289_560)"/>
<path d="M113.427 11.3867L125.834 41.9146H120.104L117.218 34.6744H103.389L100.546 41.9146H95.0794L107.308 11.3867H113.427ZM105.327 29.6628H115.238L110.288 17.1446L105.327 29.6628Z" fill="#8168F0"/>
<path d="M151.543 16.4089H135.481V41.9146H130.099V11.3867H156.936V41.9146H151.554V16.4089H151.543Z" fill="#8168F0"/>
<path d="M186.987 16.408H176.824V41.9137H171.442V16.408H161.446V11.3965H186.987V16.408Z" fill="#8168F0"/>
<path d="M210.769 28.7032H196.898V36.903H212.833V41.9146H191.517V11.3867H212.36V16.3983H196.898V23.681H210.769V28.7032Z" fill="#8168F0"/>
<path d="M90.5311 28.7032H76.66V36.903H92.5954V41.9146H71.278V11.3867H92.1215V16.3983H76.66V23.681H90.5311V28.7032Z" fill="#8168F0"/>
<path d="M224.627 41.9146H219.245V11.3867H224.627V24.2035H229.147L238.836 11.3867H245.388L233.886 25.9095L247.24 41.9146H240.352L229.409 28.7032H224.627V41.9146Z" fill="#8168F0"/>
<path d="M266.123 11.3867L278.53 41.9146H272.8L269.914 34.6744H256.086L253.241 41.9146H247.775L260.004 11.3867H266.123ZM258.023 29.6628H267.934L262.984 17.1446L258.023 29.6628Z" fill="#8168F0"/>
<defs>
<linearGradient id="paint0_linear_289_560" x1="14.6323" y1="46.6392" x2="38.5821" y2="5.63773" gradientUnits="userSpaceOnUse">
<stop stop-color="#8168F0"/>
<stop offset="0.137" stop-color="#7F6DF0"/>
<stop offset="0.2924" stop-color="#787AF0"/>
<stop offset="0.4568" stop-color="#6C91F1"/>
<stop offset="0.6273" stop-color="#5DB1F1"/>
<stop offset="0.8012" stop-color="#48D9F2"/>
<stop offset="0.8195" stop-color="#46DEF2"/>
<stop offset="1" stop-color="#50E3C2"/>
</linearGradient>
</defs>
</svg>
