<svg width="316" height="65" viewBox="0 0 316 65" fill="none" xmlns="http://www.w3.org/2000/svg">
<path d="M307.595 7H7.62633C3.41442 7 0 10.4144 0 14.6263V50.2159C0 54.4278 3.41442 57.8422 7.62633 57.8422H307.595C311.808 57.8422 315.222 54.4278 315.222 50.2159V14.6263C315.222 10.4144 311.808 7 307.595 7Z" fill="#EC1D24"/>
<path fill-rule="evenodd" clip-rule="evenodd" d="M28.6116 18.4414L36.7184 40.376C36.7769 40.5095 36.8404 40.7065 36.9421 40.9696C37.0361 41.2174 37.1531 41.5136 37.2954 41.8263C37.4327 42.144 37.5916 42.4593 37.7823 42.7719C37.9602 43.0833 38.1737 43.3643 38.4013 43.6083C38.6339 43.8625 38.8652 44.0405 39.0927 44.1625C39.3151 44.2845 39.563 44.3531 39.8388 44.3913C40.1083 44.423 40.4311 44.4281 40.7959 44.4065V46.4046H30.4101V44.4065H31.7269C31.8541 44.423 31.9812 44.4065 32.1083 44.3735C32.2354 44.343 32.318 44.2159 32.3676 44.01C32.3879 43.968 32.3879 43.9248 32.3815 43.8714C32.3726 43.8129 32.3676 43.771 32.3676 43.729C32.3676 43.7189 32.3561 43.6553 32.318 43.5447C32.2875 43.438 32.229 43.2435 32.1286 42.9728L31.8795 42.2762C28.5277 36.9391 22.1712 37.3522 21.0501 37.4907L20.7552 38.0983H20.7438L19.2261 42.3703C19.1829 42.4872 19.1308 42.6398 19.066 42.8253C19.0037 43.0109 18.9465 43.1939 18.8931 43.3846C18.8397 43.5714 18.7978 43.7074 18.7863 43.8079C18.766 43.8511 18.7609 43.8994 18.7609 43.9515C18.7609 44.0049 18.766 44.0468 18.7863 44.09C18.8296 44.1841 18.9134 44.2476 19.024 44.2959C19.146 44.343 19.2732 44.3735 19.4104 44.39C19.549 44.4014 19.671 44.4065 19.7867 44.4065H20.7806V46.4046H12.7107V44.4065C13.3183 44.3798 13.8063 44.3214 14.1749 44.2375C14.5499 44.146 14.841 44.0354 15.0647 43.8994C15.2808 43.7507 15.4714 43.5816 15.6151 43.3859C15.7625 43.185 15.915 42.9537 16.0688 42.6931C16.248 42.3817 16.3802 42.1377 16.4603 41.9636C16.5391 41.7932 16.5925 41.6458 16.6357 41.5238C16.6777 41.3967 16.7298 41.2607 16.7882 41.0916L22.5779 25.7703L24.7832 20.0607C25.2115 18.9295 24.9738 19.6006 25.3768 18.4414H28.6116ZM175.202 18.4414L183.312 40.376C183.364 40.5095 183.431 40.7065 183.533 40.9696C183.622 41.2174 183.744 41.5136 183.882 41.8263C184.025 42.144 184.182 42.4593 184.368 42.7719C184.548 43.0833 184.765 43.3643 184.987 43.6083C185.22 43.8625 185.453 44.0405 185.68 44.1625C185.908 44.2845 186.155 44.3531 186.425 44.3913C186.702 44.423 187.018 44.4281 187.388 44.4065V46.4046H176.997V44.4065H178.319C178.446 44.423 178.573 44.4065 178.699 44.3735C178.821 44.343 178.911 44.2159 178.958 44.01C178.975 43.968 178.975 43.9248 178.97 43.8714C178.965 43.8129 178.958 43.771 178.958 43.729C178.958 43.7189 178.943 43.6553 178.911 43.5447C178.88 43.438 178.816 43.2435 178.716 42.9728L178.472 42.2762C175.12 36.9391 168.758 37.3522 167.637 37.4907L167.346 38.0983H167.329L165.813 42.3703C165.775 42.4872 165.722 42.6398 165.654 42.8253C165.596 43.0109 165.537 43.1939 165.48 43.3846C165.427 43.5714 165.389 43.7074 165.373 43.8079C165.358 43.8511 165.348 43.8994 165.348 43.9515C165.348 44.0049 165.358 44.0468 165.373 44.09C165.422 44.1841 165.5 44.2476 165.616 44.2959C165.733 44.343 165.86 44.3735 166.002 44.39C166.14 44.4014 166.262 44.4065 166.372 44.4065H167.373V46.4046H159.301V44.4065C159.91 44.3798 160.397 44.3214 160.767 44.2375C161.143 44.146 161.433 44.0354 161.657 43.8994C161.873 43.7507 162.057 43.5816 162.206 43.3859C162.353 43.185 162.507 42.9537 162.661 42.6931C162.841 42.3817 162.972 42.1377 163.052 41.9636C163.131 41.7932 163.183 41.6458 163.227 41.5238C163.263 41.3967 163.315 41.2607 163.379 41.0916L169.17 25.7703L171.369 20.0607C171.805 18.9295 171.566 19.6006 171.968 18.4414H175.204H175.202ZM140.789 18.463V20.4992H139.933C139.34 20.4992 138.879 20.5679 138.563 20.7052C138.24 20.8373 138.019 21.0128 137.892 21.2174C137.758 21.4335 137.695 21.6623 137.676 21.9063C137.653 22.1478 137.643 22.3868 137.653 22.6181V31.2549H138.103L145.634 23.0693C145.955 22.7134 146.199 22.4236 146.368 22.1923C146.532 21.9584 146.643 21.7627 146.696 21.6089C146.755 21.4513 146.78 21.3076 146.775 21.1907C146.769 20.9746 146.717 20.8221 146.596 20.7268C146.479 20.6213 146.325 20.5628 146.146 20.5361C145.955 20.5107 145.765 20.4942 145.554 20.498H145.104V18.463H153.704V20.4992C152.988 20.5577 152.344 20.6886 151.772 20.9162C151.196 21.1386 150.666 21.4297 150.17 21.8097C149.683 22.1859 149.197 22.6295 148.733 23.1481L144.66 27.626L150.647 38.341L151.44 39.7519C151.745 40.2756 152.069 40.8056 152.423 41.3395C152.777 41.8784 153.152 42.3817 153.539 42.8355C153.92 43.2905 154.311 43.6553 154.713 43.935C155.115 44.2209 155.506 44.3646 155.903 44.3697H156.754V46.4046H144.411V44.3709H144.945C145.087 44.3735 145.237 44.3646 145.4 44.3264C145.559 44.301 145.701 44.226 145.818 44.1104C145.934 43.9934 145.997 43.804 146.002 43.5549C145.997 43.396 145.934 43.18 145.823 42.9092C145.718 42.6398 145.594 42.3754 145.458 42.1123C145.321 41.8517 145.221 41.6572 145.146 41.5187L140.138 32.5552L137.653 35.2854V42.2546C137.643 42.4872 137.658 42.7364 137.695 42.9791C137.728 43.2219 137.817 43.4545 137.949 43.6655C138.091 43.8714 138.319 44.0405 138.632 44.1739C138.943 44.301 139.378 44.3697 139.933 44.3697H140.789V46.4046H127.995V44.3709H128.81C129.354 44.3709 129.789 44.3163 130.1 44.2057C130.423 44.0989 130.651 43.9464 130.799 43.7507C130.942 43.56 131.036 43.3388 131.079 43.0783C131.121 42.8304 131.143 42.5508 131.132 42.2546V22.3258C131.126 22.1364 131.107 21.9571 131.079 21.7894C131.036 21.5288 130.942 21.3064 130.799 21.1182C130.651 20.9212 130.423 20.7751 130.1 20.6632C129.788 20.5577 129.354 20.498 128.81 20.498H127.995V18.463H140.787H140.789ZM122.984 18.463L123.026 25.2581H121.72C121.641 25.0623 121.561 23.138 120.942 22.4554C120.201 21.6457 119.821 21.6407 119.092 21.3496C118.367 21.0649 117.505 20.9161 116.506 20.906H113.535C112.979 20.9009 112.529 20.9492 112.19 21.0585C111.852 21.1653 111.599 21.3712 111.446 21.6839C111.287 21.9838 111.212 22.4338 111.212 23.0261V30.1974H113.983C114.962 30.1974 115.76 30.1643 116.379 30.1122C116.997 30.0588 117.48 29.975 117.823 29.8758C118.166 29.7678 118.421 29.6369 118.578 29.4818C118.743 29.3242 118.848 29.15 118.911 28.9441C118.97 28.7471 119.028 28.5247 119.076 28.2832C119.092 28.1446 119.113 28.0239 119.134 27.907C119.155 27.7964 119.177 27.6655 119.197 27.5066H120.499V35.2854H119.197C119.177 35.1304 119.155 34.9931 119.134 34.8876C119.113 34.7719 119.092 34.6499 119.075 34.5114C119.038 34.3004 118.981 34.0894 118.886 33.8733C118.789 33.6547 118.626 33.4538 118.394 33.2695C118.156 33.0789 117.818 32.9302 117.368 32.8145C116.913 32.6976 116.316 32.6391 115.571 32.6391H111.212V41.8415C111.207 42.3601 111.271 42.7669 111.413 43.0783C111.557 43.3909 111.795 43.6185 112.138 43.7608C112.476 43.893 112.941 43.9629 113.535 43.9629H116.997C117.442 43.9769 117.965 43.9464 118.564 43.8828C119.172 43.8193 119.833 43.6922 120.492 43.3808C121.899 42.7147 122.873 39.8854 123.064 39.5206H124.411L124.327 46.4046H101.556V44.3709H102.413C103.01 44.3646 103.465 44.2947 103.787 44.1676C104.105 44.0316 104.327 43.8625 104.461 43.6502C104.586 43.4342 104.66 43.2117 104.677 42.9575C104.697 42.7147 104.702 42.4809 104.697 42.2546V22.5774C104.702 22.3169 104.688 22.069 104.655 21.8262C104.618 21.5784 104.533 21.3559 104.397 21.1602C104.253 20.9543 104.031 20.7992 103.72 20.6835C103.407 20.5628 102.97 20.4992 102.413 20.4992H101.557V18.463H122.985H122.984ZM98.3938 18.463L98.6582 24.4916H97.3566C96.5686 22.6778 96.7719 22.7249 95.4488 21.5504C95.131 21.2708 94.4192 21.1322 93.9578 21.0382C93.5028 20.9428 93.096 20.9009 92.7351 20.906C92.477 20.9009 92.233 20.906 92.0004 20.9212C91.764 20.9327 91.5619 20.9911 91.3763 21.0763C91.192 21.1704 91.0484 21.3292 90.9441 21.5618C90.8323 21.7894 90.7789 22.1173 90.7789 22.5355V42.2546C90.7738 42.4809 90.7789 42.7147 90.8005 42.9575C90.8208 43.2117 90.8844 43.4329 91.0166 43.6502C91.1437 43.8625 91.3725 44.0316 91.689 44.1688C92.0067 44.2959 92.4719 44.3646 93.0592 44.3697H93.9146V46.4046H81.1227V44.3709H81.9374C82.4814 44.3709 82.9161 44.3163 83.2276 44.2057C83.5504 44.0989 83.7779 43.9464 83.9305 43.7507C84.0741 43.56 84.1694 43.3388 84.2063 43.0783C84.2482 42.8304 84.2698 42.5508 84.2597 42.2546V22.5342C84.2597 22.1148 84.2063 21.7881 84.0995 21.5606C83.994 21.328 83.8517 21.1691 83.6724 21.075C83.4919 20.9899 83.286 20.9314 83.0585 20.92C82.831 20.9047 82.5933 20.8996 82.3455 20.9047C81.8853 20.8996 81.4252 20.9428 80.9753 21.0369C80.5202 21.131 79.7855 21.3165 79.5682 21.5491C78.2984 22.9359 78.653 22.4897 77.9984 24.4904H76.6956L76.6854 18.4617H98.3925L98.3938 18.463ZM73.0439 18.463V20.4992H72.2647C71.7258 20.4942 71.2822 20.5577 70.9428 20.6797C70.5945 20.7992 70.3454 21.0178 70.1814 21.328C70.0289 21.6368 69.9438 22.069 69.9438 22.6194V42.2546C69.9438 42.8037 70.0289 43.2384 70.1814 43.5384C70.3467 43.8562 70.5945 44.0735 70.9441 44.1955C71.2822 44.3163 71.7258 44.3735 72.266 44.3697H73.0439V46.4046H60.2939V44.3709H61.1074C61.6895 44.3735 62.1446 44.3163 62.4827 44.1955C62.8322 44.0735 63.0686 43.8574 63.2186 43.5384C63.3597 43.2384 63.4347 42.8037 63.4296 42.2546V23.0261C63.4296 22.4338 63.3546 21.9838 63.197 21.6839C63.0445 21.3712 62.789 21.1653 62.4509 21.0598C62.1115 20.9492 61.6628 20.9009 61.1074 20.9073H55.8084C55.2542 20.9009 54.8042 20.9492 54.4661 21.0598C54.128 21.1653 53.8725 21.3712 53.72 21.6826C53.5611 21.9838 53.4874 22.4325 53.4874 23.0261V42.2546C53.4823 42.8037 53.556 43.2384 53.6984 43.5384C53.8471 43.8562 54.095 44.0735 54.4331 44.1955C54.7724 44.3163 55.2326 44.3735 55.8084 44.3697H56.6244V46.4046H43.8363V44.3709H44.693C45.2866 44.3646 45.7454 44.2947 46.0632 44.1676C46.3809 44.0316 46.6072 43.8625 46.7343 43.6502C46.8614 43.4342 46.9351 43.2117 46.9504 42.9575C46.9733 42.7147 46.9783 42.4809 46.9733 42.2546V22.9651C46.972 22.9168 46.9707 22.8812 46.9669 22.8571C46.9669 22.8151 46.9567 22.7833 46.9516 22.7681C46.9453 22.7516 46.9453 22.7198 46.9351 22.6664C46.93 22.6143 46.93 22.4973 46.93 22.3334C46.93 22.144 46.9097 21.9482 46.8767 21.736C46.8512 21.525 46.7661 21.3292 46.6352 21.1386C46.4953 20.9543 46.2742 20.7992 45.9628 20.6835C45.6552 20.5628 45.2128 20.4992 44.651 20.4992H43.8795V18.463H73.0439ZM25.7771 25.7563H25.2967L22.1292 34.4224C23.8629 34.3855 26.8779 34.6169 29.692 36.3366L28.9777 34.5177L25.7771 25.7563ZM172.364 25.7563H171.889L168.715 34.4224C170.456 34.3855 173.469 34.6169 176.283 36.3366L175.568 34.5177L172.365 25.7563H172.364Z" fill="white"/>
<path fill-rule="evenodd" clip-rule="evenodd" d="M255.851 4.70034C259.703 2.13535 264.232 0.663473 268.824 0.17793C277.912 -0.78553 288.62 2.12391 294.101 9.90531C296.328 13.0703 297.425 16.7093 297.425 20.5746C297.425 24.1361 296.758 27.5781 295.385 30.8638C292.468 37.833 286.777 43.2362 280.857 47.7078C274.047 52.8581 266.47 57.2204 259.22 61.7301L259.192 61.7529L259.165 61.7682C253.949 64.8505 249.603 65.0335 244.376 61.8953L244.353 61.8839L244.333 61.8686C237.044 57.3309 229.427 52.9458 222.569 47.7802C216.62 43.2909 210.88 37.866 207.952 30.8625C206.579 27.5793 205.912 24.1373 205.912 20.5758C205.912 16.7106 207.009 13.0715 209.237 9.90658C214.716 2.12264 225.425 -0.78553 234.513 0.17793C239.353 0.691436 244.101 2.30059 248.065 5.09691C251.456 7.35176 251.782 7.43565 255.851 4.70034Z" fill="white"/>
<path fill-rule="evenodd" clip-rule="evenodd" d="M253.984 9.88967C266.661 -3.06365 294.884 2.36503 294.884 20.6758C294.884 38.3244 276.924 47.7798 257.782 59.6845C253.28 62.3474 250.014 62.3702 245.777 59.8243C226.552 47.851 208.453 38.3918 208.453 20.6758C208.453 2.36376 236.678 -3.06365 249.353 9.8884C250.845 11.3133 251.865 11.9348 253.984 9.8884V9.88967Z" fill="#EC1D24"/>
<path fill-rule="evenodd" clip-rule="evenodd" d="M294.44 48.437C293.802 49.98 292.198 50.397 290.754 49.7335C278.866 44.5145 264.176 42.5749 251.284 42.5749C238.501 42.5749 224.044 44.4713 212.222 49.5568L212.189 49.5695L212.156 49.5835C210.234 50.327 208.666 49.6788 207.859 47.8205L199.924 29.7804C198.956 27.8701 199.999 25.6673 201.894 24.8157C217.149 17.8618 234.585 14.8125 251.284 14.8125C268.379 14.8125 286.314 18.0156 301.834 25.3534C303.244 26.0181 303.651 27.49 303.047 28.864L294.44 48.437Z" fill="#EC1D24"/>
<path fill-rule="evenodd" clip-rule="evenodd" d="M251.284 16.6641C270.05 16.6641 287.32 20.537 301.048 27.0295C301.553 27.271 301.536 27.7006 301.356 28.1175L292.732 47.7172C292.511 48.279 292.017 48.2828 291.517 48.0477C281.229 43.5265 267.001 40.7239 251.284 40.7239C235.792 40.7239 221.741 43.449 211.491 47.8545C210.332 48.3057 209.888 47.8494 209.558 47.0804L201.598 28.9857C201.126 28.1074 201.598 26.9799 202.658 26.502C216.199 20.3285 233.035 16.6641 251.284 16.6641Z" fill="white"/>
<path fill-rule="evenodd" clip-rule="evenodd" d="M222.982 36.5866C222.977 36.5612 222.922 36.4392 222.834 36.2244C222.74 36.0045 222.613 35.7134 222.461 35.3511C222.302 34.994 222.12 34.5758 221.922 34.1144C221.718 33.653 221.499 33.17 221.274 32.6527L220.576 31.1058L219.896 29.6098C219.671 29.1319 219.461 28.6997 219.273 28.3082C219.165 28.0947 219.038 27.9358 218.884 27.8354C218.731 27.7312 218.566 27.6702 218.395 27.6498C218.219 27.6333 218.049 27.6333 217.879 27.66C217.708 27.693 217.556 27.7261 217.417 27.7706C217.331 27.7922 217.219 27.8252 217.094 27.8697C216.967 27.9129 216.84 27.9676 216.709 28.0451C216.571 28.1163 216.451 28.2104 216.341 28.3197C216.253 28.4137 216.188 28.523 216.144 28.6501C216.094 28.7747 216.061 28.8954 216.039 29.0175C216.023 29.1382 216.011 29.2374 216.006 29.3085C216.006 29.4776 216 29.6708 216 29.8742C215.995 30.089 215.995 30.3025 215.988 30.5275V31.1808C215.995 31.3626 216.001 31.5723 216.006 31.8138C216.016 32.0502 216.016 32.2968 216.011 32.5612C216.006 32.8179 215.983 33.0709 215.945 33.3187C215.907 33.5602 215.841 33.7852 215.752 33.9784C215.743 33.9987 215.727 34.0331 215.697 34.0712C215.677 34.1093 215.643 34.1538 215.605 34.1919C215.567 34.2301 215.516 34.258 215.461 34.2746C215.406 34.2847 215.352 34.2911 215.297 34.2796C215.242 34.2695 215.188 34.2529 215.145 34.2288C215.1 34.2085 215.067 34.197 215.049 34.1805C214.87 34.0661 214.698 33.9123 214.533 33.7255C214.374 33.5323 214.215 33.3302 214.072 33.1154C213.931 32.8955 213.798 32.687 213.678 32.4773C213.551 32.2752 213.446 32.0934 213.347 31.9396C213.243 31.7579 213.127 31.571 213.012 31.3804L212.661 30.8351C212.545 30.6597 212.441 30.5008 212.343 30.3572C212.302 30.2962 212.248 30.2212 212.166 30.1271C212.09 30.0381 211.996 29.9504 211.891 29.8691C211.786 29.7865 211.672 29.7254 211.551 29.6937C211.397 29.6543 211.242 29.6441 211.095 29.6543C210.942 29.6594 210.799 29.6822 210.672 29.7089C210.539 29.7369 210.43 29.7687 210.349 29.7979C210.199 29.836 210.051 29.8843 209.891 29.9504C209.732 30.0165 209.585 30.1106 209.446 30.2212C209.309 30.3254 209.205 30.4627 209.129 30.633C209.052 30.7982 209.029 31.0003 209.052 31.2355C209.101 31.6702 209.155 32.1481 209.221 32.6705C209.287 33.1916 209.36 33.7369 209.436 34.3012C209.507 34.8669 209.585 35.4287 209.666 35.9879C209.743 36.5383 209.821 37.0709 209.891 37.564C209.962 38.0648 210.029 38.5097 210.09 38.8999C210.144 39.2901 210.194 39.6028 210.233 39.8342C210.271 40.0706 210.293 40.1951 210.299 40.2231C210.363 40.4595 210.452 40.6527 210.562 40.8001C210.672 40.9438 210.82 41.0417 211.012 41.0747C211.204 41.1128 211.457 41.0912 211.77 41.0035C212.072 40.9145 212.304 40.8052 212.452 40.673C212.611 40.537 212.709 40.3718 212.76 40.1684C212.81 39.9702 212.82 39.7236 212.803 39.4376C212.787 39.1516 212.755 38.8173 212.704 38.4271L212.611 37.6301C212.578 37.3886 212.557 37.1471 212.539 36.9158C212.524 36.6857 212.529 36.4455 212.539 36.204C212.545 36.1252 212.567 36.0477 212.605 35.9765C212.643 35.9129 212.689 35.8519 212.737 35.8062C212.782 35.7566 212.83 35.7299 212.869 35.7134C213.023 35.6753 213.171 35.7019 213.319 35.7909C213.463 35.8837 213.612 36.021 213.759 36.2091C213.908 36.3883 214.055 36.6031 214.204 36.8446C214.356 37.0912 214.506 37.3454 214.665 37.6098C214.824 37.8716 214.989 38.1309 215.17 38.3826C215.352 38.6305 215.539 38.8554 215.737 39.0474C215.927 39.2355 216.132 39.3778 216.341 39.4655C216.55 39.5532 216.752 39.5698 216.967 39.5151C217.176 39.449 217.341 39.3283 217.467 39.1402C217.594 38.9546 217.687 38.7334 217.746 38.4665C217.812 38.2021 217.852 37.9161 217.873 37.6098C217.89 37.3009 217.896 36.987 217.89 36.6794C217.885 36.3743 217.879 36.082 217.879 35.796C217.873 35.51 217.885 35.252 217.913 35.0156C217.938 34.7804 217.989 34.5872 218.065 34.4284C218.143 34.2758 218.259 34.1741 218.412 34.1258C218.456 34.1144 218.51 34.1144 218.578 34.1309C218.642 34.1487 218.709 34.1754 218.768 34.2085C218.841 34.2529 218.89 34.3012 218.934 34.3673C219.077 34.5656 219.204 34.769 219.319 34.9724C219.429 35.1757 219.539 35.3905 219.649 35.6092C219.752 35.8341 219.868 36.082 219.989 36.34C220.154 36.6908 220.308 36.9933 220.438 37.2526C220.576 37.4992 220.719 37.7026 220.867 37.8449C221.017 37.9873 221.187 38.0763 221.388 38.1081C221.593 38.1424 221.846 38.1144 222.147 38.0267C222.454 37.9377 222.681 37.8284 222.823 37.6912C222.965 37.559 223.043 37.3937 223.064 37.2132C223.081 37.0277 223.054 36.8179 222.982 36.5866ZM234.167 33.8627C234.018 33.5755 233.854 33.2755 233.683 32.9565C233.507 32.6362 233.331 32.3184 233.155 32.0108C232.985 31.7032 232.821 31.4121 232.672 31.1541C232.524 30.8897 232.398 30.6762 232.299 30.5008C232.201 30.3305 232.14 30.2262 232.117 30.1818C232.014 29.9847 231.887 29.7534 231.744 29.4827C231.596 29.2208 231.442 28.945 231.282 28.6539C231.123 28.3591 230.964 28.0718 230.809 27.7922C230.65 27.5176 230.514 27.2583 230.388 27.0346C230.261 26.8096 230.163 26.6279 230.086 26.4893C230.008 26.3597 229.97 26.2872 229.97 26.2822C229.849 26.0674 229.694 25.9136 229.509 25.8144C229.322 25.7216 229.124 25.6619 228.91 25.6441C228.697 25.6276 228.487 25.6339 228.283 25.6568C228.075 25.6822 227.893 25.7102 227.728 25.7369C227.559 25.7598 227.372 25.7928 227.174 25.8259C226.976 25.8589 226.795 25.9072 226.625 25.9682C226.459 26.0292 226.327 26.1118 226.24 26.2097C226.124 26.3483 226.026 26.4893 225.947 26.6393C225.872 26.7766 225.806 26.9418 225.751 27.1172C225.697 27.299 225.647 27.5113 225.603 27.754C225.552 28.0019 225.504 28.2981 225.444 28.6387C225.383 28.9844 225.312 29.3912 225.224 29.864L224.789 32.3082C224.735 32.5879 224.68 32.884 224.619 33.2031C224.559 33.5272 224.505 33.8462 224.437 34.1754C224.383 34.4995 224.323 34.8122 224.268 35.1147C224.212 35.4172 224.164 35.6854 224.126 35.9333C224.08 36.1748 224.048 36.3731 224.025 36.5269C224 36.6756 223.994 36.7684 224 36.7963C224.032 36.9997 224.103 37.1522 224.212 37.2526C224.316 37.3505 224.444 37.4166 224.587 37.4395C224.735 37.4649 224.878 37.4713 225.032 37.4598C225.181 37.4433 225.312 37.428 225.439 37.4052C225.757 37.3505 226.008 37.2844 226.195 37.1967C226.383 37.1077 226.52 37.0099 226.618 36.9006C226.707 36.7912 226.777 36.6705 226.827 36.5434C226.873 36.4163 226.909 36.2841 226.948 36.1519C226.993 36.0159 227.048 35.8837 227.124 35.7515C227.2 35.6206 227.311 35.4948 227.47 35.3727C227.625 35.252 227.839 35.1427 228.118 35.0423C228.394 34.9444 228.756 34.8567 229.195 34.7855C229.613 34.7194 229.965 34.6915 230.256 34.7093C230.536 34.7143 230.772 34.7576 230.959 34.8236C231.139 34.8897 231.293 34.9724 231.414 35.0766C231.53 35.1745 231.634 35.285 231.728 35.3944C231.809 35.5087 231.898 35.6206 231.991 35.7248C232.085 35.8291 232.194 35.9218 232.327 35.9994C232.452 36.0706 232.619 36.1265 232.815 36.1481C233.018 36.1748 233.271 36.1633 233.579 36.1138C233.683 36.1036 233.804 36.0756 233.947 36.0477C235.161 35.7744 234.584 34.6699 234.166 33.8627H234.167ZM229.74 31.4121C229.772 31.6536 229.75 31.8634 229.668 32.0222C229.579 32.1875 229.464 32.3082 229.312 32.3959C229.163 32.4836 229.008 32.5434 228.844 32.5663C228.662 32.5929 228.487 32.5929 228.31 32.5663C228.135 32.5383 227.982 32.4608 227.85 32.3413C227.711 32.2205 227.625 32.0337 227.581 31.7858V31.5723C227.591 31.463 227.602 31.3181 227.619 31.149C227.635 30.9838 227.662 30.8084 227.696 30.6215C227.734 30.4398 227.778 30.2644 227.832 30.1004C227.887 29.9301 227.959 29.7915 228.036 29.681C228.118 29.5729 228.212 29.5068 228.328 29.4839C228.437 29.4687 228.547 29.5005 228.657 29.5831C228.766 29.6594 228.876 29.7687 228.981 29.9072C229.085 30.0445 229.178 30.1932 229.274 30.3572C229.36 30.5224 229.443 30.6762 229.509 30.8236C229.575 30.9787 229.629 31.1058 229.674 31.2151C229.712 31.3194 229.734 31.3854 229.74 31.4121ZM245.374 34.5326C245.28 33.5056 241.802 30.6648 241.713 29.4687C241.589 27.7312 246.592 23.3867 242.148 24.0235C240.402 24.2764 240.203 26.7372 239.072 27.7922C238.368 28.4455 238.007 27.5341 237.946 26.9406C237.819 25.6009 237.716 24.1608 235.897 24.6336C235.38 24.7709 234.931 25.1293 234.964 25.7216L236.057 34.7423C236.172 36.1697 238.88 36.0591 238.885 34.4601C238.892 33.8729 238.489 31.9676 239.396 31.9129C240.308 31.8519 241.604 34.7309 242.626 35.1312C243.153 35.3346 245.422 35.5151 245.373 34.5326H245.374ZM253.37 33.5323C253.37 33.367 253.338 33.198 253.272 33.0391C253.206 32.8789 253.107 32.7417 252.963 32.6362C252.834 32.5332 252.664 32.4773 252.454 32.4722C252.278 32.4773 252.13 32.4887 252.004 32.5269C251.877 32.5548 251.756 32.5929 251.64 32.6362C251.531 32.6819 251.41 32.7201 251.278 32.748C251.146 32.7798 250.992 32.7976 250.812 32.8027C246.817 32.8179 246.812 26.1779 250.658 26.1665C250.823 26.1665 250.964 26.1779 251.085 26.2046C251.206 26.2275 251.311 26.2644 251.404 26.3038C251.503 26.3368 251.597 26.3749 251.696 26.4144C251.794 26.4576 251.91 26.4843 252.036 26.5122C252.168 26.5402 252.328 26.5504 252.514 26.5554C252.707 26.5504 252.861 26.5008 252.975 26.408C253.096 26.3139 253.178 26.183 253.234 26.0229C253.284 25.864 253.31 25.6886 253.31 25.489C253.305 25.1713 253.246 24.8916 253.113 24.6717C252.986 24.4404 252.816 24.2599 252.606 24.1176C252.393 23.9688 252.156 23.8583 251.9 23.7833C251.635 23.6994 251.376 23.6447 251.108 23.618C250.845 23.585 250.592 23.5672 250.362 23.5735C242.967 23.6282 242.702 35.3791 250.454 35.3944C250.597 35.3944 250.767 35.3905 250.964 35.3727C251.157 35.3626 251.367 35.3346 251.587 35.2965C251.806 35.2583 252.015 35.1973 252.229 35.1147C252.437 35.0334 252.629 34.9215 252.805 34.7855C252.975 34.6533 253.113 34.4779 253.211 34.2746C253.316 34.0712 253.37 33.8233 253.37 33.5323ZM264.787 34.7906C264.792 34.6813 264.77 34.5161 264.721 34.2847C264.671 34.0483 264.606 33.7801 264.522 33.4662C264.435 33.1548 264.341 32.8294 264.236 32.4773C264.132 32.1316 264.028 31.7858 263.919 31.4452C263.813 31.1109 263.715 30.7919 263.621 30.5059C263.529 30.2212 263.451 29.9847 263.39 29.7915C263.335 29.6047 263.297 29.489 263.286 29.4407C263.22 29.2259 263.15 28.973 263.061 28.6819C262.974 28.3972 262.88 28.0883 262.781 27.7706C262.687 27.4528 262.594 27.1376 262.501 26.8363C262.401 26.5287 262.32 26.2542 262.242 26.0013C262.166 25.7547 262.105 25.5564 262.062 25.4089C262.017 25.259 261.996 25.184 261.989 25.184C261.919 24.9476 261.799 24.7607 261.638 24.6285C261.48 24.4963 261.291 24.3972 261.089 24.3362C260.886 24.2764 260.678 24.2383 260.474 24.2154C260.266 24.1989 260.079 24.19 259.915 24.1836C259.737 24.1722 259.551 24.1608 259.353 24.1557C259.15 24.1442 258.963 24.1557 258.787 24.1786C258.612 24.1989 258.468 24.2548 258.359 24.3374C258.217 24.4468 258.09 24.5675 257.985 24.6883C257.88 24.8154 257.782 24.959 257.694 25.123C257.605 25.2882 257.508 25.4852 257.413 25.7165C257.316 25.9415 257.205 26.2212 257.073 26.5453C256.946 26.8694 256.788 27.2532 256.606 27.6994L255.672 29.9962L255.321 30.8414C255.194 31.1427 255.067 31.4452 254.943 31.7541C254.815 32.054 254.695 32.3514 254.58 32.6362C254.465 32.9183 254.355 33.1751 254.266 33.4064C254.174 33.6327 254.101 33.8182 254.046 33.9619C253.992 34.1093 253.964 34.1919 253.964 34.225C253.952 34.4284 253.992 34.5936 254.078 34.7143C254.162 34.8351 254.271 34.9215 254.404 34.9787C254.546 35.0334 254.683 35.0715 254.837 35.088C254.986 35.1033 255.124 35.1135 255.244 35.1198C255.568 35.1325 255.831 35.1198 256.029 35.0766C256.233 35.027 256.386 34.9622 256.502 34.8732C256.616 34.7804 256.711 34.6826 256.782 34.5656C256.854 34.4512 256.92 34.3292 256.985 34.2097C257.052 34.0877 257.139 33.967 257.238 33.8576C257.344 33.742 257.48 33.6416 257.655 33.5551C257.832 33.4662 258.068 33.4064 258.359 33.3683C258.65 33.3238 259.018 33.3136 259.467 33.3403C259.891 33.3619 260.243 33.4064 260.517 33.4776C260.793 33.5488 261.018 33.6365 261.182 33.742C261.347 33.8462 261.48 33.9555 261.577 34.0826C261.671 34.2034 261.748 34.3292 261.814 34.4601C261.874 34.5923 261.941 34.7143 262.006 34.8414C262.072 34.9609 262.166 35.0702 262.275 35.1745C262.386 35.2736 262.533 35.3562 262.726 35.4223C262.917 35.4884 263.171 35.5316 263.479 35.5494C263.583 35.5609 263.709 35.5609 263.853 35.5609C263.989 35.5545 264.132 35.5316 264.27 35.4948C264.407 35.4554 264.522 35.3727 264.62 35.2634C264.721 35.1579 264.775 34.9991 264.786 34.7906H264.787ZM260.699 30.1487C260.683 30.3966 260.617 30.5936 260.502 30.7309C260.386 30.8745 260.243 30.9724 260.079 31.0232C259.914 31.0829 259.748 31.1058 259.583 31.0944C259.401 31.0817 259.232 31.0499 259.062 30.9838C258.897 30.9177 258.759 30.8147 258.655 30.666C258.551 30.5173 258.508 30.319 258.513 30.0661C258.513 30.0394 258.528 29.9733 258.557 29.8576C258.589 29.7483 258.629 29.6161 258.685 29.4509C258.733 29.292 258.793 29.1268 258.865 28.9514C258.941 28.7811 259.018 28.6158 259.107 28.4684C259.199 28.3197 259.292 28.1989 259.399 28.1061C259.502 28.0121 259.606 27.9676 259.717 27.9739C259.831 27.979 259.929 28.0337 260.023 28.1392C260.117 28.2383 260.2 28.3629 260.271 28.5179C260.347 28.6768 260.408 28.8471 260.461 29.0226C260.517 29.198 260.563 29.3683 260.595 29.5284C260.633 29.6937 260.655 29.8297 260.678 29.9403C260.693 30.0559 260.699 30.1207 260.699 30.1487ZM274.866 34.0331C274.911 33.6644 274.904 33.3454 274.845 33.0658C274.779 32.7912 274.686 32.5497 274.565 32.3413C274.443 32.1316 274.317 31.9447 274.19 31.7807C274.063 31.6104 273.96 31.4503 273.876 31.3016C273.795 31.149 273.767 30.9965 273.783 30.8351C273.801 30.7143 273.849 30.605 273.922 30.5008C273.992 30.3966 274.081 30.2873 274.179 30.1703C274.284 30.061 274.388 29.9288 274.493 29.7865C274.597 29.639 274.696 29.4623 274.785 29.2653C274.871 29.062 274.931 28.8205 274.976 28.5383C275.02 28.1989 274.997 27.8862 274.922 27.5901C274.838 27.2977 274.719 27.0283 274.541 26.7868C274.372 26.5504 274.167 26.3368 273.933 26.1614C273.701 25.9797 273.45 25.8309 273.191 25.7216C272.928 25.611 272.664 25.5348 272.406 25.5017L267.95 24.8751C267.775 24.8471 267.6 24.8637 267.423 24.9247C267.243 24.9857 267.087 25.095 266.951 25.259C266.819 25.4191 266.73 25.6441 266.681 25.925L265.445 34.7245C265.435 34.8287 265.439 34.9495 265.467 35.0766C265.5 35.2037 265.544 35.3244 265.614 35.4452C265.687 35.5659 265.776 35.6702 265.879 35.7515C265.989 35.8341 266.115 35.8888 266.257 35.9117L271.311 36.6247C271.795 36.6857 272.239 36.6591 272.646 36.5434C273.059 36.429 273.416 36.2409 273.729 35.9879C274.043 35.7414 274.294 35.4452 274.493 35.1033C274.686 34.769 274.812 34.4118 274.866 34.0331ZM272.118 28.7544C272.093 28.9514 272.025 29.1103 271.933 29.2424C271.839 29.3746 271.718 29.4725 271.587 29.5551C271.45 29.6327 271.306 29.6873 271.159 29.7254C271.01 29.7649 270.873 29.7801 270.735 29.7865C270.603 29.7915 270.494 29.7915 270.4 29.7737C270.135 29.7369 269.917 29.6543 269.741 29.5233C269.565 29.3962 269.433 29.231 269.358 29.0276C269.28 28.8294 269.257 28.6107 269.291 28.3591C269.33 28.1049 269.412 27.89 269.543 27.7146C269.67 27.5443 269.839 27.4198 270.043 27.3473C270.251 27.271 270.488 27.2482 270.752 27.2876C270.894 27.3041 271.049 27.3537 271.218 27.4287C271.384 27.5011 271.543 27.599 271.691 27.7261C271.839 27.8532 271.954 28.0019 272.037 28.1709C272.118 28.3425 272.148 28.5396 272.118 28.7544ZM271.888 33.3136C271.856 33.5323 271.79 33.714 271.68 33.8627C271.576 34.0051 271.45 34.1208 271.296 34.2034C271.147 34.2847 270.988 34.3457 270.818 34.3788C270.648 34.4118 270.482 34.4284 270.322 34.4284C270.158 34.4334 270.015 34.4233 269.89 34.4055C269.407 34.3356 269.06 34.1691 268.862 33.9123C268.664 33.6479 268.594 33.3073 268.653 32.8904C268.704 32.5548 268.802 32.3019 268.961 32.1265C269.115 31.9561 269.307 31.8405 269.533 31.7909C269.763 31.7426 270.016 31.7363 270.291 31.7807C270.466 31.8024 270.653 31.8519 270.845 31.9231C271.043 31.9943 271.23 32.0934 271.4 32.2154C271.565 32.3425 271.703 32.4951 271.795 32.6756C271.888 32.8573 271.923 33.0709 271.888 33.3136ZM289.239 29.367L289.386 29.3746C289.527 29.3912 289.649 29.4128 289.736 29.4509L294.774 31.1808C295.015 31.2647 295.207 31.3791 295.362 31.524C295.51 31.6638 295.604 31.8418 295.647 32.0451C295.685 32.2472 295.665 32.4722 295.576 32.7315C295.488 32.9781 295.389 33.1637 295.273 33.2844C295.159 33.4064 295.037 33.4878 294.901 33.5208C294.762 33.5551 294.625 33.5666 294.471 33.5437C294.324 33.5323 294.17 33.5119 294.011 33.4827C293.852 33.4573 293.686 33.4446 293.522 33.4509C293.363 33.4509 293.204 33.489 293.042 33.5653C292.89 33.6365 292.737 33.7687 292.592 33.9619C292.455 34.1487 292.324 34.4118 292.204 34.7576L290.33 40.1913C290.247 40.4277 290.132 40.5981 289.984 40.7188C289.836 40.8332 289.677 40.9044 289.501 40.9374C289.325 40.9705 289.161 40.9756 288.994 40.9552C288.835 40.9323 288.699 40.9044 288.582 40.8612C288.468 40.823 288.341 40.762 288.21 40.6845C288.078 40.6031 287.956 40.4976 287.846 40.3667C287.737 40.2396 287.666 40.0858 287.628 39.9041C287.588 39.7248 287.61 39.5151 287.687 39.2787L289.561 33.8462C289.675 33.5005 289.736 33.2145 289.743 32.9781C289.748 32.7417 289.708 32.5434 289.632 32.3909C289.556 32.2358 289.452 32.1049 289.325 31.9994C289.197 31.8951 289.06 31.8087 288.918 31.7248C288.774 31.6536 288.642 31.5774 288.517 31.4948C288.385 31.4185 288.281 31.3244 288.198 31.2088C288.111 31.0995 288.06 30.9622 288.046 30.7969C288.028 30.6317 288.066 30.4233 288.149 30.1754C288.23 29.9352 288.347 29.7598 288.489 29.639C288.627 29.517 288.774 29.4407 288.934 29.4077C289.095 29.3696 289.242 29.3568 289.386 29.3746L289.239 29.367ZM278.718 26.5504C278.87 26.5504 278.991 26.5618 279.08 26.5847C279.332 26.6508 279.546 26.7486 279.723 26.8808C279.898 27.0117 280.026 27.177 280.095 27.3804C280.172 27.5786 280.172 27.8087 280.112 28.0667L279.377 31.0219C279.354 31.1147 279.332 31.2304 279.321 31.374C279.305 31.5176 279.305 31.6587 279.321 31.8087C279.338 31.9612 279.372 32.0883 279.437 32.2027C279.498 32.3184 279.59 32.3909 279.717 32.4226C279.849 32.4506 280.003 32.4226 280.184 32.3362C280.365 32.2472 280.568 32.1265 280.777 31.9676C280.992 31.8087 281.199 31.632 281.415 31.4401C281.622 31.2533 281.822 31.0601 282.002 30.8847C282.184 30.7029 282.336 30.5504 282.458 30.4182C282.585 30.2923 282.662 30.2097 282.693 30.1716C282.798 30.0661 282.93 29.9453 283.075 29.8081C283.221 29.6708 283.375 29.5233 283.55 29.3683C283.72 29.2094 283.896 29.0569 284.084 28.9018C284.265 28.7544 284.446 28.6095 284.628 28.4836C284.798 28.3692 284.969 28.2981 285.138 28.2701C285.319 28.2383 285.495 28.2383 285.683 28.2587C285.863 28.2815 286.057 28.3197 286.247 28.3743C286.386 28.4023 286.533 28.4569 286.705 28.5396C286.87 28.6222 287.023 28.7264 287.171 28.8637C287.314 28.9959 287.423 29.1598 287.496 29.3568C287.562 29.55 287.567 29.775 287.507 30.0394L285.44 38.3267C285.374 38.5872 285.281 38.7893 285.161 38.933C285.04 39.0817 284.903 39.1859 284.749 39.2457C284.596 39.3067 284.43 39.3334 284.259 39.3283C284.094 39.3283 283.925 39.3016 283.76 39.2571C283.315 39.1402 283.007 38.9495 282.837 38.6699C282.666 38.389 282.627 38.0598 282.727 37.6645L283.502 34.544C283.53 34.4512 283.55 34.3406 283.573 34.2186C283.596 34.1042 283.601 33.9835 283.584 33.8665C283.578 33.7471 283.535 33.6479 283.47 33.5551C283.403 33.4662 283.298 33.4001 283.155 33.3619C283.034 33.3365 282.913 33.3403 282.781 33.3848C282.657 33.4229 282.529 33.4827 282.402 33.5666C282.275 33.6479 282.156 33.7369 282.046 33.8348C281.936 33.9326 281.838 34.028 281.749 34.1093C281.661 34.1983 281.597 34.2631 281.551 34.3127C281.178 34.6699 280.815 35.0334 280.453 35.3944C280.089 35.7566 279.717 36.1138 279.326 36.4608C278.931 36.8116 278.508 37.1471 278.04 37.4649C277.91 37.5488 277.749 37.5984 277.585 37.6098C277.415 37.6187 277.239 37.6098 277.064 37.5755C276.882 37.5437 276.712 37.5043 276.547 37.4611C276.388 37.423 276.229 37.367 276.064 37.2844C275.905 37.2081 275.756 37.109 275.631 36.9883C275.504 36.8612 275.409 36.7086 275.354 36.5319C275.3 36.3565 275.3 36.1481 275.354 35.9117L277.471 27.4337C277.532 27.21 277.63 27.0346 277.768 26.9075C277.905 26.7804 278.059 26.694 278.23 26.6393C278.405 26.5847 278.564 26.5554 278.719 26.5504H278.718Z" fill="#EC1D24"/>
</svg>
