<svg width="316" height="49" viewBox="0 0 316 49" fill="none" xmlns="http://www.w3.org/2000/svg">
<path fill-rule="evenodd" clip-rule="evenodd" d="M60.0031 22.6972L56.4814 31.156H63.609L60.0031 22.6972ZM64.2662 10.7168L76.314 37.7612H66.5073L64.8053 33.7003H55.3861L53.7855 37.7612H50.6851L62.0083 10.7168H64.2662Z" fill="#DE002B"/>
<path fill-rule="evenodd" clip-rule="evenodd" d="M107.015 10.7168V37.7612H98.32V13.8341H90.7037V37.7612H82.009V10.7168H107.015Z" fill="#DE002B"/>
<path fill-rule="evenodd" clip-rule="evenodd" d="M134.868 10.7168V13.8341H128.381V37.7612H119.67V13.8341H113.199V10.7168H134.868Z" fill="#DE002B"/>
<path fill-rule="evenodd" clip-rule="evenodd" d="M159.469 34.6439V37.7612H140.901V10.7168H159.486L159.469 13.8341H149.595V20.7594H159.486V23.9441H149.595V34.6439H159.469Z" fill="#DE002B"/>
<path fill-rule="evenodd" clip-rule="evenodd" d="M185.974 10.7168V37.7612H177.28V30.3977C167.591 30.3977 164.339 25.9999 164.339 19.5462V10.7168H173.017V22.8488C173.017 25.0226 175.713 27.095 177.28 27.095V10.7168H185.974Z" fill="#DE002B"/>
<path fill-rule="evenodd" clip-rule="evenodd" d="M215.563 24.0796C215.563 17.5755 220.045 10.7344 228.453 10.7344C231.503 10.7344 236.979 11.7623 236.979 16.1264C236.979 16.8341 236.879 18.5191 234.418 18.5191C233.255 18.5191 231.958 18.081 230.88 16.6824C231.688 16.2612 231.924 15.8063 231.924 15.1491C231.924 14.5761 231.537 13.7674 229.481 13.7674C228.706 13.7674 224.561 13.9022 224.561 21.0466L224.527 27.0452C224.527 31.5443 226.785 34.7626 230.812 34.7626C232.918 34.7457 233.828 33.2966 233.542 31.4263C235.614 31.1904 237.081 33.9033 237.081 34.7626C235.716 36.397 233.896 37.745 228.774 37.745C220.602 37.745 215.563 33.0776 215.563 24.0796Z" fill="#DE002B"/>
<path fill-rule="evenodd" clip-rule="evenodd" d="M261.665 10.7168V13.8341H255.177V37.7612H246.483V13.8341H239.995V10.7168H261.665Z" fill="#DE002B"/>
<path fill-rule="evenodd" clip-rule="evenodd" d="M275.078 34.6439H275.651C277.016 34.6439 278.583 33.515 278.583 29.0159C278.583 25.6291 277.184 23.9441 275.852 23.9441H275.078V34.6439ZM275.078 20.7932H275.684C276.779 20.7932 277.908 19.917 277.908 17.2547C277.908 14.4407 276.543 13.8341 275.886 13.8341H275.078V20.7932ZM266.366 10.7168H277.453C283.469 10.7168 286.232 12.4523 286.232 16.4963C286.232 19.462 285.035 21.6862 281.969 22.2086C285.339 22.6636 288.625 24.9551 288.625 29.572C288.625 34.745 286.704 37.7612 278.954 37.7612H266.366V10.7168Z" fill="#DE002B"/>
<path fill-rule="evenodd" clip-rule="evenodd" d="M301.869 31.9471C301.869 34.8453 303.065 35.0982 304.177 35.0982C305.238 35.0982 306.435 34.8453 306.435 31.9471V16.9C306.435 14.0018 305.238 13.7491 304.177 13.7491C303.065 13.7491 301.869 14.0018 301.869 16.9V31.9471ZM315.686 24.2129C315.686 33.6996 310.125 37.7773 304.177 37.7773C298.313 37.7773 292.551 33.6996 292.551 24.1793C292.551 14.7264 298.279 10.6992 304.143 10.6992C310.192 10.6992 315.686 14.7264 315.686 24.2129Z" fill="#DE002B"/>
<path fill-rule="evenodd" clip-rule="evenodd" d="M211.739 34.6439V37.7612H193.17V10.7168H211.755L211.739 13.8341H201.881V20.7594H211.755V23.9441H201.881V34.6439H211.739Z" fill="#DE002B"/>
<path fill-rule="evenodd" clip-rule="evenodd" d="M24.5 0C10.9694 0 0 10.9694 0 24.5C0 38.0306 10.9694 49 24.5 49C38.0306 49 48.9999 38.0306 48.9999 24.5C48.9999 10.9694 38.0306 0 24.5 0Z" fill="#FEFEFE"/>
<path fill-rule="evenodd" clip-rule="evenodd" d="M24.516 49C38.0466 49 48.9991 38.0306 48.9991 24.5C48.9991 10.9694 38.0466 0.01685 24.516 0C10.9854 0 0.0159912 10.9694 0.0159912 24.5C0.0159912 38.0306 10.9854 49 24.516 49ZM24.516 2.10625V46.8937C12.1481 46.8937 2.12225 36.8679 2.12225 24.5C2.12225 12.132 12.1481 2.10625 24.516 2.10625Z" fill="#DE002B"/>
<path fill-rule="evenodd" clip-rule="evenodd" d="M29.2346 9.2832H24.4829V39.7145H29.2346V29.5706H39.3784V19.4269H29.2346V9.2832Z" fill="#FEFEFE"/>
<path fill-rule="evenodd" clip-rule="evenodd" d="M19.7989 9.2832H24.5507V39.7145H19.7989V29.5706H9.65515V19.4269H19.7989V9.2832Z" fill="#DE002B"/>
</svg>
