<svg width="300" height="41" viewBox="0 0 300 41" fill="none" xmlns="http://www.w3.org/2000/svg">
<g clip-path="url(#clip0_289_519)">
<path fill-rule="evenodd" clip-rule="evenodd" d="M0 9.2793H14.4807L13.482 11.0749H0V9.2793Z" fill="#1F4F9C"/>
<path fill-rule="evenodd" clip-rule="evenodd" d="M0 32.7207H2.29694L1.29827 34.6161H0V32.7207Z" fill="#1F4F9C"/>
<path fill-rule="evenodd" clip-rule="evenodd" d="M0 24.9395H6.29161L5.29294 26.8348H0V24.9395Z" fill="#1F4F9C"/>
<path fill-rule="evenodd" clip-rule="evenodd" d="M0 17.1582H10.2863L9.38748 18.8541H0V17.1582Z" fill="#1F4F9C"/>
<path d="M38.9481 34.6165H29.7603L29.261 31.1251H20.3728L19.0746 34.6165H9.68707L19.2743 15.3635L23.269 7.2832H32.956L37.2503 26.5362L38.9481 34.6165ZM28.462 25.3392L26.964 16.4608L22.9694 25.3392H28.462ZM67.51 34.6165H58.3222L60.9188 15.3635V15.0642H53.0293L50.4327 34.2175V34.5168H41.245L43.9414 15.3635L45.1398 7.2832H71.5046L68.9081 26.5362L67.51 34.6165ZM99.1678 14.6652H91.0785L88.482 33.9182L88.2823 34.6165H79.0945L81.6911 15.3635L81.8908 14.6652H74.0013L75 7.2832H100.166L99.1678 14.6652ZM122.736 34.6165H99.8668L102.463 15.3635L103.462 7.58247H125.732L124.933 14.1664H111.951L111.451 17.6579H122.337L121.538 24.0423H110.652L110.153 28.0326H123.735L122.936 34.417L122.736 34.6165ZM155.393 34.6165H144.308L139.214 23.9426L137.217 25.7382L136.019 34.6165H126.831L129.427 15.3635L130.626 7.2832H139.814L138.615 15.563L147.204 7.2832H157.889L146.704 17.6579L155.393 34.6165ZM185.153 34.6165H175.965L175.466 31.1251H166.578L165.28 34.6165H156.092L165.679 15.3635L169.674 7.2832H179.261L183.555 26.5362L185.153 34.6165ZM174.667 25.3392L173.169 16.4608L169.174 25.3392H174.667Z" fill="#1F4F9C"/>
<path fill-rule="evenodd" clip-rule="evenodd" d="M185.952 9.27734H231.891L230.593 11.1727H186.352L185.952 9.27734Z" fill="#1F4F9C"/>
<path fill-rule="evenodd" clip-rule="evenodd" d="M191.744 32.7207H225.799C225.999 33.3192 226.298 34.0175 226.498 34.6161H192.144L191.744 32.7207Z" fill="#1F4F9C"/>
<path fill-rule="evenodd" clip-rule="evenodd" d="M189.947 24.9395H225C225 25.538 224.9 26.0368 224.9 26.6353V26.8348H190.346L189.947 24.9395Z" fill="#1F4F9C"/>
<path fill-rule="evenodd" clip-rule="evenodd" d="M188.049 17.0586H227.097C226.798 17.6571 226.598 18.3554 226.298 18.954H188.449L188.049 17.0586Z" fill="#1F4F9C"/>
<path fill-rule="evenodd" clip-rule="evenodd" d="M246.671 0.398438H259.154L249.068 14.5639L249.967 14.4641H251.664C255.16 14.4641 258.156 15.2622 260.453 16.8583C263.449 18.9532 264.947 22.1454 264.947 26.5347C264.947 30.7245 263.549 34.0164 260.852 36.4106C258.056 38.8048 254.161 40.0018 248.968 40.0018C244.374 40.0018 240.579 38.6053 237.883 35.8121C235.286 33.2184 233.888 29.8267 233.888 25.6369C233.888 23.6418 234.188 21.6466 234.787 19.7512C235.386 17.8559 236.285 15.8607 237.683 13.8656L246.671 0.398438ZM245.273 26.834C245.273 27.9313 245.672 28.8291 246.371 29.6272C247.071 30.4252 248.069 30.8242 249.367 30.8242C250.566 30.8242 251.565 30.4252 252.264 29.6272C252.963 28.8291 253.362 27.9313 253.362 26.834C253.362 25.7366 253.063 24.8388 252.363 24.0408C251.664 23.2427 250.666 22.8437 249.367 22.8437C248.169 22.8437 247.17 23.2427 246.471 24.0408C246.072 24.4398 245.872 24.8388 245.672 25.3376C245.373 25.7366 245.273 26.2354 245.273 26.834Z" fill="#1F4F9C"/>
<path fill-rule="evenodd" clip-rule="evenodd" d="M269.74 12.6685H258.655C258.655 9.37654 259.654 6.58335 261.551 4.48846C263.948 1.79503 267.743 0.398438 272.936 0.398438C277.83 0.398438 281.525 1.29625 283.822 3.09187C286.218 4.88749 287.417 7.58092 287.417 10.9726C287.417 13.1673 286.718 14.9629 285.419 16.3595C284.421 17.3571 283.023 18.1551 281.125 18.8534C283.023 19.3522 284.62 20.25 285.919 21.4471C287.616 23.0432 288.515 25.2379 288.515 27.8315C288.515 31.6223 287.217 34.615 284.521 36.8096C281.924 39.0043 278.129 40.1016 273.236 40.1016C268.342 40.1016 264.547 38.8048 261.951 36.3109C264.248 33.9167 265.346 31.0237 265.546 27.7318H269.441C269.441 29.8267 270.539 30.924 272.736 30.924C274.834 30.924 275.932 29.6272 275.932 27.1332C275.932 25.6369 275.533 24.6393 274.834 24.1405C274.035 23.6418 272.736 23.4422 271.039 23.4422V15.5615C272.636 15.5615 273.935 15.3619 274.734 14.8632C275.533 14.3644 275.932 13.6661 275.932 12.5688C275.932 11.4714 275.732 10.6734 275.233 10.1746C274.734 9.67581 273.935 9.37654 272.736 9.37654C271.638 9.37654 270.939 9.67581 270.439 10.2744C269.94 10.8729 269.74 11.6709 269.74 12.6685Z" fill="#1F4F9C"/>
<path fill-rule="evenodd" clip-rule="evenodd" d="M292.41 35.9118V37.907H299.001V40.2014H290.213V33.6174H299.001V35.9118H292.41ZM293.808 28.2306L299.101 30.2257V32.6199L290.313 29.2281V27.1332L299.101 23.7415V26.2354L293.808 28.2306ZM293.309 20.5493V19.2525C292.31 18.8534 291.411 18.2549 290.812 17.3571C290.313 16.559 290.013 15.761 290.013 14.8632C290.013 13.6661 290.513 12.5688 291.312 11.6709C292.21 10.7731 293.309 10.2744 294.607 10.2744C295.905 10.2744 297.004 10.6734 297.903 11.5712C298.802 12.469 299.201 13.5663 299.201 14.7634C299.201 15.8607 298.802 16.8583 298.103 17.7561C297.403 18.6539 296.505 19.0529 295.506 19.2525V20.4495H299.001V22.7439H290.213V20.4495H293.309V20.5493ZM294.707 12.6685C294.108 12.6685 293.509 12.868 293.009 13.3668C292.51 13.7658 292.31 14.3644 292.31 14.9629C292.31 15.5615 292.51 16.16 293.009 16.559C293.509 17.0578 294.108 17.2573 294.707 17.2573C295.406 17.2573 295.905 17.0578 296.405 16.559C296.804 16.0602 297.104 15.5615 297.104 14.9629C297.104 14.3644 296.904 13.7658 296.405 13.3668C295.905 12.868 295.306 12.6685 294.707 12.6685ZM292.111 0.398438L293.609 1.99454L293.309 2.29381C292.71 2.89235 292.31 3.59065 292.31 4.48846C292.31 5.18676 292.51 5.68554 293.009 6.18433C293.509 6.68311 294.008 6.88262 294.707 6.88262C295.107 6.88262 295.606 6.78287 295.905 6.58335C296.305 6.38384 296.505 6.08457 296.704 5.7853C296.904 5.38627 297.004 4.98725 297.004 4.58822C297.004 4.18919 296.904 3.88992 296.804 3.4909C296.605 3.09187 296.305 2.69284 296.005 2.39357L295.706 1.99454L297.304 0.398438L297.603 0.697708C298.103 1.19649 298.602 1.79503 298.901 2.49333C299.201 3.09187 299.301 3.79017 299.301 4.48846C299.301 5.7853 298.901 6.88262 298.003 7.88019C297.104 8.778 295.905 9.17703 294.707 9.17703C293.908 9.17703 293.109 8.97751 292.41 8.57849C291.711 8.17946 291.112 7.58092 290.812 6.88262C290.413 6.18433 290.213 5.38627 290.213 4.48846C290.213 3.79017 290.413 3.09187 290.712 2.39357C291.012 1.69527 291.411 1.19649 292.011 0.697708L292.111 0.398438Z" fill="#1F4F9C"/>
</g>
<defs>
<clipPath id="clip0_289_519">
<rect width="300" height="41" fill="white"/>
</clipPath>
</defs>
</svg>
