<svg width="334" height="50" viewBox="0 0 334 50" fill="none" xmlns="http://www.w3.org/2000/svg">
<path fill-rule="evenodd" clip-rule="evenodd" d="M326.311 30.0922V32.6159C326.305 32.9087 326.184 33.1875 325.976 33.3933C325.767 33.5989 325.485 33.7152 325.192 33.7172H325.098C324.804 33.7152 324.523 33.5989 324.314 33.3933C324.105 33.1875 323.985 32.9087 323.979 32.6159V30.0922H321.974C320.814 30.092 319.701 29.6334 318.879 28.817C318.057 28.0004 317.593 26.8925 317.589 25.7353C317.589 23.395 319.501 21.4686 321.881 21.377H328.457C330.837 21.4686 332.749 23.3492 332.749 25.7353C332.749 28.12 330.79 30.0464 328.364 30.0922H326.311ZM326.311 23.3492V28.12H328.364C329.716 28.12 330.79 27.0645 330.79 25.7353C330.79 24.4505 329.716 23.3492 328.41 23.3492H326.312H326.311ZM324.027 23.3492H322.019C320.714 23.3492 319.639 24.4505 319.639 25.7353C319.639 27.0659 320.714 28.12 322.067 28.12H324.027V23.3492ZM308.818 30.0922V32.6159C308.812 32.909 308.691 33.188 308.482 33.3937C308.272 33.5995 307.991 33.7155 307.698 33.7172H307.604C307.311 33.7152 307.029 33.5989 306.821 33.3933C306.612 33.1875 306.491 32.9087 306.486 32.6159V22.477C306.491 22.1845 306.612 21.9059 306.821 21.7005C307.031 21.4952 307.311 21.3791 307.604 21.377H311.942C314.321 21.4686 316.236 23.3492 316.236 25.7353C316.23 26.8925 315.766 28.0004 314.944 28.817C314.122 29.6334 313.009 30.092 311.85 30.0922H308.816H308.818ZM308.818 23.3492V28.12H311.85C313.203 28.12 314.276 27.0645 314.276 25.7353C314.276 24.4505 313.203 23.3492 311.896 23.3492H308.819H308.818Z" fill="#3D3935"/>
<path d="M301.68 29.0375C302.53 29.0375 303.22 28.3598 303.22 27.5237C303.22 26.6875 302.53 26.0098 301.68 26.0098C300.83 26.0098 300.141 26.6875 300.141 27.5237C300.141 28.3598 300.83 29.0375 301.68 29.0375Z" fill="#3D3935"/>
<path d="M288.945 18.0273H281.761C281.202 18.0273 280.689 18.2106 280.269 18.6246C280.072 18.8143 279.917 19.0424 279.812 19.2948C279.708 19.5472 279.657 19.8183 279.662 20.0912V37.0635C279.662 37.6148 279.894 38.119 280.269 38.5315C280.688 38.944 281.202 39.1287 281.761 39.1287H290.392C292.164 39.1287 293.704 38.4857 294.916 37.2927C296.176 36.0552 296.782 34.5871 296.782 32.844C296.782 31.101 296.176 29.5871 294.916 28.3482C294.682 28.1648 294.496 27.9815 294.31 27.7982C295.017 26.7735 295.392 25.5565 295.382 24.3121C295.392 23.4827 295.232 22.6599 294.911 21.8947C294.59 21.1295 294.116 20.4378 293.518 19.8621C292.257 18.6231 290.717 18.0273 288.945 18.0273ZM283.861 22.1552H288.945C289.552 22.1552 290.065 22.3843 290.531 22.7981C290.951 23.2106 291.185 23.7606 291.185 24.3579C291.185 24.9537 290.951 25.4579 290.531 25.9177C290.111 26.3302 289.598 26.5593 288.945 26.5593H283.861V22.1565V22.1552ZM283.861 30.6412H290.392C290.998 30.6412 291.51 30.8718 291.978 31.2843C292.396 31.6968 292.632 32.201 292.632 32.7982C292.632 33.394 292.398 33.8982 291.977 34.3121C291.558 34.7246 291.045 34.9537 290.39 34.9537H283.861V30.6412ZM268.419 11.9718C268.089 11.9648 267.761 12.0266 267.455 12.1531C267.151 12.2796 266.876 12.468 266.648 12.7065C266.422 12.9274 266.243 13.1918 266.123 13.4835C266.002 13.7753 265.943 14.0883 265.948 14.4037C265.948 15.0454 266.18 15.6412 266.648 16.101C267.114 16.5593 267.719 16.8343 268.419 16.8343C269.073 16.8343 269.679 16.6052 270.145 16.101C270.613 15.6427 270.892 15.0454 270.892 14.4037C270.892 13.7606 270.658 13.1648 270.146 12.7065C269.679 12.2481 269.119 11.9718 268.42 11.9718H268.419ZM262.215 11.9718C261.885 11.9647 261.557 12.0264 261.251 12.1528C260.946 12.2793 260.67 12.4679 260.442 12.7065C259.976 13.1648 259.743 13.7621 259.743 14.4037C259.743 15.0454 259.976 15.6412 260.442 16.101C260.91 16.5593 261.515 16.8343 262.215 16.8343C262.869 16.8343 263.475 16.6052 263.941 16.101C264.409 15.6427 264.688 15.0454 264.688 14.4037C264.694 14.0836 264.631 13.7661 264.502 13.473C264.372 13.1801 264.181 12.9185 263.941 12.7065C263.475 12.2481 262.915 11.9718 262.215 11.9718ZM265.714 18.0273C262.775 18.0273 260.21 19.0829 258.109 21.101C256.011 23.1648 254.985 25.6871 254.985 28.5773C254.985 31.4662 256.056 33.9898 258.109 36.0552C260.21 38.119 262.728 39.1273 265.714 39.1273C268.371 39.1273 270.751 38.2565 272.711 36.5579C273.131 36.1468 273.318 35.6412 273.318 35.0912C273.318 34.5412 273.131 34.0357 272.711 33.6232C272.515 33.4289 272.282 33.2758 272.026 33.1733C271.77 33.0707 271.495 33.0205 271.219 33.026C270.751 33.026 270.287 33.1648 269.913 33.4857C268.746 34.5412 267.346 34.9996 265.714 34.9996C263.895 34.9996 262.356 34.4023 261.096 33.119C260.383 32.4258 259.84 31.5779 259.51 30.6412H274.345C274.905 30.6412 275.416 30.4579 275.836 30.0454C276.257 29.6329 276.443 29.1287 276.443 28.5773C276.443 25.6885 275.37 23.1648 273.318 21.101C271.265 19.0356 268.701 18.0273 265.714 18.0273ZM259.51 26.5135C259.84 25.5767 260.383 24.7289 261.096 24.0357C262.356 22.7523 263.893 22.1552 265.714 22.1552C267.534 22.1552 269.073 22.7982 270.332 24.0357C271.046 24.7289 271.589 25.5767 271.919 26.5135H259.51ZM240.943 18.0273C238.004 18.0273 235.438 19.0829 233.34 21.101C231.24 23.1648 230.213 25.6871 230.213 28.5773V44.8621C230.213 45.4121 230.447 45.9177 230.82 46.3302C231.24 46.7427 231.753 46.9273 232.314 46.9273C232.873 46.9273 233.385 46.6968 233.806 46.3302C234.226 45.9177 234.412 45.4135 234.412 44.8621V36.9732C236.278 38.394 238.47 39.1273 240.943 39.1273C243.882 39.1273 246.448 38.0718 248.547 36.0552C250.646 33.9898 251.673 31.4677 251.673 28.5773C251.673 25.6885 250.6 23.1648 248.547 21.101C246.448 19.0356 243.882 18.0273 240.943 18.0273ZM240.943 34.9996C239.125 34.9996 237.584 34.4023 236.324 33.119C235.019 31.8343 234.412 30.3662 234.412 28.5773C234.412 26.7885 235.019 25.2746 236.324 24.0357C237.631 22.7523 239.125 22.1552 240.943 22.1552C242.762 22.1552 244.302 22.7523 245.56 24.0357C246.868 25.3204 247.475 26.7885 247.475 28.5773C247.475 30.3662 246.868 31.8802 245.56 33.119C244.302 34.4037 242.763 34.9996 240.943 34.9996ZM224.802 18.0273C224.243 18.0273 223.73 18.2565 223.31 18.6246C222.89 19.0356 222.703 19.5412 222.703 20.0912V37.0635C222.703 37.6148 222.937 38.119 223.31 38.5315C223.73 38.944 224.242 39.1287 224.802 39.1287C225.362 39.1287 225.875 38.8982 226.296 38.5315C226.714 38.119 226.902 37.6148 226.902 37.0635V20.0912C226.902 19.5412 226.714 19.0356 226.296 18.6231C226.1 18.4286 225.866 18.2755 225.61 18.1729C225.353 18.0703 225.079 18.0203 224.802 18.026V18.0273ZM207.496 18.0273C206.937 18.0273 206.423 18.2106 206.003 18.6246C205.807 18.8055 205.652 19.0257 205.547 19.2704C205.443 19.5153 205.391 19.7793 205.396 20.0454V37.0635C205.396 37.6148 205.63 38.119 206.003 38.5315C206.423 38.944 206.936 39.1287 207.496 39.1287H215.425C217.199 39.1287 218.738 38.5315 219.951 37.2927C221.211 36.0552 221.817 34.5871 221.817 32.844C221.826 32.0146 221.665 31.192 221.344 30.4267C221.025 29.6614 220.55 28.9697 219.951 28.394C218.692 27.1552 217.199 26.5593 215.425 26.5593H209.595V20.1371C209.595 19.5871 209.408 19.0815 208.987 18.669C208.8 18.4605 208.57 18.2951 208.312 18.1843C208.055 18.0735 207.777 18.0199 207.496 18.0273ZM209.595 30.6412H215.425C216.032 30.6412 216.547 30.8718 217.012 31.2843C217.433 31.6968 217.667 32.201 217.667 32.7982C217.667 33.394 217.433 33.8982 217.012 34.3121C216.592 34.7246 216.08 34.9537 215.425 34.9537H209.595V30.6412ZM200.078 18.2565H188.603C188.34 18.2527 188.08 18.3008 187.838 18.3981C187.595 18.4955 187.373 18.6402 187.187 18.8237C186.999 19.0073 186.852 19.226 186.75 19.4672C186.65 19.7084 186.597 19.9673 186.597 20.2287V20.3204C186.597 21.4218 187.484 22.2927 188.603 22.2927H192.287V37.0635C192.287 38.1648 193.175 39.0357 194.294 39.0357H194.388C194.649 39.0393 194.909 38.9911 195.153 38.8936C195.396 38.7961 195.617 38.6515 195.803 38.4679C195.99 38.2845 196.138 38.0658 196.239 37.8247C196.34 37.5835 196.392 37.3248 196.392 37.0635V22.2927H200.078C200.34 22.2965 200.6 22.2484 200.844 22.151C201.087 22.0536 201.308 21.9089 201.495 21.7254C201.681 21.5418 201.829 21.3232 201.93 21.082C202.032 20.8408 202.084 20.5818 202.084 20.3204V20.2287C202.084 19.9673 202.032 19.7084 201.93 19.4672C201.829 19.226 201.681 19.0073 201.495 18.8237C201.308 18.6402 201.087 18.4955 200.844 18.3981C200.6 18.3008 200.34 18.2527 200.078 18.2565ZM175.541 18.0273C172.603 18.0273 170.037 19.0829 167.936 21.101C165.838 23.1648 164.812 25.6871 164.812 28.5773C164.812 31.4662 165.883 33.9898 167.936 36.0552C170.037 38.119 172.555 39.1273 175.541 39.1273C178.2 39.1273 180.578 38.2565 182.538 36.5579C182.958 36.0996 183.192 35.5954 183.192 35.0454C183.192 34.4954 183.006 33.9898 182.585 33.5773C182.389 33.3828 182.156 33.2297 181.9 33.1271C181.642 33.0245 181.368 32.9745 181.092 32.9802C180.626 32.9802 180.205 33.119 179.833 33.394C178.621 34.4496 177.22 34.9996 175.587 34.9996C173.769 34.9996 172.228 34.4023 170.969 33.119C169.664 31.8343 169.056 30.3662 169.056 28.5773C169.056 26.7885 169.664 25.2746 170.969 24.0357C172.228 22.7523 173.769 22.1552 175.587 22.1552C177.22 22.1552 178.621 22.6606 179.879 23.7148C180.253 24.0356 180.719 24.2204 181.232 24.2204C181.791 24.2204 182.304 23.9898 182.724 23.6231C183.144 23.2107 183.331 22.7065 183.331 22.1552C183.331 21.5135 183.099 20.9635 182.585 20.5496C180.578 18.8523 178.246 18.0273 175.541 18.0273ZM157.44 18.0273C156.274 18.0273 155.342 18.8981 155.201 19.9996C153.375 18.7077 151.19 18.0181 148.951 18.0273C143.027 18.0273 138.221 22.7523 138.221 28.5773C138.221 34.4037 143.027 39.1273 148.951 39.1273C151.597 39.1342 154.153 38.1715 156.135 36.4218C156.695 37.569 157.488 38.394 158.374 38.8523H158.468C158.745 38.944 159.027 38.9912 159.307 38.9912C160.566 38.9912 161.593 37.9815 161.593 36.7427C161.593 36.1927 161.407 35.6871 161.032 35.2746L160.987 35.2287L160.939 35.1829C159.868 34.2204 159.727 33.394 159.679 31.7885V20.1385C159.679 18.9912 158.654 18.0273 157.44 18.0273ZM148.951 34.7246C145.5 34.7246 142.7 31.9718 142.7 28.5773C142.7 25.1829 145.499 22.4302 148.951 22.4302C152.403 22.4302 155.201 25.1829 155.201 28.5773C155.201 31.9718 152.404 34.7246 148.951 34.7246ZM132.81 18.0273C132.25 18.0273 131.738 18.2565 131.318 18.6246C131.121 18.8143 130.965 19.0424 130.861 19.2948C130.756 19.5472 130.705 19.8183 130.711 20.0912V26.5135H121.242V20.0912C121.242 19.5412 121.054 19.0356 120.635 18.6231C120.439 18.4286 120.205 18.2755 119.949 18.1729C119.692 18.0703 119.418 18.0203 119.142 18.026C118.582 18.026 118.07 18.2565 117.649 18.6231C117.23 19.0356 117.043 19.5398 117.043 20.0912V37.0635C117.043 37.6148 117.276 38.119 117.649 38.5315C118.069 38.944 118.581 39.1287 119.142 39.1287C119.701 39.1287 120.215 38.8982 120.635 38.5315C121.054 38.119 121.242 37.6148 121.242 37.0635V30.6412H130.711V37.0635C130.711 37.6148 130.945 38.119 131.318 38.5315C131.738 38.944 132.25 39.1287 132.81 39.1287C133.37 39.1287 133.883 38.8982 134.303 38.5315C134.722 38.119 134.91 37.6148 134.91 37.0635V20.0912C134.91 19.5412 134.676 19.0356 134.303 18.6231C134.107 18.4289 133.874 18.2758 133.618 18.1733C133.361 18.0707 133.087 18.0205 132.81 18.026V18.0273ZM103.001 18.0273C100.062 18.0273 97.4972 19.0829 95.3972 21.101C93.2986 23.1648 92.2716 25.6871 92.2716 28.5773C92.2716 31.4662 93.3445 33.9898 95.3972 36.0552C97.4972 38.119 100.062 39.1273 103.001 39.1273C105.941 39.1273 108.505 38.0718 110.605 36.0552C112.704 33.9898 113.731 31.4677 113.731 28.5773C113.731 25.6885 112.658 23.1648 110.605 21.101C108.505 19.0356 105.941 18.0273 103.001 18.0273ZM103.001 34.9996C101.182 34.9996 99.6432 34.4023 98.3838 33.119C97.077 31.8343 96.4702 30.3662 96.4702 28.5773C96.4702 26.7885 97.077 25.2746 98.3838 24.0357C99.6891 22.7523 101.181 22.1552 103.001 22.1552C104.82 22.1552 106.361 22.7523 107.62 24.0357C108.926 25.3204 109.532 26.7885 109.532 28.5773C109.532 30.3662 108.926 31.8802 107.62 33.119C106.314 34.4037 104.82 34.9996 103.001 34.9996ZM86.954 9.58706C86.2999 9.58706 85.9283 9.7704 85.5066 10.0912L85.4607 10.1371L85.4148 10.1829L85.3675 10.2287L85.3216 10.2746L83.1757 12.844L80.9823 15.4579C80.5634 15.9635 80.1432 16.4677 79.677 16.9718C78.6972 18.1648 77.6701 19.3579 76.6445 20.5496L76.5512 20.6412C76.46 20.7212 76.3811 20.8143 76.3174 20.9177L76.1784 20.7787V20.7329C73.612 17.7052 71.0014 14.5871 68.481 11.6051L67.3608 10.2301L67.3148 10.1829L67.2675 10.1371L67.2216 10.0912L67.1742 10.0454C66.7554 9.72457 66.3809 9.54123 65.7283 9.54123C65.4664 9.53736 65.2062 9.58552 64.9631 9.6829C64.7199 9.78028 64.4986 9.92495 64.3121 10.1085C64.1254 10.292 63.9772 10.5107 63.8761 10.7519C63.7749 10.9931 63.7229 11.252 63.7229 11.5135V36.9718C63.7229 38.0732 64.6094 38.944 65.7283 38.944H65.8215C66.0836 38.948 66.3439 38.9001 66.5872 38.8028C66.8305 38.7054 67.0519 38.5608 67.2387 38.3773C67.4255 38.1937 67.5738 37.9749 67.6751 37.7336C67.7762 37.4923 67.8284 37.2334 67.8284 36.9718V16.7885C68.5743 17.7052 69.3201 18.5773 70.0675 19.4954L70.5797 20.0927L71.327 21.0093L73.3797 23.4857C73.5189 23.669 73.658 23.8065 73.7986 23.9898C74.1256 24.3579 74.4053 24.7246 74.7309 25.0912V25.1371L74.7783 25.1829C75.1513 25.5496 75.7108 25.7802 76.2256 25.7802C76.831 25.7802 77.204 25.5954 77.6242 25.2746C77.7634 25.1371 77.9513 24.9537 78.0905 24.7704L78.1837 24.6787C78.5108 24.3121 78.8378 23.8982 79.1635 23.5315C80.0958 22.3843 81.0283 21.2843 81.962 20.1371C82.7094 19.2662 83.4095 18.3481 84.108 17.476L84.6689 16.7885V36.9718C84.6689 38.0732 85.554 38.944 86.6729 38.944H86.7675C87.0295 38.9479 87.2896 38.8997 87.5327 38.8023C87.7759 38.7049 87.9972 38.5603 88.1839 38.3767C88.3704 38.1933 88.5186 37.9746 88.6197 37.7333C88.7209 37.4921 88.7729 37.2333 88.7729 36.9718V11.5135C88.9594 10.5037 88.027 9.58706 86.954 9.58706Z" fill="#3D3935"/>
<path fill-rule="evenodd" clip-rule="evenodd" d="M29.8096 49.3573C26.1319 50.0076 22.3557 49.8391 18.7508 48.8635C15.1459 47.888 11.8016 46.1297 8.95691 43.7142C15.2449 45.895 21.9783 46.4784 28.5488 45.4115C28.7366 45.3656 28.9232 45.3656 29.0637 45.3198C29.4812 45.2281 29.857 45.1823 30.2745 45.0906C40.3988 42.7059 47.2097 33.3934 46.2758 23.2559C47.0024 29.6443 46.104 36.1125 43.6637 42.0628C40.1191 45.7323 35.3596 48.3934 29.8096 49.3573Z" fill="url(#paint0_linear_289_2862)"/>
<path fill-rule="evenodd" clip-rule="evenodd" d="M24.8637 12.0645C27.6163 20.9645 32.515 28.9909 38.9529 35.5047H33.3083C27.3695 28.7262 23.0048 20.7221 20.5259 12.0645H24.8637Z" fill="#F9D544"/>
<path fill-rule="evenodd" clip-rule="evenodd" d="M30.3216 12.0645C27.8309 20.7072 23.4858 28.7055 17.5878 35.5047H11.9405C18.4467 28.9356 23.2643 20.8936 25.9824 12.0645H30.3203H30.3216Z" fill="#D45743"/>
<path fill-rule="evenodd" clip-rule="evenodd" d="M39.4189 30.3676C35.0922 32.5971 30.2937 33.761 25.4243 33.7621C20.3865 33.7621 15.5811 32.5246 11.4297 30.3676V25.6426C15.4878 28.1663 20.2918 29.5871 25.4243 29.5871C30.5554 29.5871 35.3608 28.1204 39.4189 25.6426V30.3676Z" fill="#82BB5D"/>
<path fill-rule="evenodd" clip-rule="evenodd" d="M8.95686 43.7152C4.75821 40.1389 1.72576 35.1833 0.700105 29.3583C-0.747229 21.3306 1.91225 13.5319 7.18528 8.02773C4.73796 13.9757 3.83839 20.445 4.57033 26.8333C4.61765 27.4306 4.7095 28.0264 4.80413 28.6222C6.80953 39.6319 17.3528 47.0625 28.5473 45.3652C28.7352 45.3194 28.9217 45.3194 29.0623 45.2735C22.2973 46.7416 15.6257 46.1 8.95548 43.7139L8.95686 43.7152ZM7.41768 7.8444C7.46361 7.75273 7.55685 7.70551 7.65009 7.61523L7.41768 7.8444Z" fill="url(#paint1_linear_289_2862)"/>
<path fill-rule="evenodd" clip-rule="evenodd" d="M21.0393 0.733432C24.7165 0.0834672 28.4922 0.252273 32.0966 1.22779C35.7009 2.2033 39.0447 3.96143 41.8892 6.37649C35.6012 4.19564 28.8679 3.61234 22.2973 4.67926C22.1108 4.72509 21.9244 4.72509 21.7837 4.77093C11.0081 6.65149 3.63645 16.3306 4.61758 26.8821C3.89098 20.4925 4.78985 14.0234 7.23113 8.07232C10.7757 4.35705 15.5338 1.69593 21.0393 0.732042V0.733432Z" fill="url(#paint2_linear_289_2862)"/>
<path fill-rule="evenodd" clip-rule="evenodd" d="M41.8905 6.37426C46.0891 9.95343 49.1216 14.9075 50.1472 20.7325C51.5945 28.7604 48.9351 36.559 43.6635 42.0631C46.1101 36.1145 47.0087 29.6447 46.2756 23.2562C46.2297 22.659 46.1365 22.0631 46.0432 21.4673C44.0365 10.4576 33.4946 3.02705 22.2986 4.72426C22.1121 4.77009 21.9257 4.77009 21.785 4.81593C28.5485 3.34788 35.2661 4.03538 41.8905 6.37565V6.37426ZM43.4311 42.2465L43.1973 42.4756C43.2964 42.4243 43.3779 42.3445 43.4311 42.2465Z" fill="url(#paint3_linear_289_2862)"/>
<defs>
<linearGradient id="paint0_linear_289_2862" x1="38.2614" y1="36.2593" x2="14.3452" y2="44.1642" gradientUnits="userSpaceOnUse">
<stop stop-color="#FFE644"/>
<stop offset="1" stop-color="#DE8344"/>
</linearGradient>
<linearGradient id="paint1_linear_289_2862" x1="6.47425" y1="21.676" x2="22.3496" y2="39.3627" gradientUnits="userSpaceOnUse">
<stop stop-color="#F0BC44"/>
<stop offset="1" stop-color="#BD463D"/>
</linearGradient>
<linearGradient id="paint2_linear_289_2862" x1="2.78387" y1="15.5531" x2="39.192" y2="2.84766" gradientUnits="userSpaceOnUse">
<stop stop-color="#FFF343"/>
<stop offset="1" stop-color="#9FC758"/>
</linearGradient>
<linearGradient id="paint3_linear_289_2862" x1="35.4398" y1="9.77071" x2="42.606" y2="32.1713" gradientUnits="userSpaceOnUse">
<stop stop-color="#73B55F"/>
<stop offset="1" stop-color="#BFD452"/>
</linearGradient>
</defs>
</svg>
