<svg width="55" height="85" viewBox="0 0 55 85" fill="none" xmlns="http://www.w3.org/2000/svg">
<g clip-path="url(#clip0_268_439)">
<path d="M53.6465 62.5472L54.2617 60.0798L48.2326 58.4761L47.6174 60.9434L53.6465 62.5472Z" fill="#fff"/>
<path d="M47.3714 56.9956L48.9709 50.9506L46.5101 50.3337L44.9105 56.3787L47.3714 56.9956Z" fill="#fff"/>
<path d="M41.2192 56.0087C39.1274 53.9115 36.2975 52.5544 32.9753 52.061C33.2214 51.5675 33.4675 51.074 33.7136 50.5806C34.6979 47.4964 33.8366 42.8084 29.6532 39.8476C26.208 37.3803 24.9775 35.7765 24.4854 34.9129C28.6688 31.8287 31.4988 25.0436 31.4988 17.0247C31.4988 16.4078 31.4988 14.3106 30.5145 13.3237C30.1453 12.9536 29.5301 12.7068 29.0379 12.7068C23.9932 12.7068 23.6241 10.9797 23.6241 10.9797C23.6241 10.3629 23.0089 9.86938 22.3937 9.86938C21.7784 9.86938 21.1632 10.4862 21.1632 11.1031C21.1632 12.09 20.548 12.9536 19.4406 13.8171C16.6107 16.0377 11.1968 16.7779 8.61289 15.9144C8.24376 15.791 7.87464 15.9144 7.50551 16.1611C7.13638 16.4078 7.01334 16.7779 7.01334 17.148C7.01334 25.1669 9.72028 31.7054 13.6576 34.7896C13.6576 35.7765 13.2885 36.6401 12.5503 37.2569C10.8277 38.984 7.50551 38.984 6.52117 38.984C6.39813 38.984 6.39813 38.984 6.39813 38.984C3.44511 39.1074 1.1073 41.4514 1.1073 44.5356V65.508C1.1073 70.9361 5.53683 75.254 10.8277 75.254H24.6084C27.6845 75.254 30.1453 72.7867 30.1453 69.7025C30.1453 66.6183 27.6845 64.151 24.6084 64.151H15.0111C13.2885 64.151 11.935 62.7939 11.935 61.0668V44.4122C11.935 43.0552 11.4429 41.8215 10.5816 40.8346C11.812 40.4644 13.1655 39.8476 14.1498 38.984C15.0111 38.1205 15.5033 37.1335 15.7494 36.0232C16.7337 36.5167 17.8411 36.7634 19.0715 36.7634C20.1789 36.7634 21.1632 36.5167 22.1476 36.1466C22.8858 37.3803 24.4854 39.3541 28.0536 41.8215C31.1297 44.0421 31.8679 47.4964 31.1297 49.8404C30.8836 50.4572 30.3914 51.8142 29.0379 51.8142C28.2997 51.8142 27.8075 52.3077 27.8075 53.0479C27.8075 53.7881 28.4227 54.2816 29.161 54.2816C33.3444 54.2816 36.9127 55.5153 39.2505 57.8592C41.5883 60.2032 42.8187 63.7809 42.8187 68.3454V85.1234H45.2796V68.2221C45.5256 63.0406 44.0491 58.8462 41.2192 56.0087ZM15.0111 66.6183H24.6084C26.331 66.6183 27.6845 67.9753 27.6845 69.7025C27.6845 71.4296 26.331 72.7867 24.6084 72.7867H10.7046C6.64421 72.7867 3.44511 69.4557 3.44511 65.508V44.4122C3.44511 42.6851 4.79857 41.4514 6.39813 41.328C6.39813 41.328 6.39813 41.328 6.52117 41.328C8.12072 41.328 9.47419 42.6851 9.47419 44.4122V61.0668C9.47419 64.151 12.0581 66.6183 15.0111 66.6183ZM9.47419 18.5051C13.1655 18.8752 18.0872 17.7649 20.9171 15.6676C21.7784 15.0508 22.3937 14.434 22.7628 13.6938C23.8702 14.434 25.7158 15.1742 28.7919 15.1742C28.9149 15.5443 29.0379 16.2845 29.0379 17.0247C29.0379 26.4006 24.6084 34.2961 19.1945 34.2961C14.0268 34.2961 9.84332 27.3875 9.47419 18.5051Z" fill="#fff"/>
<path d="M1.84559 38.2438L8.98205 37.0102L8.61293 34.5428L2.82993 35.5298C2.33776 30.9652 1.59951 15.0508 8.61293 7.1553C11.3199 4.07112 15.0111 2.46734 19.4407 2.46734C23.8702 2.46734 27.4384 4.07112 30.1454 7.03193C37.0357 15.0508 36.1744 30.9652 35.6823 35.5298L28.7919 34.5428L28.4228 37.0102L36.6666 38.2438C37.0357 38.2438 37.2818 38.2438 37.5279 37.9971C37.774 37.7504 38.0201 37.5036 38.0201 37.1335C38.1431 36.3933 40.8501 15.6676 31.991 5.42816C28.7919 1.85051 24.6085 0 19.4407 0C14.2729 0 9.96639 1.85051 6.76729 5.42816C-2.21481 15.5443 0.246037 36.27 0.36908 37.1335C0.36908 37.5036 0.615165 37.7504 0.86125 37.9971C1.10733 38.2438 1.35342 38.2438 1.5995 38.2438C1.72255 38.2438 1.72255 38.2438 1.84559 38.2438Z" fill="#fff"/>
<path d="M3.69128 85.1232H6.15213V75.7473L3.69128 74.5137V85.1232Z" fill="#fff"/>
</g>
<defs>
<clipPath id="clip0_268_439">
<rect width="55" height="85" fill="white"/>
</clipPath>
</defs>
</svg>
