<svg width="34" height="24" viewBox="0 0 34 24" fill="none" xmlns="http://www.w3.org/2000/svg">
<path d="M33.24 12.0015C33.2225 11.6647 33.1022 11.3978 32.9425 11.2315L22.8625 0.591527C22.3988 0.12559 21.7054 0.145274 21.2788 0.547778C20.8522 0.95028 20.8325 1.70496 21.2351 2.13151L29.5124 10.8815L1.87977 10.8815C1.26069 10.8815 0.759765 11.3825 0.759765 12.0015C0.759765 12.6206 1.2607 13.1215 1.87977 13.1215L29.5124 13.1215L21.2351 21.8715C20.8326 22.2981 20.8676 23.0374 21.2788 23.4553C21.7054 23.8862 22.4601 23.8381 22.8625 23.4115L32.9425 12.7715C33.2094 12.5002 33.2225 12.2684 33.24 12.0015L33.24 12.0015Z" fill="white"/>
</svg>
