<svg width="56" height="57" viewBox="0 0 56 57" fill="none" xmlns="http://www.w3.org/2000/svg">
<path d="M35.7383 20.3629C35.5632 20.205 35.3718 20.1326 35.2107 20.1293L24.97 19.8526C24.5105 19.8515 24.1775 20.2039 24.1656 20.6137C24.1537 21.0234 24.517 21.4062 24.9267 21.4181L33.3424 21.6517L19.6851 35.309C19.3791 35.6149 19.3791 36.1101 19.6851 36.4161C19.9911 36.722 20.4862 36.722 20.7922 36.4161L34.4495 22.7588L34.6831 31.1745C34.695 31.5842 35.0777 31.9323 35.4875 31.9356C35.9113 31.9377 36.2605 31.541 36.2486 31.1312L35.9718 20.8905C35.9697 20.6245 35.8616 20.5034 35.7383 20.3628L35.7383 20.3629Z" fill="#fff"/>
</svg>
