<svg width="27" height="26" viewBox="0 0 27 26" fill="none" xmlns="http://www.w3.org/2000/svg">
<path d="M13.9771 7.00684C10.6649 7.00684 7.98389 9.68918 7.98389 13C7.98389 16.3122 10.6652 18.9932 13.9771 18.9932C17.289 18.9932 19.9703 16.3119 19.9703 13C19.9703 9.68812 17.289 7.00684 13.9771 7.00684Z" fill="#449EDA"/>
<path d="M13.1278 4.92636H14.8523C15.0714 4.92636 15.2628 4.73499 15.2628 4.51583V0.41053C15.2628 0.191367 15.0714 0 14.8523 0H13.1278C12.9087 0 12.7173 0.191367 12.7173 0.41053V4.54374C12.7173 4.76184 12.9097 4.92647 13.1278 4.92647V4.92636Z" fill="#449EDA"/>
<path d="M7.10683 7.90874C7.27147 8.07338 7.51736 8.07338 7.68201 7.90874L8.88579 6.70496C9.05043 6.54032 9.05043 6.29443 8.88579 6.12978L5.95762 3.2016C5.79298 3.03697 5.54709 3.03697 5.38244 3.2016L4.17865 4.40539C4.01402 4.57003 4.01402 4.81592 4.17865 4.98057L7.10683 7.90874Z" fill="#449EDA"/>
<path d="M5.90292 13.8493V12.1249C5.90292 11.9057 5.71155 11.7144 5.49239 11.7144H1.38709C1.16793 11.7144 0.976562 11.9057 0.976562 12.1249V13.8493C0.976562 14.0685 1.16793 14.2599 1.38709 14.2599H5.52031C5.7384 14.2599 5.90303 14.0674 5.90303 13.8493H5.90292Z" fill="#449EDA"/>
<path d="M7.68201 18.0913C7.51737 17.9266 7.27148 17.9266 7.10683 18.0913L4.17865 21.0194C4.01402 21.1841 4.01402 21.43 4.17865 21.5946L5.38244 22.7984C5.54708 22.963 5.79297 22.963 5.95762 22.7984L8.88579 19.8702C9.05043 19.7056 9.05043 19.4597 8.88579 19.295L7.68201 18.0913Z" fill="#449EDA"/>
<path d="M14.8259 21.0738H13.1014C12.8823 21.0738 12.6909 21.2652 12.6909 21.4844V25.5897C12.6909 25.8088 12.8823 26.0002 13.1014 26.0002H14.8259C15.0451 26.0002 15.2364 25.8088 15.2364 25.5897V21.4565C15.2364 21.2384 15.044 21.0737 14.8259 21.0737V21.0738Z" fill="#449EDA"/>
<path d="M20.8468 18.0913C20.6821 17.9266 20.4362 17.9266 20.2716 18.0913L19.0678 19.295C18.9032 19.4597 18.9032 19.7056 19.0678 19.8702L21.996 22.7984C22.1606 22.963 22.4065 22.963 22.5712 22.7984L23.775 21.5946C23.9396 21.43 23.9396 21.1841 23.775 21.0194L20.8468 18.0913Z" fill="#449EDA"/>
<path d="M26.5662 11.7402H22.433C22.2138 11.7402 22.0225 11.9316 22.0225 12.1508V13.8752C22.0225 14.0944 22.2138 14.2857 22.433 14.2857H26.5662C26.7854 14.2857 26.9767 14.0944 26.9767 13.8752V12.1508C26.9767 11.9327 26.7854 11.7402 26.5662 11.7402Z" fill="#449EDA"/>
<path d="M20.2716 7.90874C20.4362 8.07338 20.6821 8.07338 20.8468 7.90874L23.775 4.98057C23.9396 4.81593 23.9396 4.57004 23.775 4.40539L22.5712 3.2016C22.4065 3.03697 22.1606 3.03697 21.996 3.2016L19.0678 6.12978C18.9032 6.29442 18.9032 6.54031 19.0678 6.70496L20.2716 7.90874Z" fill="#449EDA"/>
</svg>
