<svg width="66" height="66" viewBox="0 0 66 66" fill="none" xmlns="http://www.w3.org/2000/svg">
<g clip-path="url(#clip0_268_409)">
<path d="M19.1695 44.9275L0.737288 15.0188C0.254237 14.2202 0 13.3186 0 12.3912C0 9.66052 2.18644 7.44507 4.88136 7.44507C6.58475 7.44507 8.13559 8.32095 9.02542 9.76357L19.8814 27.3584L17.7966 28.6722L6.9661 11.0774C6.50847 10.3561 5.74576 9.91814 4.88136 9.91814C3.5339 9.91814 2.44068 11.0259 2.44068 12.3912C2.44068 12.8549 2.5678 13.3186 2.82203 13.705L21.2542 43.6394L19.1695 44.9275Z" fill="#fff"/>
<path d="M24.2034 24.9109L11.8474 4.86877C11.3898 4.14746 10.6271 3.70952 9.7627 3.70952C8.41525 3.70952 7.32203 4.73997 7.32203 6.02802C7.32203 7.00695 8.44067 8.83599 8.92372 9.60882L8.99999 9.76339L6.96609 11.0772L6.8644 10.9226C5.8983 9.37697 4.88135 7.57369 4.88135 6.00226C4.88135 3.37463 7.06779 1.21069 9.7627 1.21069C11.4661 1.21069 13.0169 2.08657 13.9068 3.52919L26.2627 23.5714L24.2034 24.9109Z" fill="#fff"/>
<path d="M32.7711 24.911L20.4152 4.86889C19.9576 4.14758 19.1949 3.70964 18.3305 3.70964C16.983 3.70964 15.8898 4.81737 15.8898 6.18271C15.8898 6.46608 15.9406 6.74945 16.0423 7.03282L13.7542 7.88294C13.5508 7.34196 13.4491 6.77521 13.4491 6.18271C13.4491 3.45203 15.6355 1.23657 18.3305 1.23657C20.0338 1.23657 21.5847 2.11245 22.4745 3.55507L34.8305 23.5972L32.7711 24.911Z" fill="#fff"/>
<path d="M58.2458 58.5035L53.3136 50.4918C52.8305 49.6932 52.5763 48.7915 52.5763 47.8641C52.5763 44.6955 51.7119 41.6815 50.1102 39.1311C44.7204 30.6299 34.6526 14.9157 28.9831 6.13111C28.5 5.38403 27.7373 4.9461 26.8983 4.9461C25.6271 4.9461 24.5593 5.95078 24.4576 7.21307L22.017 7.00699C22.2204 4.45663 24.356 2.44727 26.8983 2.44727C28.5509 2.44727 30.1017 3.29738 31.0424 4.76577C36.6865 13.5503 46.7797 29.2646 52.1695 37.7915C54.0254 40.7283 55.017 44.2061 55.017 47.8641C55.017 48.3278 55.1441 48.7915 55.3983 49.1779L60.3305 57.1897L58.2458 58.5035Z" fill="#fff"/>
<path d="M38.6949 66.0001L37.1441 63.5013C36.5339 62.5223 35.4915 61.9298 34.3475 61.9298C29.1102 61.9298 24 59.9462 19.9831 56.3654C18.3814 54.9486 16.7797 53.712 15.2542 52.7331C9.22881 48.8947 2.66949 45.0305 2.61864 44.979C0.991525 44.0258 0 42.2226 0 40.239C0 37.1734 2.4661 34.6746 5.49153 34.6746C6.30509 34.6746 7.09322 34.8549 7.80509 35.1898L19.2203 40.7027L18.178 42.9439L6.76271 37.431C6.38136 37.2507 5.94915 37.1476 5.49153 37.1476C3.81356 37.1476 2.44068 38.5387 2.44068 40.239C2.44068 41.3209 2.97458 42.3256 3.83898 42.8408C3.88983 42.8666 10.4746 46.7823 16.5508 50.6207C18.2034 51.6769 19.9068 52.965 21.6102 54.4849C25.1949 57.6792 29.7203 59.431 34.3475 59.431C36.3559 59.431 38.161 60.4614 39.2288 62.1617L40.7797 64.6605L38.6949 66.0001Z" fill="#fff"/>
<path d="M5.23726 52.3466L3.30505 51.1616L4.55082 49.0234L6.50844 50.2084L5.23726 52.3466Z" fill="#fff"/>
<path d="M19.8051 62.445C18.7373 61.7237 17.7203 60.9508 16.7542 60.075C15.3559 58.8384 13.983 57.7565 12.661 56.9321C11.1356 55.9532 9.55929 54.9743 8.08472 54.0726L9.3559 51.9602C10.8559 52.8876 12.4322 53.8665 13.9576 54.8455C15.3813 55.7471 16.8813 56.9063 18.3813 58.2459C19.2457 59.0188 20.1864 59.7401 21.1525 60.3841L19.8051 62.445Z" fill="#fff"/>
<path d="M23.2119 34.6746H20.7712V37.1476H23.2119V34.6746Z" fill="#fff"/>
<path d="M24.4577 47.0657H21.9916V49.5387H24.4577V47.0657Z" fill="#fff"/>
<path d="M35.4407 47.0657H33V49.5387H35.4407V47.0657Z" fill="#fff"/>
<path d="M45.2288 52.0117H42.7881V54.4848H45.2288V52.0117Z" fill="#fff"/>
<path d="M33 37.1475H30.5593V39.6205H33V37.1475Z" fill="#fff"/>
<path d="M45.2288 38.384H42.7881V40.8829H45.2288V38.384Z" fill="#fff"/>
<path d="M37.8814 27.2554H35.4407V29.7284H37.8814V27.2554Z" fill="#fff"/>
<path d="M66.0255 24.7822H57.4576V27.2553H66.0255V24.7822Z" fill="#fff"/>
<path d="M56.0836 8.31835L49.7916 14.6938L51.5174 16.4426L57.8094 10.0671L56.0836 8.31835Z" fill="#fff"/>
<path d="M41.5424 0H39.1017V8.6815H41.5424V0Z" fill="#fff"/>
</g>
<defs>
<clipPath id="clip0_268_409">
<rect width="66" height="66" fill="white"/>
</clipPath>
</defs>
</svg>
