<svg width="19" height="23" viewBox="0 0 19 23" fill="none" xmlns="http://www.w3.org/2000/svg">
<path d="M9.42414 22.4428C11.8388 22.4428 14.2536 21.5104 16.0915 19.6711C19.7675 15.9951 19.7675 10.0137 16.0915 6.33634L10.0009 0.246766C9.67184 -0.0822552 9.14989 -0.0822552 8.84874 0.246766L2.75698 6.33744C-0.918992 10.0134 -0.918992 15.9949 2.75698 19.6988C4.59501 21.5101 7.00966 22.4425 9.42436 22.4425L9.42414 22.4428ZM3.90882 7.48978L9.42414 1.97555L14.9395 7.49087C17.9855 10.5369 17.9855 15.4755 14.9395 18.5201C11.8934 21.5651 6.95484 21.5651 3.9091 18.5201C0.864173 15.4741 0.864173 10.5355 3.9091 7.48978H3.90882Z" fill="black"/>
<path d="M9.42437 18.7667V17.1205C7.36662 17.1205 5.72042 15.4464 5.72042 13.4165H4.07422C4.07422 16.3799 6.46099 18.7667 9.42437 18.7667Z" fill="black"/>
</svg>
