<svg width="60" height="71" viewBox="0 0 60 71" fill="none" xmlns="http://www.w3.org/2000/svg">
<path d="M8.7608 42.3667H6.23914V7.46273C6.23914 4.71602 8.47484 2.48755 11.2305 2.48755C13.9861 2.48755 16.2218 4.71602 16.2218 7.46273H13.7261C13.7261 6.08937 12.6083 4.97514 11.2305 4.97514C9.85265 4.97514 8.7348 6.08937 8.7348 7.46273V42.3667H8.7608Z" fill="#449EDA"/>
<path d="M23.7349 27.4153H21.2392V4.97518C21.2392 3.60183 20.1213 2.48759 18.7435 2.48759C17.3657 2.48759 16.2479 3.60183 16.2479 4.97518V27.3894H13.7522V4.97518C13.7522 2.22847 15.9879 0 18.7435 0C21.4992 0 23.7349 2.22847 23.7349 4.97518V27.4153Z" fill="#449EDA"/>
<path d="M31.2478 28.659H28.7521V9.97616C28.7521 8.6028 27.6343 7.48857 26.2565 7.48857C24.8787 7.48857 23.7608 8.6028 23.7608 9.97616H21.2651C21.2651 7.22944 23.5008 5.00098 26.2565 5.00098C29.0121 5.00098 31.2478 7.22944 31.2478 9.97616V28.659Z" fill="#449EDA"/>
<path d="M37.487 23.6581H34.9914V14.3296C34.9914 13.2931 34.1595 12.4639 33.1196 12.4639C32.0798 12.4639 31.2479 13.2931 31.2479 14.3296H28.7522C28.7522 11.9197 30.7019 9.97632 33.1196 9.97632C35.5373 9.97632 37.487 11.9197 37.487 14.3296V23.6581Z" fill="#449EDA"/>
<path d="M34.9913 71.0001H32.4956V65.6621C32.4956 65.0402 32.5476 64.3924 32.6516 63.7705L35.1213 64.1592C35.0433 64.6515 34.9913 65.1698 34.9913 65.6621V71.0001Z" fill="#449EDA"/>
<path d="M13.7522 70.9999H11.2565V69.1083C11.2565 67.0613 10.2946 65.2215 8.70884 64.185C0.623917 58.9507 0 49.9591 0 47.3419V37.4434C0 34.8262 1.11785 32.3127 3.04159 30.5507L6.65511 27.2339L8.34489 29.0737L4.73137 32.3905C3.32756 33.6861 2.49567 35.5259 2.49567 37.4434V47.3419C2.49567 49.6481 3.04159 57.5514 10.0607 62.112C12.3743 63.6149 13.7522 66.2321 13.7522 69.1083V70.9999Z" fill="#449EDA"/>
<path d="M41.2565 67.2686C33.5615 67.2686 25.0087 60.6091 25.0087 51.0734C25.0087 45.0876 28.2582 41.5894 31.1438 38.5317C33.8995 35.6036 36.2652 33.0642 36.2652 28.6591V26.2493L38.2409 27.6485C38.6049 27.9077 46.4818 33.5825 47.4177 40.9416C49.9913 40.1383 51.3431 36.9511 51.3431 36.8993L52.227 34.7485L53.5269 36.692C53.6828 36.9252 57.4783 42.7036 57.4783 49.8296C57.4783 62.112 47.0797 66.4394 46.9757 66.4912L46.0399 64.185C46.4038 64.0296 54.9827 60.4018 54.9827 49.8555C54.9827 45.7095 53.5269 42.0299 52.487 39.931C51.3172 41.5894 49.2894 43.6106 46.2478 43.6106H45V42.3668C45 37.6248 40.9445 33.2715 38.5269 31.1208C37.799 35.0595 35.3293 37.6766 32.9636 40.242C30.156 43.2478 27.5043 46.0723 27.5043 51.0993C27.5043 59.1839 34.7574 64.8069 41.2565 64.8069V67.2686Z" fill="#449EDA"/>
<path d="M45.442 61.542L43.3363 60.1946C43.3622 60.1427 45.52 56.7741 46.0919 52.9132C45.026 53.25 43.6742 53.5869 42.4784 53.5869C39.6967 53.5869 38.059 50.296 37.1491 47.4975C36.6551 48.9227 36.2392 50.6329 36.2392 52.3431C36.2392 55.919 40.3207 59.6504 40.3726 59.7022L38.6829 61.542C38.4749 61.3606 33.7435 57.0332 33.7435 52.3431C33.7435 47.6789 36.2912 43.196 36.4212 43.0146L38.1629 40.0088L38.7349 43.4292C39.2808 46.6424 40.8926 51.0993 42.5044 51.0993C44.0122 51.0993 46.2739 50.2701 47.0018 49.9592L48.7435 49.2077V51.0993C48.7435 56.3595 45.572 61.3347 45.442 61.542Z" fill="#449EDA"/>
<path d="M52.487 6.21899H49.9913V12.438H52.487V6.21899Z" fill="#449EDA"/>
<path d="M52.487 17.439H49.9913V23.6579H52.487V17.439Z" fill="#449EDA"/>
<path d="M59.974 13.7078H53.7349V16.1954H59.974V13.7078Z" fill="#449EDA"/>
<path d="M48.7436 13.7078H42.5044V16.1954H48.7436V13.7078Z" fill="#449EDA"/>
</svg>
