<svg width="113" height="26" viewBox="0 0 113 26" fill="none" xmlns="http://www.w3.org/2000/svg">
<path fill-rule="evenodd" clip-rule="evenodd" d="M48.477 10.1721C47.7852 9.61042 46.8524 9.30619 45.6787 9.24378C45.7176 8.95515 45.7875 8.65092 45.873 8.35449H44.8937H43.922C44.0075 8.66652 44.0775 8.96295 44.1241 9.24378C42.9582 9.30619 42.0255 9.61042 41.3337 10.1721C40.5564 10.8039 40.1677 11.6698 40.1677 12.7775C40.1677 13.8852 40.5564 14.7589 41.3337 15.383C42.0255 15.9368 42.9582 16.2411 44.1319 16.3113C44.0853 16.5999 44.0153 16.9042 43.9298 17.2006H44.9092H45.8808C45.7875 16.9042 45.7254 16.5999 45.6787 16.3113C46.8524 16.2489 47.7852 15.9447 48.477 15.383C49.2543 14.7589 49.6429 13.8852 49.6429 12.7775C49.6507 11.6698 49.2543 10.8039 48.477 10.1721ZM44.233 14.6419L44.2174 15.344C43.4634 15.2894 42.8572 15.0632 42.4063 14.6731C41.8855 14.2207 41.6213 13.5888 41.6213 12.7853C41.6213 11.9741 41.8778 11.3422 42.3986 10.8897C42.8494 10.4919 43.4557 10.2735 44.2096 10.2111L44.2252 10.9287V14.6419H44.233ZM47.4121 14.6731C46.9613 15.0788 46.3472 15.305 45.5854 15.344L45.5699 14.6419V10.921L45.5932 10.2111C46.3472 10.2657 46.9457 10.4841 47.4043 10.8819C47.9251 11.3344 48.1894 11.9663 48.1894 12.7775C48.1894 13.5888 47.9251 14.2207 47.4121 14.6731ZM102.833 10.9287C102.561 10.9287 102.328 10.9756 102.133 11.0614L101.978 11.1394L101.146 12.1223V11.0614H100.4H99.6616C99.7627 11.4046 99.8326 11.701 99.8715 11.9663C99.9104 12.2315 99.9259 12.5279 99.9259 12.8633V17.3566C99.9259 17.692 99.9104 17.9885 99.8715 18.2537C99.8326 18.5189 99.7627 18.8153 99.6616 19.1508H100.54H101.411C101.317 18.8075 101.247 18.5033 101.208 18.2381C101.17 17.9729 101.146 17.6764 101.146 17.3566V16.7247C101.62 17.1304 102.172 17.341 102.81 17.341C103.517 17.341 104.061 17.068 104.442 16.5297C104.823 15.9837 105.009 15.2192 105.009 14.2129C105.009 13.2378 104.807 12.4499 104.411 11.8492C104.007 11.233 103.486 10.9287 102.833 10.9287ZM103.346 15.812C103.074 16.1787 102.685 16.3659 102.18 16.3659C101.768 16.3659 101.434 16.1865 101.146 15.8198V12.4343C101.271 12.3641 101.403 12.3017 101.519 12.2549C101.807 12.1379 102.063 12.0755 102.281 12.0755C102.732 12.0755 103.089 12.2705 103.354 12.6605C103.618 13.0506 103.75 13.5732 103.75 14.2441C103.758 14.9227 103.618 15.4532 103.346 15.812ZM98.9154 15.4064V13.0038C98.9154 12.3173 98.7522 11.7946 98.418 11.4514C98.0837 11.1004 97.5863 10.9287 96.9256 10.9287C96.6924 10.9287 96.467 10.9522 96.2416 10.999C96.0161 11.0458 95.7907 11.1238 95.5498 11.2252L95.2078 12.4031C95.4565 12.2315 95.6897 12.0989 95.8995 12.0287C96.1094 11.9507 96.3271 11.9116 96.5525 11.9116C96.9023 11.9116 97.1821 12.0053 97.3842 12.2081C97.594 12.4031 97.6951 12.6761 97.6951 13.0116V13.5654L95.8918 14.3065C95.5109 14.4625 95.2 14.6887 94.9746 14.9696C94.7414 15.2504 94.6248 15.5468 94.6248 15.8588C94.6248 16.3347 94.788 16.7013 95.1145 16.9588C95.4409 17.2162 95.8995 17.341 96.4981 17.341L96.7468 17.3332L97.6951 16.6233V17.2084H99.1409C99.0553 17.0446 99.0009 16.8339 98.9698 16.5687C98.931 16.3035 98.9154 15.9213 98.9154 15.4064ZM97.6951 16.3659H96.8867C96.3271 16.3659 95.884 15.9134 95.884 15.3518C95.884 14.7979 96.3348 14.3455 96.8867 14.3455H97.6951V16.3659ZM82.0249 15.4064V13.0038C82.0249 12.3173 81.8617 11.7946 81.5274 11.4514C81.1932 11.1004 80.6957 10.9287 80.035 10.9287C79.8018 10.9287 79.5764 10.9522 79.351 10.999C79.1256 11.0458 78.8924 11.1238 78.6514 11.2252L78.3094 12.4031C78.5582 12.2315 78.7914 12.0989 79.0012 12.0287C79.2111 11.9507 79.4287 11.9116 79.6541 11.9116C80.0039 11.9116 80.2838 12.0053 80.4858 12.2081C80.6879 12.4031 80.7968 12.6761 80.7968 13.0116V13.5654L78.9935 14.3065C78.6126 14.4625 78.3017 14.6887 78.0762 14.9696C77.8508 15.2504 77.7342 15.5468 77.7342 15.8588C77.7342 16.3347 77.8975 16.7013 78.2162 16.9588C78.5426 17.2162 79.0012 17.341 79.592 17.341L79.8407 17.3332L80.789 16.6233V17.2084H82.227C82.1415 17.0446 82.0871 16.8339 82.056 16.5687C82.0404 16.3035 82.0249 15.9213 82.0249 15.4064ZM80.7968 16.3659H79.9884C79.4365 16.3659 78.9779 15.9134 78.9779 15.3518C78.9779 14.7979 79.4287 14.3455 79.9884 14.3455H80.7968V16.3659ZM71.2205 16.3815C70.6453 16.3815 70.1945 16.1709 69.8603 15.7496C69.526 15.3362 69.355 14.7667 69.355 14.0569C69.355 13.3626 69.5183 12.8087 69.8292 12.4031C70.1479 11.9897 70.5754 11.7946 71.1117 11.7946C71.3838 11.7946 71.6247 11.8492 71.8424 11.9585C72.0678 12.0677 72.2932 12.2471 72.5186 12.4889L72.5808 11.0692C72.2699 11.0146 72.0211 10.9756 71.8424 10.96C71.6636 10.9444 71.4537 10.9365 71.2128 10.9365C70.3111 10.9365 69.5649 11.2564 68.9742 11.9038C68.3756 12.5513 68.0803 13.3626 68.0803 14.3299C68.0803 15.1958 68.3523 15.9134 68.8887 16.4829C69.425 17.0524 70.1012 17.341 70.9174 17.341C71.1506 17.341 71.3527 17.3254 71.5237 17.302C71.6947 17.2786 71.9123 17.2318 72.1921 17.1616L72.6741 15.9837C72.3243 16.1319 72.0367 16.2333 71.8268 16.2879C71.617 16.3503 71.4149 16.3815 71.2205 16.3815ZM67.4118 11.779C67.4662 11.5138 67.5673 11.2798 67.7227 11.0614H66.9143H66.1215C66.1137 11.1706 66.0671 11.3188 65.966 11.506C65.865 11.6932 65.7251 11.8882 65.5696 12.0833L64.1161 13.8696H64.1083H64.1161L62.476 11.8804C62.3672 11.7556 62.2739 11.6152 62.2039 11.4592C62.134 11.311 62.0951 11.1784 62.0951 11.0614H61.2712H60.455L60.8826 11.5606V15.4064C60.8826 15.7418 60.8592 16.0383 60.8281 16.3035C60.7893 16.5687 60.7271 16.8651 60.626 17.2006H61.4966H62.3672C62.2739 16.8573 62.2039 16.5531 62.1651 16.2879C62.1262 16.0227 62.1029 15.7262 62.1029 15.3986V13.0272L64.1083 15.4688L66.1137 13.0272V15.3986C66.1137 15.7418 66.0982 16.0383 66.0593 16.3035C66.0204 16.5687 65.9583 16.8651 65.8572 17.1928H66.7356H67.6061C67.5051 16.8495 67.4429 16.5453 67.404 16.2801C67.3652 16.0149 67.3418 15.7184 67.3418 15.3908V12.8477C67.3263 12.4031 67.3574 12.0443 67.4118 11.779ZM57.9055 10.9287C57.6335 10.9287 57.4003 10.9756 57.2137 11.0614L57.0583 11.1394L56.2266 12.1223V11.0614H54.7497C54.8508 11.4046 54.913 11.701 54.9518 11.9663C54.9907 12.2315 55.0062 12.5279 55.0062 12.8633V17.3566C55.0062 17.692 54.9907 17.9885 54.9518 18.2537C54.913 18.5189 54.843 18.8153 54.7497 19.1508H56.4909C56.3898 18.8075 56.3276 18.5033 56.281 18.2381C56.2421 17.9729 56.2266 17.6764 56.2266 17.3566V16.7247C56.7007 17.1304 57.2526 17.341 57.89 17.341C58.5973 17.341 59.1414 17.068 59.5223 16.5297C59.9032 15.9837 60.0975 15.2192 60.0975 14.2129C60.0975 13.2378 59.8954 12.4499 59.499 11.8492C59.0715 11.233 58.5507 10.9287 57.9055 10.9287ZM58.4185 15.812C58.1465 16.1787 57.7578 16.3659 57.2526 16.3659C56.8484 16.3659 56.5064 16.1865 56.2188 15.8198V12.4343C56.3509 12.3641 56.4675 12.3017 56.5919 12.2549C56.8795 12.1379 57.136 12.0755 57.3614 12.0755C57.8122 12.0755 58.1698 12.2705 58.4341 12.6605C58.6984 13.0428 58.8305 13.5732 58.8305 14.2441C58.8227 14.9227 58.6906 15.4454 58.4185 15.812ZM54.0035 15.4064V13.0038C54.0035 12.3173 53.8403 11.7946 53.5061 11.4514C53.1718 11.1004 52.6744 10.9287 52.0137 10.9287C51.7805 10.9287 51.5473 10.9522 51.3296 10.999C51.1042 11.0458 50.871 11.1238 50.6301 11.2252L50.2881 12.4031C50.5446 12.2315 50.77 12.0989 50.9799 12.0287C51.1897 11.9507 51.4074 11.9116 51.6328 11.9116C51.9826 11.9116 52.2546 12.0053 52.4645 12.2081C52.6666 12.4031 52.7676 12.6761 52.7676 13.0116V13.5654L50.9721 14.3065C50.5834 14.4625 50.2803 14.6887 50.0471 14.9696C49.8217 15.2504 49.7051 15.5468 49.7051 15.8588C49.7051 16.3347 49.8683 16.7013 50.187 16.9588C50.5135 17.2162 50.9721 17.341 51.5706 17.341L51.8193 17.3332L52.7676 16.6233V17.2084H54.2134C54.1279 17.0446 54.0735 16.8339 54.0346 16.5687C54.0191 16.3035 54.0035 15.9213 54.0035 15.4064ZM52.7832 16.3659H51.9748C51.4151 16.3659 50.9643 15.9134 50.9643 15.3518C50.9643 14.7979 51.4151 14.3455 51.9748 14.3455H52.7832V16.3659ZM105.709 11.0614L105.468 11.779L105.227 12.4889C105.655 12.2627 106.183 12.1067 106.828 12.0053L107.178 11.9663V15.3986C107.178 15.8666 107.155 16.2255 107.116 16.4907C107.077 16.7559 106.999 16.99 106.89 17.1928H107.792H108.694C108.585 16.9822 108.507 16.7403 108.468 16.4751C108.429 16.2099 108.398 15.851 108.398 15.3908V11.9429L108.585 11.9741C108.95 12.0599 109.401 12.2003 109.922 12.4031L110.116 11.7244L110.311 11.0458H107.784H105.709V11.0614ZM94.3294 16.3503H93.5754V12.8633C93.5754 12.5357 93.5988 12.2393 93.6376 11.9741C93.6765 11.7088 93.7464 11.4046 93.8475 11.0692H91.0803H89.4014C89.5024 11.4124 89.5724 11.7166 89.5957 11.9819C89.6268 12.2471 89.6268 12.5435 89.6035 12.8633C89.5413 13.7058 89.448 14.4937 89.3081 15.2114C89.2226 15.6638 89.1216 16.0461 89.0127 16.3503H88.3054C88.3365 16.4361 88.3598 16.5843 88.3831 16.7871C88.422 17.0836 88.4298 17.3956 88.422 17.7388C88.4065 18.0821 88.3676 18.3473 88.3054 18.5501H89.8211C89.7589 18.3473 89.7201 18.0743 89.7045 17.731V17.2006H92.9303C92.9458 17.3644 92.9381 17.5438 92.9303 17.731C92.9148 18.0821 92.8837 18.3473 92.8215 18.5501H94.3294C94.2672 18.3473 94.2284 18.0743 94.2206 17.731C94.2051 17.3956 94.2206 17.068 94.2595 16.7793C94.275 16.5843 94.2983 16.4361 94.3294 16.3503ZM92.3551 16.3503H90.272C90.3575 16.0461 90.443 15.6716 90.5129 15.2426C90.6761 14.2675 90.7694 13.1598 90.7927 11.9116H92.3551V16.3503V16.3503ZM87.8002 15.4064V12.8633C87.8002 12.3797 87.8157 12.0053 87.8546 11.7478C87.8934 11.4826 87.9556 11.2564 88.0567 11.0614H87.1861H86.3078C86.4088 11.2564 86.4788 11.4904 86.5099 11.7478C86.5487 12.0131 86.572 12.3797 86.572 12.8555V13.581H84.4267V12.8555C84.4267 12.5279 84.45 12.2315 84.4889 11.9663C84.5278 11.701 84.5977 11.3968 84.691 11.0614H83.8204H82.9499C83.0509 11.4046 83.1209 11.701 83.152 11.9663C83.1908 12.2315 83.2064 12.5279 83.2064 12.8633V15.4064C83.2064 15.89 83.1908 16.2645 83.152 16.5219C83.1131 16.7871 83.0509 17.0134 82.9499 17.2006H83.8204H84.691C84.5977 17.0056 84.5278 16.7793 84.4889 16.5141C84.45 16.2489 84.4267 15.8822 84.4267 15.3986V14.4313H86.572V15.3986C86.572 15.8822 86.5565 16.2567 86.5176 16.5141C86.4788 16.7793 86.4088 17.0056 86.3155 17.1928H87.1939H88.0644C87.9712 16.9978 87.8934 16.7715 87.8623 16.5063C87.8157 16.2567 87.8002 15.8822 87.8002 15.4064ZM76.3118 11.9975C76.6849 12.0833 77.128 12.2237 77.6565 12.4265L77.8508 11.7478L78.0452 11.0692H75.519H73.4358L73.1871 11.7868L72.9461 12.4967C73.3736 12.2705 73.9022 12.1145 74.5551 12.0131L74.8971 11.9741V15.4064C74.8971 15.8744 74.8738 16.2333 74.8349 16.4985C74.7961 16.7637 74.7183 16.9978 74.6095 17.2006H75.5112H76.4128C76.304 16.99 76.2263 16.7481 76.1797 16.4829C76.1408 16.2177 76.1175 15.8588 76.1175 15.3986V11.9507L76.3118 11.9975Z" fill="white"/>
<path fill-rule="evenodd" clip-rule="evenodd" d="M99.8094 0H19.2897C19.1809 0.39784 19.0876 0.819083 19.0177 1.26373C18.9399 2.06721 18.87 3.22172 18.87 4.67267V8.08161L21.6138 5.47615C22.5077 5.25773 23.2461 5.17972 23.9146 5.17972C25.5547 5.17972 26.7362 5.54636 27.63 6.41224C28.4462 7.28593 28.897 8.51845 28.897 10.18V16.1242C28.897 16.3816 28.897 16.6157 28.9048 16.8419C29.5111 17.4581 30.1174 17.9028 30.7858 18.2304C31.4543 18.519 32.2005 18.7375 32.869 18.7375C33.6074 18.7375 34.2059 18.5191 34.649 18.1602C35.092 17.8716 35.3175 17.4347 35.3175 16.8575C35.3175 16.4986 35.1698 16.0618 34.7967 15.625C34.4236 15.2583 33.6851 14.7513 32.6436 14.096C31.3844 13.2301 30.4205 12.4344 29.8997 11.7012C29.379 11.0459 29.0836 10.3282 29.0836 9.44674C29.0836 8.22202 29.6743 7.20012 30.8636 6.33423C32.0528 5.53855 33.4597 5.17192 35.2397 5.17192C35.9082 5.17192 36.5067 5.17192 36.9498 5.24212C37.4006 5.39034 37.9913 5.53075 38.5821 5.74918V8.65106C38.0613 8.22202 37.5405 7.85538 37.0197 7.56676C36.4989 7.35614 35.9082 7.27813 35.2397 7.27813C34.5713 7.27813 33.9805 7.41854 33.4597 7.70717C33.0167 7.9958 32.7913 8.43264 32.7913 8.86949C32.7913 9.37654 32.9389 9.74317 33.2343 10.102C33.5297 10.5389 34.1204 10.9835 35.0143 11.553C36.4912 12.5046 37.5405 13.2925 38.1313 14.018C38.652 14.7435 38.9474 15.5392 38.9474 16.3348C38.9474 17.6376 38.4266 18.7297 37.3928 19.6034C36.2735 20.399 34.9444 20.8359 33.3043 20.8359C32.4182 20.8359 31.672 20.8359 31.0035 20.6877C30.5915 20.6409 30.063 20.5473 29.48 20.399C29.5111 20.4458 29.5266 20.5004 29.5577 20.5395H24.5131C24.8085 20.0324 25.0261 19.5254 25.1038 18.8701C25.2515 18.2148 25.3215 17.2709 25.3215 16.1164V10.5311C25.3215 9.65737 25.0261 9.0099 24.5831 8.57306C24.0623 8.13621 23.3238 7.9958 22.3522 7.9958C21.6838 7.9958 20.7899 8.13621 19.6784 8.57306L18.8622 8.93969V16.1164C18.8622 17.2787 18.9399 18.2226 19.0099 18.7999C19.1576 19.4551 19.383 20.0324 19.6006 20.5395H14.4783C14.4783 20.5395 14.4783 20.5317 14.486 20.5317C13.8176 20.7267 13.0791 20.8281 12.2708 20.8281C10.413 20.8281 8.78072 20.321 7.44378 19.3069V20.9061C7.44378 21.7018 7.44378 22.4272 7.59146 23.0825C7.64587 23.5506 7.77801 24.0576 7.95679 24.6271C9.69793 25.5007 11.6645 26 13.7476 26H99.8094C106.953 26 112.767 20.165 112.767 12.9961C112.767 5.83498 106.953 0 99.8094 0ZM7.44378 8.08161L9.89225 5.69457L10.3353 5.47615C10.8561 5.25773 11.5246 5.17972 12.3407 5.17972C13.46 5.17972 14.4472 5.42934 15.3022 5.91299V4.23582C15.3022 3.21392 15.2245 2.42604 15.0768 1.77078C15.0068 1.18572 14.8203 0.592859 14.5638 0H13.7476C9.39478 0 5.54719 2.16082 3.19199 5.46835H7.44378V8.08161ZM99.8094 24.7363H49.3398V24.7207C43.549 23.9874 39.064 19.0183 39.064 13.0039C39.064 6.9895 43.549 2.0282 49.3398 1.28713V1.27153H99.8094C106.253 1.27153 111.5 6.53705 111.5 13.0039C111.492 19.4785 106.253 24.7363 99.8094 24.7363ZM10.7861 8.0114C10.1177 8.0114 9.37146 8.08161 8.48535 8.37024C8.18998 8.51845 7.81688 8.65887 7.44378 8.87729V17.1461C8.25994 18.012 9.22378 18.4488 10.413 18.4488C11.8977 18.4488 13.0791 18.012 13.8331 17.1461C14.6415 16.2022 15.0923 14.9697 15.0923 13.3081C15.0923 11.6388 14.6415 10.336 13.9031 9.39214C13.1646 8.44824 12.0453 8.0114 10.7861 8.0114ZM3.10649 5.60096C1.64518 7.70717 0.790161 10.258 0.790161 13.0117C0.790161 16.1788 1.92501 19.0807 3.80605 21.3429C3.80605 21.2025 3.80605 21.0699 3.80605 20.9295V9.89919C3.80605 9.10351 3.80605 8.37804 3.65837 7.72277C3.58064 7.09871 3.37854 6.41224 3.10649 5.60096Z" fill="white"/>
</svg>
