<svg width="82" height="82" viewBox="0 0 82 82" fill="none" xmlns="http://www.w3.org/2000/svg">
<path d="M62.2659 59.8533L60.139 58.5721L63.9187 52.294C67.2083 46.8262 69.0405 40.5639 69.2166 34.1835C69.3832 28.0847 67.378 22.1016 63.5695 17.3317C60.1326 13.0299 55.5105 9.98692 50.2027 8.53306C43.8124 6.77776 37.0056 6.56317 30.5161 7.90845L21.7553 9.72458C22.3478 11.9924 24.3498 13.6836 26.7682 13.815L33.184 14.1641C35.6151 14.2955 37.8061 15.628 39.0457 17.7228L47.0599 31.2913C47.7485 32.4605 49.0202 33.1459 50.3751 33.0723C52.3354 32.9698 54.2413 33.825 55.4681 35.3593L55.8717 35.8622C57.454 37.8386 57.9089 40.4491 57.0921 42.845L56.365 44.9879C55.4553 47.6561 53.0594 49.5972 50.2598 49.9303L48.2995 50.1673L48.0048 47.7009L49.9651 47.4671C51.8229 47.2461 53.4117 45.9585 54.0171 44.1871L54.7442 42.0442C55.2855 40.4554 54.9844 38.7225 53.9338 37.4125L53.5302 36.9064C52.8031 35.9967 51.6692 35.4874 50.5065 35.5483C48.2226 35.6668 46.0862 34.5201 44.9234 32.5534L36.9092 18.9849C36.0924 17.6043 34.651 16.7299 33.0495 16.6402L26.6336 16.2911C22.5945 16.0732 19.3625 12.8605 19.1127 8.82454L19.0454 7.75149L30.0129 5.4773C36.8836 4.05509 44.0939 4.28256 50.8589 6.13715C56.6791 7.73549 61.7428 11.0699 65.5066 15.782C69.6802 21.0095 71.8776 27.5695 71.6951 34.2541C71.5093 41.0576 69.5554 47.739 66.0448 53.5725L62.2659 59.8533Z" fill="#449EDA"/>
<path d="M23.3479 68.7003C22.4735 68.7003 21.6214 68.4281 20.8975 67.9124L19.1358 66.6471C17.5247 65.494 16.9321 63.335 17.7264 61.5189L18.5112 59.7315L16.4612 57.4765C16.128 57.1114 15.9583 56.6406 15.9839 56.1472C16.0095 55.654 16.2273 55.1992 16.5925 54.8724L18.0083 53.6039L15.6156 52.1145C14.8724 51.65 14.5617 50.7211 14.8724 49.9011L16.112 46.6339L12.2779 43.9913C11.5155 43.4692 11.0319 42.6396 10.9454 41.7203C10.8621 40.8042 11.1856 39.9009 11.839 39.2475L19.9429 31.1148C20.2952 30.7624 20.4778 30.2756 20.449 29.7823L20.4426 29.667C20.1863 25.41 20.9199 21.0791 22.5662 17.1456L22.6047 17.0591L24.8949 18.0104L24.8565 18.1001C23.3574 21.6876 22.6848 25.6371 22.9186 29.5195L22.925 29.6316C22.9987 30.8327 22.5502 32.0147 21.7014 32.8667L13.5975 40.9995C13.4181 41.1789 13.4085 41.3838 13.4181 41.4928C13.4277 41.6017 13.4758 41.8035 13.684 41.9476L17.9345 44.8752C18.636 45.3557 18.9115 46.2462 18.6104 47.0405L17.3804 50.2885L20.0486 51.9541C20.5419 52.2616 20.8558 52.7741 20.907 53.3538C20.9551 53.9336 20.7373 54.4909 20.3016 54.8817L18.7321 56.2878L20.6283 58.3699C21.1152 58.9048 21.2401 59.68 20.9518 60.343L20.0005 62.5147C19.6706 63.2642 19.914 64.1547 20.5802 64.6319L22.3419 65.894C22.7071 66.1534 23.1523 66.2655 23.5975 66.2015L29.8308 65.3142L30.18 67.771L23.9467 68.6583C23.7449 68.6871 23.5463 68.6999 23.3477 68.6999L23.3479 68.7003Z" fill="#449EDA"/>
<path d="M52.3907 75.0685C52.3106 74.7738 52.1953 74.3734 52.0383 73.8865C51.6379 72.6085 50.9332 70.6386 49.8057 68.4444L49.5238 67.8967L49.7897 67.3425C50.0748 66.7468 50.2253 66.0805 50.2253 65.4174C50.2253 62.9574 48.2234 60.9555 45.7634 60.9555C45.5584 60.9555 45.347 60.9683 45.1516 60.9971L44.5494 61.0868L44.1106 60.664C42.666 59.2707 41.0868 58.063 39.4147 57.0765C38.7036 56.6569 37.9349 56.2597 37.07 55.8657C33.6395 54.325 29.8854 53.5818 25.9295 53.6555L25.8815 51.1764C30.2089 51.0899 34.3184 51.9099 38.0954 53.6075C39.0435 54.0399 39.8859 54.4755 40.6771 54.94C42.3555 55.9297 43.9475 57.1214 45.4176 58.4826C45.5298 58.4762 45.6451 58.473 45.7636 58.473C49.5913 58.473 52.7047 61.5897 52.7047 65.4175C52.7047 66.2375 52.5574 67.0606 52.2723 67.8294C53.3326 69.9723 54.0084 71.8782 54.4024 73.137C54.5722 73.6559 54.7003 74.1108 54.7836 74.4055L52.3907 75.0685Z" fill="#449EDA"/>
<path d="M47.0312 77.4449C46.9543 77.1566 46.871 76.8715 46.775 76.5769C46.3297 75.1451 45.7436 73.6877 45.0677 72.3199C41.5667 71.9676 38.8248 69.0078 38.8248 65.4171C38.8248 65.0456 38.8536 64.6804 38.9081 64.3249C37.7678 63.3703 36.5314 62.5408 35.2181 61.8617C34.8305 61.6535 34.507 61.4934 34.1803 61.3492C31.6082 60.1896 28.815 59.5651 25.8745 59.4882L25.9386 57.009C29.209 57.0955 32.3224 57.7938 35.1923 59.0846C35.5606 59.248 35.9514 59.4402 36.3742 59.6644C38.0687 60.5452 39.6638 61.6503 41.102 62.9508L41.6754 63.4665L41.4672 64.2064C41.3615 64.5844 41.307 64.9912 41.307 65.4172C41.307 67.874 43.3058 69.8728 45.7626 69.8728H46.5922L46.9413 70.5358C47.8382 72.2367 48.5781 74.0176 49.1418 75.8337C49.2476 76.1605 49.3404 76.4776 49.4269 76.8011L47.0312 77.4449Z" fill="#449EDA"/>
<path d="M58.0419 64.9079L58.5715 62.9312L53.6457 61.6113L53.1161 63.588L58.0419 64.9079Z" fill="#449EDA"/>
<path d="M37.7258 71.3561L38.2555 69.3794L33.3297 68.0595L32.8 70.0362L37.7258 71.3561Z" fill="#449EDA"/>
<path d="M39.0924 78.0785L40.4165 73.1367L38.4462 72.6088L37.122 77.5506L39.0924 78.0785Z" fill="#449EDA"/>
<path d="M52.9049 60.3534L54.229 55.4116L52.2587 54.8837L50.9345 59.8255L52.9049 60.3534Z" fill="#449EDA"/>
</svg>
