<svg width="69" height="75" viewBox="0 0 69 75" fill="none" xmlns="http://www.w3.org/2000/svg">
<path d="M14.258 54.8054C8.56959 49.1104 8.56959 39.8652 14.258 34.1701L33.909 14.4964C39.5974 8.80134 48.8319 8.80134 54.5203 14.4964C60.2088 20.1914 60.2088 29.4366 54.5203 35.1316L34.8694 54.8054C29.1809 60.5004 19.9465 60.5004 14.258 54.8054Z" stroke="#fff" stroke-width="2.5" stroke-miterlimit="10"/>
<path d="M17.804 51.3294C13.8147 47.3355 13.8147 40.9008 17.804 36.9069L36.6423 18.0467C40.6316 14.0528 47.0588 14.0528 51.0481 18.0467C55.0374 22.0406 55.0374 28.4753 51.0481 32.4692L32.1359 51.3294C28.2205 55.2494 21.7194 55.2494 17.804 51.3294Z" stroke="#fff" stroke-width="2.5" stroke-miterlimit="10"/>
<path d="M32.5055 33.5785C32.5055 35.1317 30.2153 35.1317 30.2153 33.5785C30.2153 32.0253 32.5055 32.0253 32.5055 33.5785Z" fill="#fff"/>
<path d="M49.7923 25.5169C49.7923 27.0701 47.5022 27.0701 47.5022 25.5169C47.5022 23.9638 49.7923 23.9638 49.7923 25.5169Z" fill="#fff"/>
<path d="M41.7399 33.5785C41.7399 35.1317 39.4497 35.1317 39.4497 33.5785C39.4497 32.0253 41.7399 32.0253 41.7399 33.5785Z" fill="#fff"/>
<path d="M22.089 44.0072C22.089 45.5604 19.7988 45.5604 19.7988 44.0072C19.7988 42.454 22.089 42.454 22.089 44.0072Z" fill="#fff"/>
<path d="M31.3234 44.0072C31.3234 45.5604 29.0332 45.5604 29.0332 44.0072C29.0332 42.454 31.3234 42.454 31.3234 44.0072Z" fill="#fff"/>
<path d="M54.2249 14.7925L61.2431 7.76611" stroke="#fff" stroke-width="2.5" stroke-miterlimit="10"/>
<path d="M3.39844 69.0802L4.21107 66.3437C5.76246 61.2403 9.38238 57.0985 14.1843 54.8057" stroke="#fff" stroke-width="2.5" stroke-miterlimit="10"/>
<path d="M27.5557 7.24805L34.6477 14.2744" stroke="#fff" stroke-width="2.5" stroke-miterlimit="10"/>
<path d="M21.8672 12.9434L28.8854 20.0437" stroke="#fff" stroke-width="2.5" stroke-miterlimit="10"/>
<path d="M16.105 18.7124L23.1232 25.8127" stroke="#fff" stroke-width="2.5" stroke-miterlimit="10"/>
<path d="M10.3425 24.4814L17.3607 31.5078" stroke="#fff" stroke-width="2.5" stroke-miterlimit="10"/>
<path d="M54.7417 34.3921L61.7599 41.4924" stroke="#fff" stroke-width="2.5" stroke-miterlimit="10"/>
<path d="M48.9795 40.1611L56.0716 47.1875" stroke="#fff" stroke-width="2.5" stroke-miterlimit="10"/>
<path d="M43.2173 45.9302L50.3094 52.9565" stroke="#fff" stroke-width="2.5" stroke-miterlimit="10"/>
<path d="M37.5288 51.6992L44.547 58.7256" stroke="#fff" stroke-width="2.5" stroke-miterlimit="10"/>
<path d="M59.0269 22.7803H69.0001" stroke="#fff" stroke-width="2.5" stroke-miterlimit="10"/>
<path d="M46.2463 9.9848V0" stroke="#fff" stroke-width="2.5" stroke-miterlimit="10"/>
<path d="M9.97323 46.2998H0" stroke="#fff" stroke-width="2.5" stroke-miterlimit="10"/>
<path d="M22.7537 59.0952V69.08" stroke="#fff" stroke-width="2.5" stroke-miterlimit="10"/>
<path d="M2.88651 71L2 73.7366" stroke="#fff" stroke-width="2.5" stroke-miterlimit="10"/>
</svg>
