<svg width="25" height="24" viewBox="0 0 25 24" fill="none" xmlns="http://www.w3.org/2000/svg">
<path d="M21.0405 2.28193C20.1255 1.36852 19.076 0.599224 17.9277 0C19.1796 2.40179 19.6315 5.13733 19.2217 7.81275C18.8104 10.4882 17.5568 12.9629 15.6425 14.8771C13.7282 16.7898 11.2535 18.0433 8.57803 18.4531C5.90254 18.8628 3.167 18.4094 0.766846 17.1591C1.36446 18.3073 2.13376 19.3568 3.0488 20.2734C5.4344 22.659 8.67045 24 12.0437 24C15.4188 24 18.6546 22.659 21.0402 20.2734C23.4258 17.8879 24.7668 14.6519 24.7668 11.2787C24.7668 7.90355 23.4258 4.66783 21.0402 2.28222L21.0405 2.28193Z" fill="white"/>
</svg>
