<svg width="27" height="27" viewBox="0 0 27 27" fill="none" xmlns="http://www.w3.org/2000/svg">
<path d="M11.1564 22.4091C8.17908 22.4239 5.3187 21.2532 3.20622 19.1564C1.09264 17.0597 -0.0991169 14.2078 -0.107487 11.2314C-0.116979 8.25407 1.05899 5.39585 3.16005 3.28742C5.26098 1.17804 8.11509 -0.00847241 11.0913 -0.0117124C14.0686 -0.0148765 16.9246 1.16638 19.0298 3.27149C21.1339 5.37665 22.3163 8.23274 22.313 11.2089C22.3141 14.1727 21.1402 17.015 19.0487 19.1137C16.9573 21.2136 14.1191 22.398 11.1566 22.4085L11.1564 22.4091ZM11.1564 2.15909C8.7538 2.14432 6.44406 3.08616 4.73658 4.77682C3.02905 6.46748 2.06507 8.76661 2.05451 11.1693C2.04502 13.5719 2.99109 15.8795 4.6849 17.584C6.37767 19.2884 8.68009 20.2492 11.0826 20.2545C13.485 20.2597 15.7908 19.3095 17.4918 17.6125C19.193 15.9155 20.1496 13.6121 20.1496 11.2094C20.1549 8.81737 19.211 6.5214 17.5245 4.82445C15.8391 3.12744 13.5482 2.16875 11.1563 2.15925L11.1564 2.15909Z" fill="#000"/>
<path d="M25.4718 26.9982L18.0068 19.5732L19.5351 18.0449L27 25.4667L25.4718 26.9982Z" fill="#000"/>
</svg>
