<svg width="55" height="68" viewBox="0 0 55 68" fill="none" xmlns="http://www.w3.org/2000/svg">
<path d="M54.123 11.7412L27.999 0.470948C27.6563 0.321533 27.2695 0.321533 26.9268 0.470948L0.80277 11.7412C0.313515 11.9551 4.47034e-05 12.4385 4.47034e-05 12.9716V32.5392C-0.0146035 40.6189 3.57132 48.2861 9.78529 53.4544L26.5988 67.4704V67.4675C27.0939 67.8806 27.8146 67.8806 28.3127 67.4675L45.1412 53.4545C51.358 48.2865 54.9497 40.6197 54.9377 32.5392V12.9837C54.9406 12.4447 54.6213 11.9554 54.1233 11.7416L54.123 11.7412ZM52.248 32.5387C52.2539 39.8278 49.0137 46.7392 43.4093 51.3974L27.4628 64.6949L11.508 51.3974C5.90059 46.7393 2.66029 39.8279 2.66629 32.5387V13.8532L27.4628 3.1597L52.251 13.8532L52.248 32.5387Z" fill="#449EDA"/>
<path d="M26.9266 6.30689L6.16065 15.2656C5.6714 15.4795 5.355 15.9629 5.355 16.4961V32.5393C5.34621 39.0315 8.23192 45.1896 13.224 49.3378L26.6152 60.4911C27.1133 60.9042 27.834 60.9042 28.3291 60.4911L41.7204 49.3378H41.7233C46.7155 45.1894 49.6013 39.0313 49.5923 32.5393V16.4961C49.5923 15.9629 49.2759 15.4795 48.7896 15.2656L27.9974 6.30689C27.6546 6.15747 27.2679 6.15747 26.9251 6.30689H26.9266ZM46.8924 17.3754V32.5396C46.9012 38.2379 44.3699 43.6434 39.9871 47.2846L27.4629 57.7231L14.9356 47.2756C10.5558 43.6311 8.02455 38.2291 8.03333 32.5306V17.3754L27.4628 8.99339L46.8924 17.3754Z" fill="#449EDA"/>
<path d="M22.9275 21.9516V27.0053H17.8709C17.1297 27.0053 16.532 27.6059 16.532 28.3442V34.7368C16.532 35.0942 16.6726 35.434 16.9246 35.686C17.1736 35.935 17.5164 36.0786 17.8708 36.0786H22.9275V41.1352C22.9275 41.4897 23.0681 41.8295 23.3201 42.0815C23.572 42.3334 23.9119 42.4741 24.2663 42.4741H30.6589C31.0134 42.4741 31.3532 42.3334 31.6052 42.0815C31.8571 41.8295 31.9977 41.4897 31.9977 41.1352V36.0786H37.0544C37.4089 36.0786 37.7517 35.935 38.0007 35.686C38.2526 35.434 38.3932 35.0942 38.3932 34.7368V28.3442C38.3932 27.9897 38.2526 27.647 38.0007 27.3979C37.7516 27.146 37.4089 27.0054 37.0544 27.0054H31.9977V21.9516C31.9977 21.5942 31.8571 21.2544 31.6052 21.0024C31.3532 20.7534 31.0134 20.6099 30.6589 20.6099H24.2663C23.5281 20.6099 22.9274 21.2104 22.9274 21.9517L22.9275 21.9516ZM25.6053 28.3441V23.2904H29.3172V28.3441H29.3201C29.3201 28.6986 29.4607 29.0414 29.7097 29.2904C29.9617 29.5424 30.3045 29.683 30.6589 29.683H35.7156V33.3978H30.6589C29.9177 33.3978 29.32 33.9984 29.32 34.7367V39.7963H25.6052V34.7367C25.6052 34.3822 25.4646 34.0424 25.2156 33.7905C24.9636 33.5385 24.6208 33.3979 24.2664 33.3979H19.2097V29.683H24.2664C24.6209 29.683 24.9636 29.5424 25.2156 29.2905C25.4646 29.0414 25.6052 28.6987 25.6052 28.3442L25.6053 28.3441Z" fill="#449EDA"/>
</svg>
