<svg width="19" height="23" viewBox="0 0 19 23" fill="none" xmlns="http://www.w3.org/2000/svg">
<path d="M1.84879 10.8533H0V12.3657H1.84879V10.8533Z" fill="white"/>
<path d="M5.29483 12.9692H3.44604V14.4816H5.29483V12.9692Z" fill="white"/>
<path d="M5.29483 8.73755H3.44604V10.25H5.29483V8.73755Z" fill="white"/>
<path d="M8.74063 15.0854H6.89185V16.5979H8.74063V15.0854Z" fill="white"/>
<path d="M8.74063 10.8533H6.89185V12.3657H8.74063V10.8533Z" fill="white"/>
<path d="M8.74063 6.62158H6.89185V8.13399H8.74063V6.62158Z" fill="white"/>
<path d="M12.8189 17.8275H12.7877C11.8188 17.8231 10.8966 17.5981 10.0413 17.1637L10.7273 15.8161C11.371 16.1436 12.066 16.3106 12.7944 16.3151C13.2309 16.3173 13.6564 16.2594 14.0707 16.1436C16.0732 15.5867 17.4765 13.7468 17.4876 11.6686C17.4987 9.59264 16.1132 7.7394 14.122 7.16251C13.7077 7.04 13.2777 6.97763 12.8456 6.9754C12.1151 6.96872 11.4178 7.13355 10.7719 7.45208L10.1014 6.09779C10.959 5.67012 11.89 5.45851 12.8523 5.46296C13.427 5.46519 13.9972 5.5476 14.5429 5.70798C17.1824 6.47197 19.0156 8.92662 19 11.6754C18.9844 14.4285 17.1267 16.8631 14.4783 17.6006C13.9415 17.7498 13.3824 17.8278 12.8188 17.8278L12.8189 17.8275Z" fill="white"/>
<path d="M10.4757 22.6323C8.3507 22.6323 6.43736 21.1956 5.8916 19.1062L7.35726 18.7253C7.76488 20.2912 9.23501 21.2891 10.8543 21.0976C12.3044 20.9238 13.4738 19.7477 13.6386 18.2976C13.6854 17.8789 13.6542 17.4668 13.5451 17.0703L15.0063 16.6716C15.1644 17.253 15.2112 17.8566 15.1422 18.4692C14.8994 20.6075 13.1731 22.3449 11.0348 22.5988C10.8477 22.6211 10.6606 22.6323 10.4757 22.6323L10.4757 22.6323Z" fill="white"/>
<path d="M15.0597 6.64381L13.6029 6.22728C13.6831 5.94885 13.7254 5.65706 13.7254 5.36527C13.7299 4.50771 13.4024 3.70358 12.801 3.09549C12.1996 2.4874 11.3977 2.1488 10.5424 2.14435H10.5246C9.07895 2.14435 7.80935 3.1155 7.43288 4.50765L5.97168 4.11339C6.52854 2.05299 8.41293 0.622982 10.5491 0.631877C11.8098 0.638559 12.9903 1.13528 13.8768 2.0307C14.7611 2.92612 15.2467 4.11333 15.24 5.37188C15.2378 5.804 15.1754 6.23167 15.0596 6.64377L15.0597 6.64381Z" fill="white"/>
</svg>
