<svg width="19" height="23" viewBox="0 0 19 23" fill="none" xmlns="http://www.w3.org/2000/svg">
<path d="M1.84879 10.853H0V12.3654H1.84879V10.853Z" fill="#449EDA"/>
<path d="M5.29459 12.9692H3.4458V14.4816H5.29459V12.9692Z" fill="#449EDA"/>
<path d="M5.29459 8.73779H3.4458V10.2502H5.29459V8.73779Z" fill="#449EDA"/>
<path d="M8.74039 15.0854H6.8916V16.5979H8.74039V15.0854Z" fill="#449EDA"/>
<path d="M8.74039 10.853H6.8916V12.3654H8.74039V10.853Z" fill="#449EDA"/>
<path d="M8.74039 6.62158H6.8916V8.13399H8.74039V6.62158Z" fill="#449EDA"/>
<path d="M12.8186 17.8275H12.7875C11.8185 17.8231 10.8964 17.5981 10.041 17.1637L10.7271 15.8161C11.3708 16.1436 12.0658 16.3106 12.7941 16.3151C13.2307 16.3173 13.6561 16.2594 14.0705 16.1436C16.0729 15.5867 17.4762 13.7468 17.4874 11.6686C17.4985 9.59264 16.113 7.7394 14.1217 7.16251C13.7074 7.04 13.2775 6.97763 12.8454 6.9754C12.1148 6.96872 11.4176 7.13355 10.7716 7.45208L10.1012 6.09779C10.9587 5.67012 11.8898 5.45851 12.8521 5.46296C13.4267 5.46519 13.997 5.5476 14.5427 5.70798C17.1822 6.47197 19.0154 8.92662 18.9998 11.6754C18.9842 14.4285 17.1265 16.8631 14.4781 17.6006C13.9412 17.7498 13.3821 17.8278 12.8186 17.8278L12.8186 17.8275Z" fill="#449EDA"/>
<path d="M10.4757 22.6325C8.3507 22.6325 6.43736 21.1958 5.8916 19.1064L7.35726 18.7256C7.76488 20.2915 9.23501 21.2893 10.8543 21.0978C12.3044 20.9241 13.4738 19.748 13.6386 18.2979C13.6854 17.8791 13.6542 17.4671 13.5451 17.0706L15.0063 16.6719C15.1644 17.2532 15.2112 17.8569 15.1422 18.4694C14.8994 20.6077 13.1731 22.3452 11.0348 22.5991C10.8477 22.6214 10.6606 22.6325 10.4757 22.6325L10.4757 22.6325Z" fill="#449EDA"/>
<path d="M15.0597 6.64381L13.6029 6.22728C13.6831 5.94885 13.7254 5.65706 13.7254 5.36527C13.7299 4.50771 13.4024 3.70358 12.801 3.09549C12.1996 2.4874 11.3977 2.1488 10.5424 2.14435H10.5246C9.07895 2.14435 7.80935 3.1155 7.43288 4.50765L5.97168 4.11339C6.52854 2.05299 8.41293 0.622982 10.5491 0.631877C11.8098 0.638559 12.9903 1.13528 13.8768 2.0307C14.7611 2.92612 15.2467 4.11333 15.24 5.37188C15.2378 5.804 15.1754 6.23167 15.0596 6.64377L15.0597 6.64381Z" fill="#449EDA"/>
</svg>
