<svg width="71" height="65" viewBox="0 0 71 65" fill="none" xmlns="http://www.w3.org/2000/svg">
<path d="M67.2649 2.79979C65.5847 1.58075 63.1408 1.73313 61.7661 3.40932L8 62.5331C21.136 64.6665 33.3556 54.7617 37.7852 50.495L37.1742 44.7046L67.8759 8.89503C69.5561 7.06646 69.2506 4.3236 67.2649 2.79979Z" stroke="#fff" stroke-width="3" stroke-miterlimit="10" stroke-linecap="round"/>
<path d="M31.2172 62.9902H38.8544" stroke="#fff" stroke-width="3" stroke-miterlimit="10" stroke-linecap="square" stroke-linejoin="round"/>
<path d="M44.9642 62.9902H52.6015" stroke="#fff" stroke-width="3" stroke-miterlimit="10" stroke-linecap="square" stroke-linejoin="round"/>
<path d="M58.7112 62.9902H66.3484" stroke="#fff" stroke-width="3" stroke-miterlimit="10" stroke-linecap="square" stroke-linejoin="round"/>
<path d="M19.3902 27.0589L17.6255 25.2942L13.228 29.6917L14.9927 31.4564L19.3902 27.0589Z" fill="#fff"/>
<path d="M11.4564 34.9927L9.69165 33.228L5.29417 37.6255L7.05887 39.3902L11.4564 34.9927Z" fill="#fff"/>
<path d="M19.3889 37.6483L14.9772 33.2366L13.2182 34.9956L17.6299 39.4073L19.3889 37.6483Z" fill="#fff"/>
<path d="M11.4478 29.7072L7.03601 25.2954L5.27702 27.0544L9.68878 31.4662L11.4478 29.7072Z" fill="#fff"/>
</svg>
