<svg width="66" height="66" viewBox="0 0 66 66" fill="none" xmlns="http://www.w3.org/2000/svg">
<path d="M64.6711 28.5072C64.0614 27.8783 63.2192 27.5256 62.3442 27.5311C60.9551 27.5338 59.7165 28.4088 59.2516 29.7186H53.3152C52.8477 26.812 51.7676 24.0338 50.1489 21.5727L52.9871 18.1656C54.3653 19.1828 56.2958 18.964 57.4114 17.6652C58.5297 16.3664 58.4559 14.4277 57.2446 13.2164L52.5961 8.56797C51.3027 7.32386 49.2575 7.32386 47.9641 8.56797C46.8184 9.71093 46.6817 11.5239 47.6469 12.8254L44.2399 15.6637C41.779 14.0422 39.0035 12.9593 36.094 12.4836V6.55267C36.5506 6.39681 36.9662 6.13704 37.3053 5.79254C37.9342 5.18277 38.2869 4.34333 38.2815 3.46833C38.2787 1.6582 36.8104 0.189806 35.0002 0.187076H30.6252C29.7584 0.181607 28.9272 0.526142 28.3201 1.14412C27.6912 1.75388 27.3385 2.59333 27.344 3.46833C27.3494 4.85468 28.2244 6.08787 29.5315 6.54721V12.4836C26.6221 12.9593 23.8467 14.0422 21.3856 15.6637L17.9785 12.8226C18.9356 11.5211 18.8016 9.71639 17.6613 8.56797C16.3652 7.32932 14.3254 7.32932 13.0293 8.56797L8.38088 13.2164C7.16407 14.425 7.08749 16.3691 8.20588 17.6707C9.32427 18.9723 11.2575 19.1883 12.6356 18.1656L15.4766 21.5727C13.8578 24.0336 12.7777 26.8117 12.3102 29.7186H6.36565C6.20979 29.2619 5.95003 28.8463 5.60825 28.5072C4.99849 27.8783 4.15631 27.5256 3.28131 27.5311C1.47118 27.5338 0.00279412 29.0022 6.4116e-05 30.8123V35.1873C-0.00540428 36.0541 0.33913 36.8854 0.954374 37.4924C1.56414 38.1213 2.40631 38.474 3.28131 38.4686C4.66766 38.4631 5.90085 37.5881 6.36019 36.2811H12.2965C12.7723 39.1904 13.8552 41.9658 15.4766 44.427L12.6356 47.8395C11.3204 46.9262 9.54848 47.0574 8.38095 48.1512C7.10401 49.4309 7.10401 51.5036 8.38095 52.7832L13.0294 57.4316C14.2407 58.6457 16.1821 58.7223 17.4837 57.6039C18.7825 56.4855 18.9986 54.5551 17.9786 53.177L21.3856 50.3387L21.3884 50.3359C23.8493 51.9547 26.6247 53.0348 29.5315 53.5023V59.4469C29.0748 59.6027 28.6592 59.8625 28.3201 60.207C27.6912 60.8168 27.3385 61.6562 27.344 62.5312C27.3467 64.3413 28.8151 65.8097 30.6252 65.8125H35.0002C36.8076 65.8043 38.2733 64.3386 38.2815 62.5312C38.276 61.1449 37.401 59.9117 36.094 59.4523V53.5023C39.0006 53.0293 41.776 51.952 44.2371 50.3359L47.6469 53.177C46.6297 54.5551 46.8484 56.4829 48.1472 57.6012C49.4461 58.7168 51.3847 58.643 52.5961 57.4316L55.8035 54.2242V54.2215C56.014 54.0192 56.1344 53.7375 56.1371 53.4449C56.1371 53.1523 56.0222 52.8707 55.8172 52.6629C55.6093 52.4578 55.3277 52.3402 55.0351 52.343C54.7398 52.3457 54.4609 52.466 54.2585 52.6766L51.0484 55.884C50.6191 56.2968 49.9383 56.2968 49.5117 55.884C49.0933 55.4519 49.0933 54.7656 49.5117 54.3363L50.0039 53.8441C50.0176 53.8305 50.0203 53.8113 50.034 53.7977C50.0449 53.7867 50.0613 53.7813 50.0695 53.7703C50.0996 53.7238 50.1269 53.6746 50.1488 53.6227C50.1898 53.5625 50.2254 53.4996 50.2527 53.4313C50.2746 53.3629 50.2883 53.2945 50.2937 53.2262C50.3265 53.0895 50.3211 52.9473 50.2746 52.8133C50.2609 52.7477 50.2418 52.682 50.2172 52.6164C50.1816 52.5508 50.1406 52.4879 50.0914 52.4305C50.0668 52.384 50.0367 52.3375 50.0039 52.2965C49.993 52.2855 49.9765 52.2801 49.9629 52.2691C49.9519 52.2582 49.9437 52.2391 49.9301 52.2281L46.0554 49.0015C46.5585 48.5887 47.048 48.1566 47.5101 47.6945C47.9722 47.2324 48.4015 46.7429 48.8171 46.2398L52.0437 50.1145C52.0546 50.1281 52.0711 50.1309 52.082 50.1445C52.0929 50.1582 52.0984 50.1746 52.1121 50.1883C52.175 50.2457 52.2461 50.2922 52.3226 50.3305C52.4812 50.459 52.6808 50.5219 52.8832 50.5109C53.0636 50.5192 53.2414 50.4699 53.389 50.3688C53.4574 50.3387 53.523 50.3004 53.5832 50.2567C53.5968 50.2457 53.6023 50.2293 53.616 50.2184C53.6296 50.2074 53.646 50.202 53.657 50.191L54.1464 49.6988H54.1492C54.4609 49.3871 54.9312 49.2942 55.3413 49.461C55.7488 49.6277 56.0167 50.0242 56.0222 50.4672C56.0222 50.6449 55.9757 50.8199 55.891 50.9758C55.6038 51.5063 55.8007 52.1707 56.3312 52.4578C56.8644 52.7477 57.5288 52.5481 57.816 52.0176C58.5406 50.6695 58.2343 48.9988 57.0749 47.9953C55.9183 46.9918 54.2203 46.9262 52.9898 47.834L50.1488 44.4242C51.7648 41.9633 52.8422 39.1879 53.3152 36.2811H59.2488C59.4074 36.7378 59.6699 37.1534 60.0172 37.4925C60.6269 38.1214 61.4691 38.4741 62.3441 38.4686C64.1543 38.4659 65.6226 36.9975 65.6254 35.1874V30.8124C65.6308 29.9456 65.2863 29.1143 64.6711 28.5073L64.6711 28.5072ZM49.9298 13.7715C49.9435 13.7606 49.949 13.7442 49.9626 13.7305C49.9763 13.7196 49.99 13.7168 50.0037 13.7032C50.0365 13.6594 50.0665 13.6157 50.0912 13.5692C50.1404 13.5117 50.1814 13.4489 50.2169 13.3805C50.2415 13.3176 50.2607 13.252 50.2744 13.1836C50.3208 13.0524 50.3263 12.9102 50.2935 12.7735C50.288 12.7051 50.2744 12.634 50.2525 12.5684C50.2251 12.5 50.1896 12.4371 50.1486 12.377C50.1267 12.325 50.0994 12.2758 50.0693 12.2293C50.0583 12.2156 50.0419 12.2102 50.031 12.1992C50.0201 12.1856 50.0146 12.1692 50.0037 12.1555L49.5115 11.6633C49.0849 11.2395 49.0822 10.5476 49.506 10.1211C49.9298 9.69457 50.6217 9.69184 51.0482 10.1157L55.6966 14.7641C56.1204 15.1879 56.1204 15.8769 55.6966 16.3008C55.2646 16.7192 54.5809 16.7192 54.149 16.3008L53.6568 15.8086C53.6431 15.7949 53.6267 15.7922 53.6158 15.7813C53.6021 15.7703 53.5966 15.7539 53.5829 15.743C53.5365 15.7129 53.4872 15.6856 53.438 15.6637C53.3751 15.6227 53.3122 15.5871 53.2439 15.5598C52.9759 15.486 52.6915 15.4969 52.4317 15.5953C52.3661 15.6309 52.3032 15.6719 52.2458 15.7184C52.1993 15.7457 52.1528 15.7758 52.1091 15.8086C52.0982 15.8196 52.0927 15.836 52.0818 15.8496C52.0708 15.8633 52.0517 15.8688 52.0407 15.8824L48.8169 19.7516C48.4013 19.2484 47.9693 18.7617 47.5071 18.2996C47.045 17.8375 46.5583 17.4055 46.0579 16.9926L49.9298 13.7715ZM13.5816 15.8824C13.5707 15.8688 13.5543 15.8633 13.5406 15.8496C13.5297 15.836 13.5242 15.8195 13.5133 15.8086H13.516C13.4722 15.7758 13.4258 15.7457 13.3793 15.7184C13.3219 15.6719 13.259 15.6309 13.1933 15.5953C13.1305 15.5707 13.0648 15.5516 12.9992 15.5379C12.868 15.4914 12.7258 15.4832 12.589 15.5188C12.518 15.5242 12.4469 15.5379 12.3785 15.5598C12.3129 15.5871 12.25 15.6199 12.1926 15.6609C12.1406 15.6828 12.0887 15.7102 12.0422 15.743C12.0285 15.7539 12.023 15.7703 12.0094 15.7813C11.9957 15.7922 11.9793 15.7977 11.9683 15.8086L11.4789 16.3008C11.0496 16.7274 10.3578 16.7274 9.92854 16.3008C9.72072 16.0984 9.60315 15.8223 9.60315 15.5324C9.60315 15.2425 9.72073 14.9664 9.92854 14.764L14.577 10.1156C15.0063 9.7027 15.6871 9.7027 16.1137 10.1156C16.532 10.5476 16.532 11.234 16.1137 11.6632L15.6215 12.1554C15.6078 12.1691 15.6051 12.1855 15.5941 12.1992C15.5832 12.2128 15.5668 12.2156 15.5559 12.2292C15.5258 12.2757 15.4984 12.3249 15.4766 12.3769C15.4355 12.437 15.4 12.4999 15.3727 12.5683C15.3508 12.6339 15.3371 12.705 15.3316 12.7734C15.2988 12.9101 15.3043 13.0523 15.3508 13.1835C15.3644 13.2519 15.3836 13.3175 15.4082 13.3804C15.4437 13.4488 15.4848 13.5117 15.534 13.5691C15.5586 13.6156 15.5887 13.6593 15.6215 13.7031C15.6324 13.714 15.6488 13.7195 15.6625 13.7304C15.6734 13.7413 15.6816 13.7605 15.6953 13.7714L19.5672 16.9953C19.0668 17.4082 18.5773 17.8429 18.1179 18.3023C17.6558 18.7644 17.2238 19.2512 16.8082 19.7543L13.5816 15.8824ZM15.6953 52.2278C15.6816 52.2388 15.6761 52.2552 15.6625 52.2689C15.6488 52.2798 15.6351 52.2825 15.6214 52.2962C15.5886 52.34 15.5585 52.3837 15.5339 52.4302C15.4847 52.4876 15.4437 52.5505 15.4082 52.6189C15.3835 52.6818 15.3644 52.7474 15.3507 52.8157C15.3043 52.947 15.2988 53.0892 15.3316 53.2259C15.3371 53.2943 15.3507 53.3653 15.3726 53.431C15.4 53.4993 15.4355 53.5622 15.4765 53.6224C15.4984 53.6743 15.5257 53.7236 15.5558 53.77C15.5668 53.781 15.5804 53.7864 15.5914 53.7974C15.605 53.8111 15.6078 53.8302 15.6214 53.8439L16.1136 54.3361C16.5402 54.7599 16.5429 55.4517 16.1191 55.8782C15.6953 56.3048 15.0034 56.3075 14.5769 55.8837L9.9285 51.2353C9.50467 50.8114 9.50467 50.1224 9.9285 49.6986C10.3605 49.2802 11.0442 49.2802 11.4761 49.6986L11.9683 50.1907C11.982 50.2044 11.9984 50.2071 12.0093 50.2181C12.023 50.229 12.0285 50.2454 12.0421 50.2564C12.1023 50.3001 12.1679 50.3384 12.2363 50.3685C12.5207 50.538 12.8734 50.5572 13.1741 50.4177C13.2206 50.3904 13.2644 50.3603 13.3054 50.3302C13.3792 50.2919 13.4503 50.2454 13.5159 50.1907C13.5296 50.1771 13.5323 50.1607 13.546 50.147C13.557 50.1333 13.5734 50.1306 13.5843 50.1169L16.8081 46.2478C17.2238 46.7509 17.6558 47.2377 18.1179 47.6997C18.58 48.1619 19.0668 48.5939 19.5671 49.0068L15.6953 52.2278ZM63.4374 35.187C63.4374 35.7913 62.9479 36.2808 62.3436 36.2808C62.0483 36.2808 61.7667 36.1605 61.5643 35.9472C61.362 35.7476 61.2471 35.4714 61.2499 35.1871C61.2499 34.8972 61.135 34.6183 60.9299 34.4132C60.7249 34.2081 60.446 34.0933 60.1561 34.0933H52.3798C52.3251 34.0988 52.2704 34.1097 52.2157 34.1261C52.1528 34.1343 52.0872 34.1452 52.0271 34.1644C51.9478 34.1945 51.8712 34.2327 51.8001 34.282C51.7563 34.3093 51.7126 34.3367 51.6716 34.3695C51.6114 34.4269 51.5567 34.4898 51.5075 34.5581C51.472 34.6046 51.4392 34.6511 51.4118 34.7031C51.379 34.7742 51.3544 34.848 51.338 34.9245C51.3216 34.9683 51.3052 35.0175 51.2942 35.0667C50.8267 39.2585 48.9454 43.1657 45.9622 46.1491C42.979 49.1323 39.0715 51.0108 34.877 51.4784C34.8278 51.4921 34.7758 51.5085 34.7266 51.5277C34.6555 51.5413 34.5872 51.5659 34.5215 51.5933C34.4614 51.6261 34.4039 51.6644 34.3493 51.7109C34.2317 51.7847 34.1387 51.8913 34.0758 52.0144C34.0375 52.0718 34.0047 52.1347 33.9801 52.2003C33.9583 52.2687 33.9446 52.3398 33.9364 52.4109C33.9227 52.4628 33.9118 52.5148 33.9063 52.5667V60.343C33.9063 60.6329 34.0211 60.9118 34.2262 61.1169C34.4313 61.322 34.7102 61.4368 35.0001 61.4368C35.6044 61.4368 36.0938 61.9263 36.0938 62.5306C36.0938 62.8259 35.9735 63.1075 35.7602 63.3099C35.5579 63.5122 35.2844 63.627 35.0001 63.6243H30.6251C30.0208 63.6243 29.5313 63.1349 29.5313 62.5306C29.5313 62.2353 29.6517 61.9536 29.8649 61.7513C30.0673 61.5489 30.3407 61.4341 30.6251 61.4368C30.9149 61.4368 31.1938 61.322 31.3989 61.1169C31.604 60.9118 31.7188 60.6329 31.7188 60.343V52.5667C31.7134 52.5148 31.7024 52.4628 31.6888 52.4136C31.6806 52.3398 31.6669 52.2687 31.645 52.2003C31.6177 52.1347 31.5876 52.0745 31.5493 52.0144C31.4864 51.8913 31.3934 51.7847 31.2759 51.7109C31.2212 51.6644 31.1638 51.6261 31.1036 51.5933C31.038 51.5659 30.9696 51.5413 30.8985 51.5277C30.8493 51.5085 30.7974 51.4921 30.7481 51.4784C26.5536 51.0109 22.6463 49.1323 19.6629 46.1491C16.6797 43.1659 14.7985 39.2585 14.3309 35.0639C14.32 35.0147 14.3036 34.9682 14.2844 34.919C14.2707 34.8452 14.2461 34.7741 14.2161 34.7057C14.186 34.651 14.1504 34.5991 14.1094 34.5499C14.0383 34.4323 13.9344 34.3366 13.8141 34.2737C13.7485 34.2299 13.6774 34.1944 13.6036 34.1643C13.5379 34.1452 13.4723 34.1315 13.4039 34.126C13.352 34.1096 13.3 34.0987 13.2454 34.0932H5.46905C4.86476 34.0932 4.3753 34.5827 4.3753 35.187C4.3753 35.7913 3.88585 36.2807 3.28155 36.2807C2.98624 36.2807 2.7046 36.1604 2.50224 35.9471C2.2999 35.7475 2.18506 35.4714 2.18779 35.187V30.812C2.18779 30.2077 2.67724 29.7183 3.28154 29.7183C3.57685 29.7183 3.85849 29.8386 4.06085 30.0518C4.26319 30.2515 4.37803 30.5276 4.3753 30.812C4.3753 31.1018 4.49014 31.3807 4.69522 31.5858C4.9003 31.7909 5.17921 31.9057 5.46907 31.9057H13.2482C13.3876 31.9057 13.5243 31.8757 13.6556 31.8237C13.6966 31.8018 13.7376 31.7745 13.7786 31.7472C13.8552 31.7089 13.9263 31.6597 13.9919 31.6022C14.0794 31.5011 14.156 31.3917 14.2271 31.2768C14.249 31.2194 14.2681 31.162 14.279 31.1018C14.3036 31.0472 14.32 30.9925 14.331 30.935C14.7986 26.7405 16.6798 22.8332 19.663 19.8498C22.6462 16.8667 26.5537 14.9881 30.7482 14.5205C30.7974 14.5069 30.8494 14.4905 30.8986 14.4713C30.9697 14.4549 31.0381 14.433 31.101 14.4057C31.1638 14.3729 31.2213 14.3346 31.276 14.2881C31.3935 14.2143 31.4865 14.1076 31.5494 13.9846C31.5877 13.9244 31.6205 13.8643 31.6451 13.7987C31.667 13.7303 31.6806 13.6592 31.6888 13.5881C31.7025 13.5362 31.7135 13.4842 31.7189 13.4323V5.65595C31.7189 5.36611 31.6041 5.0872 31.399 4.8821C31.1939 4.677 30.915 4.56218 30.6252 4.56218C30.0209 4.56218 29.5314 4.07273 29.5314 3.46843C29.5314 3.17311 29.6517 2.89148 29.865 2.68912C30.0673 2.48678 30.3408 2.37194 30.6251 2.37467H35.0001C35.6044 2.37467 36.0939 2.86412 36.0939 3.46842C36.0939 3.76373 35.9736 4.04537 35.7603 4.24773C35.5579 4.45007 35.2845 4.56491 35.0002 4.56218C34.3959 4.56218 33.9064 5.05163 33.9064 5.65593V13.4322C33.9119 13.4842 33.9228 13.5361 33.9365 13.5854C33.9447 13.6592 33.9584 13.7303 33.9802 13.7986C34.0076 13.8643 34.0377 13.9244 34.0759 13.9846C34.1388 14.1076 34.2318 14.2143 34.3494 14.2881C34.4041 14.3346 34.4615 14.3729 34.5216 14.4057C34.5873 14.433 34.6556 14.4549 34.7267 14.4713C34.7759 14.4904 34.8279 14.5068 34.8771 14.5205C39.0716 14.9881 42.9789 16.8666 45.9623 19.8498C48.9455 22.833 50.8267 26.7405 51.2943 30.935C51.3053 30.9925 51.3217 31.0471 51.3463 31.1018C51.3572 31.162 51.3764 31.2194 51.3982 31.2768C51.4693 31.3917 51.5459 31.501 51.6334 31.6022C51.699 31.6596 51.7701 31.7088 51.8467 31.7471C51.8877 31.7745 51.9287 31.8018 51.9697 31.8237C52.101 31.8756 52.2377 31.9057 52.3772 31.9057H60.1563C60.4461 31.9057 60.725 31.7909 60.9301 31.5858C61.1352 31.3807 61.25 31.1018 61.25 30.812C61.25 30.2077 61.7395 29.7182 62.3438 29.7182C62.6391 29.7182 62.9207 29.8385 63.1231 30.0518C63.3254 30.2514 63.4403 30.5276 63.4375 30.8119L63.4374 35.187Z" fill="#000"/>
<path d="M28.4377 30.8123C30.6498 30.8123 32.6431 29.4807 33.4908 27.4353C34.3357 25.3927 33.8682 23.0412 32.3041 21.4772C30.74 19.9131 28.3885 19.4455 26.3459 20.2904C24.3006 21.1381 22.969 23.1315 22.969 25.3436C22.9717 28.3623 25.419 30.8096 28.4377 30.8123L28.4377 30.8123ZM28.4377 22.0623C29.7638 22.0623 30.9615 22.8607 31.4701 24.0884C31.9759 25.3134 31.697 26.7243 30.7592 27.665C29.8185 28.6029 28.4076 28.8818 27.1826 28.3759C25.9548 27.8673 25.1564 26.6697 25.1564 25.3435C25.1592 23.5334 26.6275 22.065 28.4377 22.0623Z" fill="#000"/>
<path d="M35.0001 37.375C33.231 37.375 31.6341 38.4414 30.9587 40.0766C30.2806 41.7117 30.6552 43.593 31.9076 44.8426C33.1572 46.095 35.0384 46.4695 36.6736 45.7914C38.3087 45.1161 39.3752 43.5192 39.3752 41.7501C39.3724 39.3356 37.4146 37.3778 35.0002 37.3751L35.0001 37.375ZM35.0001 43.9375C34.1142 43.9375 33.3185 43.4043 32.9794 42.5867C32.6403 41.7691 32.829 40.8285 33.4524 40.2024C34.0786 39.5789 35.0192 39.3902 35.8368 39.7293C36.6544 40.0684 37.1876 40.8641 37.1876 41.75C37.1848 42.9586 36.2087 43.9348 35.0001 43.9375L35.0001 43.9375Z" fill="#000"/>
<path d="M44.8443 29.7184C44.8443 28.3922 44.0459 27.1945 42.8182 26.686C41.5932 26.1801 40.1823 26.459 39.2416 27.3969C38.3038 28.3375 38.0248 29.7485 38.5307 30.9735C39.0393 32.2012 40.2369 32.9996 41.5631 32.9996C43.3732 32.9969 44.8416 31.5285 44.8443 29.7184V29.7184ZM41.5631 30.8121C41.1201 30.8121 40.7209 30.5469 40.5514 30.1367C40.3846 29.7293 40.4776 29.259 40.7893 28.9445C41.1037 28.6328 41.574 28.5399 41.9814 28.7067C42.3916 28.8762 42.6568 29.2754 42.6568 29.7184C42.6568 30.3227 42.1674 30.8121 41.5631 30.8121L41.5631 30.8121Z" fill="#000"/>
<path d="M22.9693 33.5464C21.8646 33.5464 20.8666 34.2136 20.4427 35.2335C20.0189 36.2562 20.254 37.4319 21.0361 38.214C21.8181 38.996 22.9939 39.2312 24.0165 38.8074C25.0364 38.3835 25.7037 37.3855 25.7037 36.2808C25.7009 34.7714 24.4787 33.5492 22.9693 33.5464L22.9693 33.5464ZM22.9693 36.8276C22.7478 36.8276 22.5482 36.6937 22.4634 36.4913C22.3787 36.2862 22.4251 36.0511 22.5837 35.8952C22.7396 35.7366 22.9747 35.6901 23.1798 35.7749C23.3822 35.8597 23.5162 36.0593 23.5162 36.2808C23.5162 36.5815 23.2701 36.8276 22.9693 36.8276Z" fill="#000"/>
<path d="M27.9128 44.4839H27.9019C27.2948 44.4866 26.8054 44.9788 26.8081 45.5858C26.8109 46.1929 27.3003 46.6823 27.9073 46.6823C28.5144 46.6823 29.0038 46.1929 29.0065 45.5858C29.0093 44.9788 28.5198 44.4866 27.9128 44.4839H27.9128Z" fill="#000"/>
<path d="M38.3036 22.0625C38.9079 22.0625 39.3973 21.573 39.3973 20.9687C39.3973 20.3645 38.9079 19.875 38.3036 19.875H38.2927C37.6884 19.8777 37.2016 20.3699 37.2044 20.9742C37.2071 21.5785 37.6993 22.0652 38.3036 22.0625H38.3036Z" fill="#000"/>
<path d="M44.297 36.2813C43.6325 36.2813 43.0364 36.6805 42.7821 37.293C42.5278 37.9083 42.6673 38.6137 43.1376 39.0813C43.6052 39.5516 44.3106 39.6911 44.9259 39.4368C45.5384 39.1825 45.9376 38.5864 45.9376 37.9219C45.9376 37.0168 45.202 36.2812 44.2969 36.2812L44.297 36.2813ZM44.297 38.4688C44.0755 38.4688 43.8759 38.3348 43.7911 38.1325C43.7064 37.9274 43.7528 37.6922 43.9114 37.5364C44.0673 37.3778 44.3025 37.3313 44.5075 37.4161C44.7099 37.5008 44.8439 37.7005 44.8439 37.9219C44.8439 38.2227 44.5978 38.4688 44.297 38.4688Z" fill="#000"/>
</svg>
